<svg width="24" height="24" viewBox="0 0 24 24" fill="none" xmlns="http://www.w3.org/2000/svg">
<path d="M12.0001 1.99896C17.5238 1.99896 22.0016 6.47681 22.0016 12.0005C22.0016 17.5242 17.5238 22.0021 12.0001 22.0021C6.47638 22.0021 1.99854 17.5242 1.99854 12.0005C1.99854 6.47681 6.47638 1.99896 12.0001 1.99896ZM11.9963 10.2495C11.4834 10.2499 11.061 10.6362 11.0036 11.1336L10.9969 11.2502L11.0005 16.7518L11.0073 16.8684C11.0654 17.3657 11.4884 17.7515 12.0012 17.7511C12.514 17.7508 12.9364 17.3645 12.9939 16.8671L13.0005 16.7505L12.9969 11.2489L12.9901 11.1323C12.932 10.635 12.5091 10.2492 11.9963 10.2495ZM12.0005 6.5C11.3093 6.5 10.749 7.06032 10.749 7.75152C10.749 8.44271 11.3093 9.00304 12.0005 9.00304C12.6917 9.00304 13.2521 8.44271 13.2521 7.75152C13.2521 7.06032 12.6917 6.5 12.0005 6.5Z" fill="#991B1B"/>
</svg>
