<svg width="26" height="26" viewBox="0 0 26 26" fill="none" xmlns="http://www.w3.org/2000/svg">
<path d="M18.6081 1.44531H7.04275C5.67403 1.44531 4.56445 2.55488 4.56445 3.92361V22.0978C4.56445 23.4665 5.67403 24.5761 7.04275 24.5761H18.6081C19.9769 24.5761 21.0864 23.4665 21.0864 22.0978V3.92361C21.0864 2.55488 19.9769 1.44531 18.6081 1.44531Z" fill="#F8F8F8"/>
<path d="M11.1738 13.0116C11.1738 12.6848 11.2707 12.3654 11.4523 12.0937C11.6338 11.822 11.8919 11.6102 12.1938 11.4851C12.4957 11.3601 12.8279 11.3274 13.1484 11.3911C13.4689 11.4549 13.7632 11.6122 13.9943 11.8433C14.2254 12.0744 14.3827 12.3688 14.4465 12.6892C14.5102 13.0097 14.4775 13.3419 14.3525 13.6438C14.2274 13.9457 14.0156 14.2038 13.7439 14.3853C13.4722 14.5669 13.1528 14.6638 12.826 14.6638C12.3878 14.6638 11.9676 14.4897 11.6577 14.1799C11.3479 13.87 11.1738 13.4498 11.1738 13.0116Z" fill="#9D9D9D"/>
<path d="M11.1738 17.9686C11.1738 17.6418 11.2707 17.3224 11.4523 17.0507C11.6338 16.779 11.8919 16.5672 12.1938 16.4422C12.4957 16.3171 12.8279 16.2844 13.1484 16.3482C13.4689 16.4119 13.7632 16.5693 13.9943 16.8003C14.2254 17.0314 14.3827 17.3258 14.4465 17.6463C14.5102 17.9668 14.4775 18.299 14.3525 18.6009C14.2274 18.9028 14.0156 19.1608 13.7439 19.3424C13.4722 19.5239 13.1528 19.6208 12.826 19.6208C12.3878 19.6208 11.9676 19.4467 11.6577 19.1369C11.3479 18.827 11.1738 18.4068 11.1738 17.9686Z" fill="#9D9D9D"/>
<path d="M11.1738 8.05454C11.1738 7.72777 11.2707 7.40833 11.4523 7.13663C11.6338 6.86493 11.8919 6.65316 12.1938 6.52811C12.4957 6.40306 12.8279 6.37034 13.1484 6.43409C13.4689 6.49784 13.7632 6.6552 13.9943 6.88626C14.2254 7.11733 14.3827 7.41172 14.4465 7.73222C14.5102 8.05271 14.4775 8.38491 14.3525 8.68681C14.2274 8.98871 14.0156 9.24675 13.7439 9.4283C13.4722 9.60984 13.1528 9.70674 12.826 9.70674C12.3878 9.70674 11.9676 9.53267 11.6577 9.22282C11.3479 8.91298 11.1738 8.49273 11.1738 8.05454Z" fill="#9D9D9D"/>
</svg>
