<svg width="21" height="20" viewBox="0 0 21 20" fill="none" xmlns="http://www.w3.org/2000/svg">
<path d="M7.60728 6.27594C7.85245 6.03295 7.85421 5.63723 7.61123 5.39207C7.36824 5.1469 6.97252 5.14514 6.72735 5.38812L5.23174 6.87045C4.66843 7.42873 4.20804 7.88502 3.88153 8.29158C3.54201 8.71435 3.29623 9.14347 3.23058 9.65856C3.20179 9.88442 3.20179 10.113 3.23058 10.3388C3.29623 10.8539 3.54201 11.283 3.88153 11.7058C4.20804 12.1124 4.66843 12.5687 5.23175 13.127L6.72735 14.6093C6.97252 14.8523 7.36824 14.8505 7.61123 14.6053C7.85421 14.3602 7.85245 13.9644 7.60728 13.7215L6.13814 12.2654C5.5419 11.6744 5.1329 11.2677 4.85615 10.9231C4.76621 10.8111 4.69603 10.7125 4.64155 10.6237H17.1673C17.5125 10.6237 17.7923 10.3439 17.7923 9.9987C17.7923 9.65352 17.5125 9.3737 17.1673 9.3737H4.64155C4.69603 9.28487 4.76621 9.18628 4.85615 9.07429C5.1329 8.72968 5.5419 8.32298 6.13814 7.73203L7.60728 6.27594Z" fill="#EF5021"/>
</svg>
