<svg width="25" height="24" viewBox="0 0 25 24" fill="none" xmlns="http://www.w3.org/2000/svg">
<path d="M4.59945 17.0194L3.39589 9.83981C3.21391 8.75428 3.12293 8.21152 3.41429 7.85576C3.70566 7.5 4.24117 7.5 5.3122 7.5H20.141C21.212 7.5 21.7475 7.5 22.0389 7.85576C22.3302 8.21152 22.2392 8.75428 22.0573 9.83981L20.8537 17.0194C20.4548 19.3991 20.2553 20.5889 19.4409 21.2945C18.6266 22 17.4526 22 15.1048 22H10.3484C8.00052 22 6.82659 22 6.01221 21.2945C5.19783 20.5889 4.99837 19.3991 4.59945 17.0194Z" stroke="#475569" stroke-width="1.5"/>
<path d="M18.2266 7.5C18.2266 4.46243 15.7642 2 12.7266 2C9.68899 2 7.22656 4.46243 7.22656 7.5" stroke="#475569" stroke-width="1.5"/>
</svg>
