<svg width="48" height="48" viewBox="0 0 48 48" fill="none" xmlns="http://www.w3.org/2000/svg">
<circle cx="24" cy="24" r="24" fill="#FDEEE8"/>
<g clip-path="url(#clip0_2621_4592)">
<path d="M35.2953 17.0211L30.9405 12.6826L29.6705 13.9577L13.9784 29.7089L12.709 30.9834L17.0638 35.3219C18.8936 37.145 24.4581 34.5258 29.4924 29.4725C34.5268 24.4192 37.1251 18.8442 35.2953 17.0211ZM22.6164 22.6222C24.9251 20.3053 27.3203 18.541 29.2657 17.6067C28.339 19.5557 26.5835 21.958 24.2753 24.2749C21.9671 26.5917 19.5715 28.3565 17.6261 29.2908C18.5528 27.3416 20.3084 24.9393 22.6164 22.6222Z" fill="#FFB48D"/>
<path d="M30.9405 12.6826C29.1108 10.86 23.5463 13.4793 18.5119 18.5326C13.4776 23.5859 10.8793 29.1606 12.709 30.9831C14.5388 32.8057 20.1032 30.187 25.1376 25.1337C30.172 20.0804 32.7703 14.5057 30.9405 12.6826ZM24.2754 24.2748C21.9673 26.5922 19.5716 28.3565 17.6262 29.2908C18.5529 27.3418 20.3084 24.9395 22.6166 22.6221C24.9248 20.3047 27.3204 18.541 29.2658 17.6067C28.3392 19.5554 26.5836 21.9577 24.2754 24.2748Z" fill="#F5A27E"/>
<path d="M29.8558 16.039C29.709 16.5791 29.5113 17.1041 29.2654 17.6068C27.32 18.5411 24.9248 20.3054 22.6161 22.6222C20.3075 24.9391 18.5524 27.3419 17.6258 29.2909C17.1239 29.5387 16.5996 29.7383 16.0601 29.887C15.1472 30.126 14.4227 30.083 13.9781 29.7089C13.9526 29.6882 13.9281 29.6661 13.9049 29.6429C12.5126 28.2558 14.8986 23.6041 19.2335 19.2524C23.5684 14.9006 28.2113 12.4982 29.6036 13.8849C29.627 13.9081 29.6492 13.9325 29.6701 13.9581C30.0456 14.4012 30.0912 15.1257 29.8558 16.039Z" fill="#EB8F65"/>
<path d="M32.932 29.0655C31.99 30.1519 30.0799 32.2692 28.1412 33.9122C27.6658 34.3149 26.9761 34.3937 26.3519 34.122C25.3751 33.6987 24.4586 33.1482 23.6262 32.4846C23.3719 32.2804 23.1191 32.0579 22.8725 31.8158C22.7911 31.736 22.7108 31.6541 22.6315 31.5702C22.2651 31.1862 21.9339 30.7701 21.6419 30.3268C21.2022 29.6589 20.8626 28.9302 20.6339 28.164C20.4205 27.4492 20.6528 26.7226 21.2187 26.325C22.1612 25.6634 23.7751 24.3162 25.5572 21.8929C25.9845 21.3121 26.7607 21.1003 27.4949 21.3735C29.0806 21.9635 31.7132 23.4919 33.194 27.3458C33.4289 27.9563 33.3256 28.6117 32.932 29.0655Z" fill="#51518E"/>
<path d="M24.0531 30.1306L22.6312 31.5704C22.2648 31.1864 21.9336 30.7703 21.6416 30.3271C22.2469 30.0436 23.2472 29.5079 23.7651 28.8647C24.5392 27.9038 24.0531 30.1306 24.0531 30.1306Z" fill="#3E3E7A"/>
<path d="M25.2334 31.1072C25.2334 31.1072 24.445 31.8481 23.6258 32.4846C23.3715 32.2804 23.1187 32.0578 22.8721 31.8158C22.955 31.5129 23.044 31.2673 23.044 31.2673L24.8594 30.1304L25.2334 31.1072Z" fill="#3E3E7A"/>
<path d="M34.6375 23.2217L34.5787 23.9999C34.573 24.0724 34.5598 24.1441 34.5393 24.2139C34.3428 24.8857 33.1235 28.3385 27.8307 32.6437C27.7627 32.6994 27.6949 32.7542 27.6276 32.8079C27.6276 32.8079 23.5152 31.8537 23.1924 27.9435L23.2451 27.245C23.2751 26.8488 23.4556 26.4792 23.7496 26.2119C24.7458 25.3047 27.141 22.9249 28.5619 19.836C28.6751 19.59 28.8802 19.3981 29.1333 19.3017C29.3863 19.2053 29.6671 19.2119 29.9153 19.3202C30.9519 19.7725 32.6655 20.7017 34.3448 22.4174C34.448 22.5229 34.5275 22.6493 34.5779 22.788C34.6284 22.9267 34.6487 23.0745 34.6375 23.2217Z" fill="#F5A27E"/>
<path d="M21.1397 31.3271C21.1397 31.3271 21.1036 32.4751 22.5775 32.7594C22.5775 32.7594 24.7941 31.2628 26.9131 28.7907C26.9131 28.7907 27.3689 26.9913 25.763 27.6449C25.7629 27.6449 23.5099 30.1364 21.1397 31.3271Z" fill="#51518E"/>
<path d="M34.6375 23.222L34.5787 24.0002C34.573 24.0727 34.5598 24.1444 34.5393 24.2141C34.0288 23.6082 33.4837 23.0323 32.9065 22.4895C32.086 21.7836 31.1959 21.1629 30.2499 20.6368C30.1265 20.5691 29.9906 20.5273 29.8505 20.5139C29.7104 20.5006 29.569 20.5159 29.4351 20.5591C29.3011 20.6022 29.1774 20.6723 29.0714 20.7649C28.9654 20.8575 28.8795 20.9708 28.8188 21.0977C27.8067 23.2217 26.2594 25.0387 25.0436 26.2656C25.0436 26.2656 23.6785 27.4855 23.1924 27.9439L23.2451 27.2455C23.2751 26.8493 23.4556 26.4797 23.7496 26.2124C24.7458 25.3052 27.141 22.9254 28.5619 19.8365C28.6751 19.5904 28.8802 19.3986 29.1333 19.3022C29.3863 19.2058 29.6671 19.2124 29.9153 19.3207C30.9519 19.773 32.6655 20.7022 34.3448 22.4179C34.448 22.5234 34.5274 22.6497 34.5779 22.7884C34.6284 22.927 34.6487 23.0749 34.6375 23.222Z" fill="#EB8F65"/>
<path d="M35.3672 16.9488L31.0124 12.6103C30.0946 11.6962 28.2734 11.8121 25.8839 12.9368C23.5263 14.0467 20.8823 16.0083 18.4392 18.4605C15.9962 20.9128 14.0442 23.5644 12.9433 25.9265C11.8278 28.3201 11.7188 30.1417 12.6366 31.0558L16.9914 35.3943C17.4 35.8014 17.9913 36 18.7264 36C20.2659 36 22.4355 35.1279 24.8716 33.4746C25.3349 33.7522 25.8156 33.9998 26.3106 34.2158C26.5603 34.3259 26.8301 34.3834 27.1031 34.3847C27.5062 34.3886 27.8976 34.2488 28.2069 33.9902C30.1418 32.3505 32.046 30.2429 33.0089 29.1326C33.4284 28.6488 33.5359 27.9501 33.289 27.3089C33.2606 27.2354 33.2315 27.1631 33.2024 27.0911C34.1707 25.6321 34.5283 24.6146 34.6374 24.2427C34.66 24.1661 34.6745 24.0873 34.6807 24.0077L34.7395 23.2294C34.7501 23.0894 34.7347 22.9486 34.6942 22.8141C36.1304 20.0902 36.3763 17.9536 35.3672 16.9488ZM32.8542 28.9987C31.8952 30.1047 29.9991 32.2034 28.0746 33.8343C27.629 34.2117 26.9844 34.2861 26.3922 34.0283C25.336 33.5702 24.3515 32.9615 23.4696 32.2214C23.7929 31.9669 24.1925 31.6384 24.6362 31.2441C25.9291 32.5069 27.5357 32.8917 27.6047 32.9076C27.6197 32.9111 27.6353 32.9112 27.6504 32.9078C27.6655 32.9044 27.6796 32.8976 27.6916 32.888C27.7595 32.834 27.8275 32.779 27.8956 32.7231C30.0764 30.9491 31.8142 29.1245 33.0643 27.2968C33.0756 27.3255 33.0873 27.3536 33.0984 27.3826C33.3176 27.9528 33.2242 28.5721 32.8544 28.9985L32.8542 28.9987ZM22.689 22.6945C24.796 20.5797 27.0927 18.8238 29.0404 17.8331C28.5229 18.8595 27.7857 20.0004 26.8929 21.1543C26.6193 21.1442 26.3472 21.2006 26.1002 21.3187C25.8532 21.4369 25.6385 21.6132 25.4746 21.8326C23.7403 24.1906 22.1709 25.5317 21.1597 26.2416C20.9651 26.3788 20.8024 26.5562 20.6824 26.7618C20.5624 26.9675 20.4881 27.1965 20.4643 27.4333C19.6373 28.0449 18.7634 28.5906 17.8509 29.0653C18.8344 27.1135 20.5819 24.8096 22.689 22.6945ZM17.5496 29.2135C17.0635 29.4517 16.5562 29.644 16.0344 29.7878C15.082 30.0374 14.3707 29.9622 13.9774 29.5703C13.3475 28.9427 13.5425 27.4977 14.5128 25.6059C15.5146 23.6528 17.2169 21.422 19.3063 19.3244C21.3956 17.2268 23.6201 15.5166 25.5695 14.5076C27.4576 13.5303 28.9017 13.3298 29.5317 13.9572C29.9247 14.3488 30.0024 15.0598 29.7568 16.0133C29.6148 16.5358 29.4243 17.0438 29.1878 17.5309C27.1713 18.5063 24.7521 20.3334 22.5439 22.55C20.3357 24.7667 18.5173 27.1933 17.5496 29.2135ZM20.6624 27.5058C20.6624 27.5047 20.6624 27.5037 20.6628 27.5026C20.6777 27.2861 20.7405 27.0757 20.8468 26.8865C20.9531 26.6973 21.1001 26.5341 21.2773 26.4088C22.301 25.6902 23.8888 24.334 25.6394 21.9536C26.0406 21.4083 26.7719 21.2138 27.4592 21.4695C27.4881 21.4802 27.5181 21.4917 27.5485 21.5035C26.2049 23.6914 24.5538 25.3413 23.6809 26.1363C23.3672 26.4208 23.1747 26.815 23.1433 27.2373L23.0906 27.9358C23.0902 27.9411 23.0902 27.9465 23.0906 27.9519C23.1355 28.5266 23.275 29.09 23.5036 29.6192C23.0327 30.0067 22.5402 30.3672 22.0285 30.6988C21.448 29.9276 21.009 29.0596 20.7318 28.135C20.67 27.9313 20.6465 27.718 20.6624 27.5058ZM23.68 29.7388C23.6896 29.7332 23.6983 29.726 23.7056 29.7176C24.4525 29.101 25.1595 28.4374 25.8221 27.7309C26.2271 27.5699 26.5167 27.5615 26.6831 27.7061C26.9414 27.9306 26.8728 28.5092 26.8188 28.7425C24.8822 30.9966 22.8443 32.4486 22.5545 32.6503C21.3985 32.4093 21.2594 31.6147 21.2434 31.3888C22.1052 30.9479 22.9523 30.3365 23.68 29.7388ZM34.5356 23.2141L34.4769 23.9921C34.4717 24.0575 34.4597 24.1222 34.4411 24.1851C34.3336 24.5519 33.9779 25.5627 33.0026 27.0224C31.7567 28.8867 29.9949 30.7513 27.7659 32.5645C27.7116 32.6091 27.6575 32.653 27.6036 32.6962C27.3296 32.6231 25.9202 32.2059 24.7888 31.1073C25.5695 30.4045 26.3048 29.653 26.9903 28.8571C27.0005 28.8451 27.0079 28.8309 27.0118 28.8156C27.0211 28.7789 27.2343 27.9143 26.8178 27.5517C26.5855 27.3495 26.2174 27.3488 25.7239 27.5497C25.7096 27.5555 25.6969 27.5644 25.6866 27.5759C25.0538 28.2528 24.3796 28.8899 23.6679 29.4833C23.4632 28.9927 23.3374 28.4728 23.2951 27.9429L23.3472 27.2526C23.3748 26.8823 23.5435 26.5368 23.8186 26.2874C24.7124 25.4735 26.4148 23.7717 27.782 21.5142C27.7839 21.5116 27.7856 21.509 27.7871 21.5062C28.1066 20.9803 28.3963 20.4369 28.6548 19.8785C28.7576 19.6576 28.9425 19.4855 29.1702 19.3988C29.3979 19.312 29.6504 19.3174 29.8742 19.4138C30.979 19.8959 32.6388 20.8209 34.2715 22.489C34.3646 22.5841 34.4362 22.698 34.4818 22.823C34.5273 22.9481 34.5457 23.0814 34.5356 23.2141ZM34.5896 22.5723C34.5421 22.4899 34.4845 22.4138 34.4181 22.3458C32.7624 20.6542 31.0779 19.7158 29.9563 19.2264C29.9472 19.2224 29.938 19.2189 29.9288 19.2152C30.4537 18.3153 30.8655 17.4576 31.153 16.6645C31.1623 16.6389 31.161 16.6108 31.1495 16.5862C31.138 16.5616 31.1172 16.5426 31.0917 16.5333C31.0662 16.5241 31.038 16.5253 31.0134 16.5369C30.9888 16.5484 30.9698 16.5691 30.9606 16.5947C30.6728 17.3888 30.2577 18.2498 29.7271 19.1547C29.4762 19.1051 29.2159 19.141 28.9879 19.2568C28.7598 19.3725 28.5771 19.5614 28.4691 19.7932C28.2259 20.3184 27.9547 20.8301 27.6566 21.3261C27.6134 21.3091 27.5709 21.2926 27.5304 21.2777C27.4024 21.2301 27.2698 21.1958 27.1348 21.1753C28.0786 19.9434 28.8459 18.7278 29.358 17.6509C29.6067 17.1422 29.8067 16.6111 29.9552 16.0647C30.2236 15.0223 30.1297 14.2646 29.676 13.8125C28.9686 13.1078 27.4767 13.2903 25.4754 14.3261C23.5077 15.3443 21.2653 17.0687 19.1614 19.1802C17.0575 21.2917 15.3418 23.541 14.3307 25.5125C13.3022 27.5178 13.1254 29.0104 13.8329 29.7152C14.1136 29.995 14.5247 30.1361 15.0455 30.136C15.3975 30.1303 15.7472 30.0798 16.0864 29.9859C16.6323 29.8354 17.1627 29.6335 17.6705 29.383C18.5357 28.9673 19.4716 28.399 20.4546 27.6928C20.46 27.8625 20.4872 28.0307 20.5358 28.1933C20.5913 28.3797 20.6535 28.564 20.7222 28.7459C19.2886 29.7499 17.8849 30.5205 16.6588 30.9753C16.6362 30.9836 16.6173 30.9996 16.6054 31.0205C16.5935 31.0413 16.5893 31.0657 16.5935 31.0893C16.5977 31.113 16.6102 31.1344 16.6286 31.1498C16.647 31.1652 16.6703 31.1736 16.6943 31.1736C16.7066 31.1736 16.7187 31.1715 16.7301 31.1672C17.9608 30.7107 19.3656 29.9418 20.7993 28.9417C21.0703 29.6063 21.4251 30.2335 21.8551 30.8082C21.6044 30.9631 21.3495 31.1072 21.0939 31.2356C21.0774 31.2439 21.0635 31.2565 21.0536 31.272C21.0437 31.2875 21.0381 31.3054 21.0376 31.3238C21.0372 31.3362 21.0165 32.5625 22.5581 32.8598C22.5645 32.861 22.571 32.8616 22.5775 32.8616C22.5979 32.8616 22.6178 32.8555 22.6348 32.8441C22.6422 32.839 22.8945 32.6673 23.3051 32.3502C23.7374 32.7198 24.1969 33.0563 24.6797 33.3571C23.015 34.478 21.442 35.2524 20.1233 35.5977C18.7571 35.9555 17.7239 35.8351 17.1362 35.2495L12.7813 30.911C11.9289 30.0621 12.0524 28.3224 13.1288 26.013C14.2197 23.6718 16.1574 21.041 18.5843 18.605C21.0112 16.169 23.6345 14.2219 25.9713 13.1219C28.2769 12.0367 30.016 11.9064 30.8681 12.7553L35.2229 17.0938C36.1464 18.0135 35.9136 20.0042 34.5895 22.5723H34.5896Z" fill="black"/>
<path d="M30.2997 20.5463C30.164 20.472 30.0147 20.426 29.8607 20.4114C29.7067 20.3967 29.5513 20.4136 29.4041 20.4611C29.2568 20.5085 29.1208 20.5855 29.0044 20.6873C28.8879 20.7891 28.7934 20.9136 28.7267 21.0531C27.7027 23.2022 26.1191 25.0345 24.971 26.1932C24.9519 26.2125 24.9413 26.2385 24.9414 26.2657C24.9415 26.2928 24.9524 26.3188 24.9717 26.3379C24.991 26.357 25.0171 26.3677 25.0442 26.3675C25.0714 26.3674 25.0974 26.3565 25.1165 26.3372C26.2757 25.1673 27.8751 23.3163 28.9115 21.1412C28.9663 21.0268 29.0437 20.9247 29.1393 20.8413C29.2348 20.7578 29.3463 20.6947 29.467 20.6558C29.5877 20.617 29.7151 20.6031 29.8414 20.6152C29.9676 20.6272 30.0901 20.6648 30.2013 20.7258C31.1408 21.2492 32.0251 21.8661 32.8406 22.5671C32.8508 22.5761 32.8627 22.583 32.8755 22.5873C32.8884 22.5916 32.902 22.5934 32.9156 22.5924C32.9291 22.5914 32.9423 22.5878 32.9544 22.5816C32.9665 22.5755 32.9773 22.567 32.9861 22.5567C32.9949 22.5463 33.0016 22.5343 33.0057 22.5214C33.0098 22.5085 33.0113 22.4948 33.0102 22.4813C33.009 22.4678 33.0051 22.4546 32.9987 22.4426C32.9924 22.4306 32.9838 22.42 32.9733 22.4113C32.1471 21.7012 31.2514 21.0764 30.2997 20.5463Z" fill="black"/>
</g>
<defs>
<clipPath id="clip0_2621_4592">
<rect width="24" height="24" fill="white" transform="translate(12 12)"/>
</clipPath>
</defs>
</svg>
