<svg width="48" height="48" viewBox="0 0 48 48" fill="none" xmlns="http://www.w3.org/2000/svg">
<circle cx="24" cy="24" r="24" fill="#EAF2ED"/>
<g clip-path="url(#clip0_2621_4440)">
<path d="M34.3493 34.1869H13.4083C12.6634 34.1869 12.0596 33.5831 12.0596 32.8382V20.4675C12.0596 18.3141 13.8053 16.5684 15.9587 16.5684H34.3493C35.0941 16.5684 35.698 17.1722 35.698 17.9171V32.8382C35.698 33.5831 35.0942 34.1869 34.3493 34.1869Z" fill="url(#paint0_linear_2621_4440)"/>
<path d="M34.3493 34.1869H13.4083C12.6634 34.1869 12.0596 33.5831 12.0596 32.8382V20.4675C12.0596 18.3141 13.8053 16.5684 15.9587 16.5684H34.3493C35.0941 16.5684 35.698 17.1722 35.698 17.9171V32.8382C35.698 33.5831 35.0942 34.1869 34.3493 34.1869Z" fill="url(#paint1_linear_2621_4440)"/>
<path d="M22.1445 30.2535L22.1827 14.0122C22.1833 13.7487 22.3974 13.5355 22.6609 13.5361L31.1383 13.556C31.4018 13.5566 31.6149 13.7708 31.6143 14.0343L31.5762 30.2757C31.5756 30.5392 31.3614 30.7523 31.0979 30.7517L22.6205 30.7318C22.3571 30.7312 22.1439 30.5171 22.1445 30.2535Z" fill="url(#paint2_linear_2621_4440)"/>
<path d="M22.4727 29.9012L22.5091 14.366C22.5096 14.1174 22.7116 13.9164 22.9602 13.917L30.8378 13.9355C31.0864 13.9361 31.2874 14.138 31.2868 14.3866L31.2504 29.9217C31.2498 30.1703 31.0478 30.3713 30.7992 30.3707L22.9216 30.3522C22.6731 30.3517 22.4721 30.1497 22.4727 29.9012Z" fill="url(#paint3_linear_2621_4440)"/>
<path d="M28.6936 29.3039C28.6955 28.5074 29.3427 27.8632 30.1392 27.8651C30.1719 27.8651 30.2044 27.8663 30.2365 27.8686C30.3909 27.8794 30.5221 27.7578 30.5225 27.6031L30.548 16.702C30.5484 16.5473 30.4177 16.4251 30.2633 16.4352C30.2312 16.4373 30.1987 16.4384 30.166 16.4383C29.3695 16.4364 28.7253 15.7892 28.7271 14.9927C28.7271 14.9917 28.7271 14.9908 28.7271 14.9898C28.7278 14.8402 28.6103 14.7172 28.4607 14.7168L25.332 14.7095C25.1824 14.7091 25.0644 14.8316 25.0644 14.9812V14.9841C25.0625 15.7806 24.4153 16.4248 23.6188 16.4229C23.5861 16.4228 23.5536 16.4216 23.5214 16.4194C23.3671 16.4085 23.2358 16.5301 23.2355 16.6849L23.21 27.5859C23.2096 27.7406 23.3403 27.8628 23.4947 27.8527C23.5268 27.8506 23.5593 27.8496 23.592 27.8497C24.3885 27.8515 25.0327 28.4987 25.0308 29.2953V29.2981C25.0302 29.4477 25.1476 29.5707 25.2972 29.5711L28.4259 29.5785C28.5755 29.5788 28.6935 29.4563 28.6936 29.3067C28.6936 29.3058 28.6936 29.3048 28.6936 29.3039Z" fill="url(#paint4_linear_2621_4440)"/>
<path d="M26.8792 25.4293C28.6937 25.4293 30.1647 23.9584 30.1647 22.1439C30.1647 20.3293 28.6937 18.8584 26.8792 18.8584C25.0647 18.8584 23.5938 20.3293 23.5938 22.1439C23.5938 23.9584 25.0647 25.4293 26.8792 25.4293Z" fill="url(#paint5_linear_2621_4440)"/>
<path d="M28.8596 23.4385C28.9379 23.3886 29.0032 23.2921 29.0554 23.1482C29.1114 22.9932 29.1497 22.8278 29.1708 22.6526C29.1768 22.6433 29.1821 22.6337 29.1866 22.624L29.4653 22.3651C29.4953 22.3244 29.5105 22.2805 29.5106 22.2335C29.5107 22.182 29.4957 22.138 29.4659 22.1016C29.436 22.0651 29.4018 22.0468 29.3632 22.0468L29.1769 22.0463C29.1391 21.6992 29.0241 21.4086 28.8319 21.1747C28.6396 20.9407 28.3573 20.8234 27.9852 20.8225C27.8526 20.8221 27.7318 20.8368 27.6227 20.8666C27.5136 20.8963 27.4184 20.9454 27.337 21.0138C27.2555 21.082 27.1859 21.1472 27.128 21.2093C27.1276 21.2097 27.1272 21.2102 27.1268 21.2107C27.1268 21.2107 26.3168 22.0169 26.3163 22.0173C26.3083 22.0248 26.3008 22.0321 26.293 22.0396L25.2181 22.037C25.2314 21.8472 25.2809 21.6801 25.3668 21.5357C25.4526 21.3913 25.533 21.278 25.6081 21.1954C25.6831 21.1128 25.7207 21.0461 25.7208 20.9953C25.721 20.9186 25.6805 20.8504 25.5994 20.7906C25.5183 20.7308 25.4371 20.7009 25.3559 20.7007C25.226 20.7004 25.0979 20.7732 24.9714 20.9193L22.1595 23.718L22.1445 30.1222L28.8596 23.4385Z" fill="url(#paint6_linear_2621_4440)"/>
<path d="M25.3559 20.7007C25.4371 20.7009 25.5183 20.7308 25.5994 20.7906C25.6805 20.8505 25.721 20.9187 25.7208 20.9954C25.7207 21.0462 25.6831 21.1129 25.6081 21.1954C25.533 21.278 25.4526 21.3914 25.3668 21.5357C25.2809 21.6802 25.2314 21.8472 25.2181 22.0371L26.7252 22.0406C26.7725 21.9122 26.8102 21.8137 26.8381 21.7452C26.866 21.6767 26.9069 21.5858 26.9606 21.4724C27.0143 21.3589 27.0701 21.2712 27.128 21.2093C27.1858 21.1473 27.2555 21.082 27.3369 21.0138C27.4183 20.9453 27.5135 20.8963 27.6226 20.8666C27.7318 20.8369 27.8526 20.8222 27.9851 20.8225C28.3573 20.8234 28.6396 20.9407 28.8318 21.1747C29.0241 21.4086 29.1391 21.6992 29.1768 22.0463L29.3632 22.0468C29.4018 22.0468 29.4359 22.0651 29.4658 22.1016C29.4957 22.138 29.5106 22.182 29.5105 22.2335C29.5104 22.2806 29.4952 22.3244 29.4652 22.3651C29.4351 22.4057 29.4008 22.426 29.3623 22.4259L29.1888 22.4255C29.1795 22.6868 29.1351 22.9276 29.0553 23.1482C28.9754 23.3686 28.865 23.4787 28.7235 23.4783C28.6464 23.4781 28.5662 23.452 28.4827 23.3999C28.3993 23.3479 28.3577 23.2787 28.3579 23.1923C28.358 23.1581 28.3946 23.0643 28.4678 22.9111C28.541 22.7577 28.5842 22.5953 28.5975 22.4241L27.2951 22.421C27.2305 22.5913 27.1692 22.7328 27.1112 22.8455C27.0532 22.9582 26.9728 23.0775 26.8698 23.2029C26.7669 23.3284 26.6374 23.4229 26.4812 23.4864C26.325 23.5499 26.1421 23.5815 25.9326 23.581C25.5498 23.5801 25.2458 23.475 25.0205 23.2657C24.7953 23.0563 24.6573 22.7727 24.6065 22.4147L24.3918 22.4142C24.3539 22.4141 24.3204 22.3936 24.2909 22.3529C24.2616 22.3121 24.2469 22.2681 24.2471 22.221C24.2472 22.1696 24.2621 22.1256 24.2914 22.0893C24.321 22.053 24.3547 22.0348 24.3926 22.0349L24.5881 22.0354C24.5933 21.6627 24.6793 21.3469 24.8462 21.0881C25.0133 20.8294 25.1831 20.7003 25.3559 20.7007ZM28.0478 21.4589C27.881 21.4585 27.7537 21.5101 27.6658 21.6139C27.5779 21.7175 27.4953 21.8731 27.4178 22.0808L28.5862 22.0836C28.5357 21.6678 28.3562 21.4596 28.0478 21.4589ZM25.2302 22.3777C25.2977 22.7548 25.5089 22.9439 25.8638 22.9447C26.0519 22.9452 26.1995 22.8962 26.3066 22.798C26.4136 22.6996 26.5059 22.5606 26.5834 22.3809L25.2302 22.3777Z" fill="url(#paint7_linear_2621_4440)"/>
<path d="M29.8515 15.8306C29.4747 15.8297 29.17 15.5236 29.1709 15.1469C29.1718 14.7701 29.4779 14.4654 29.8547 14.4663C30.2314 14.4672 30.5361 14.7733 30.5352 15.1501C30.5344 15.5268 30.2282 15.8315 29.8515 15.8306Z" fill="url(#paint8_linear_2621_4440)"/>
<path d="M29.8183 29.835C29.4415 29.8341 29.1368 29.528 29.1377 29.1513C29.1386 28.7745 29.4447 28.4698 29.8215 28.4707C30.1982 28.4716 30.5029 28.7777 30.502 29.1545C30.5012 29.5312 30.195 29.8359 29.8183 29.835Z" fill="url(#paint9_linear_2621_4440)"/>
<path d="M23.94 15.817C24.3167 15.817 24.6221 15.5116 24.6221 15.1348C24.6221 14.7581 24.3167 14.4526 23.94 14.4526C23.5632 14.4526 23.2578 14.7581 23.2578 15.1348C23.2578 15.5116 23.5632 15.817 23.94 15.817Z" fill="url(#paint10_linear_2621_4440)"/>
<path d="M23.9068 29.8214C24.2835 29.8214 24.5889 29.5159 24.5889 29.1392C24.5889 28.7624 24.2835 28.457 23.9068 28.457C23.53 28.457 23.2246 28.7624 23.2246 29.1392C23.2246 29.5159 23.53 29.8214 23.9068 29.8214Z" fill="url(#paint11_linear_2621_4440)"/>
<path d="M22.625 30.7835L17.1666 15.4868C17.078 15.2386 17.2074 14.9656 17.4556 14.877L25.4399 12.0279C25.6881 11.9393 25.9611 12.0687 26.0497 12.3169L31.5082 27.6136C31.5967 27.8618 31.4673 28.1348 31.2191 28.2234L23.2348 31.0725C22.9866 31.1611 22.7136 31.0316 22.625 30.7835Z" fill="url(#paint12_linear_2621_4440)"/>
<path d="M22.8139 30.3415L17.5927 15.7099C17.5092 15.4758 17.6312 15.2183 17.8653 15.1348L25.2848 12.4872C25.5188 12.4037 25.7763 12.5258 25.8599 12.7598L31.081 27.3914C31.1646 27.6255 31.0425 27.883 30.8084 27.9665L23.389 30.6141C23.1549 30.6976 22.8974 30.5756 22.8139 30.3415Z" fill="url(#paint13_linear_2621_4440)"/>
<path d="M28.4667 27.6741C28.199 26.9238 28.5901 26.0987 29.3403 25.831C29.3711 25.82 29.4021 25.8101 29.4331 25.8014C29.582 25.7594 29.6643 25.6005 29.6123 25.4548L25.9487 15.1878C25.8967 15.0421 25.7324 14.9713 25.5905 15.0331C25.5609 15.0459 25.5307 15.0579 25.4999 15.0689C24.7497 15.3366 23.9246 14.9454 23.6569 14.1953C23.6566 14.1944 23.6563 14.1935 23.6559 14.1926C23.6059 14.0516 23.4538 13.9755 23.3129 14.0258L20.3662 15.0773C20.2253 15.1276 20.1556 15.2828 20.2062 15.4236C20.2065 15.4245 20.2069 15.4254 20.2071 15.4262C20.4749 16.1765 20.0837 17.0016 19.3335 17.2693C19.3027 17.2803 19.2718 17.2901 19.2408 17.2989C19.0919 17.3409 19.0095 17.4997 19.0615 17.6455L22.7252 27.9125C22.7772 28.0582 22.9415 28.129 23.0834 28.0672C23.1129 28.0544 23.1431 28.0424 23.1739 28.0314C23.9241 27.7637 24.7493 28.1549 25.017 28.9051C25.0173 28.906 25.0176 28.9069 25.0179 28.9077C25.0679 29.0487 25.2201 29.1248 25.361 29.0745L28.3077 28.0229C28.4486 27.9726 28.5183 27.8174 28.4677 27.6766C28.4673 27.6758 28.467 27.6749 28.4667 27.6741Z" fill="url(#paint14_linear_2621_4440)"/>
<path d="M24.3372 24.8356C26.1517 24.8356 27.6227 23.3646 27.6227 21.5501C27.6227 19.7356 26.1517 18.2646 24.3372 18.2646C22.5227 18.2646 21.0518 19.7356 21.0518 21.5501C21.0518 23.3646 22.5227 24.8356 24.3372 24.8356Z" fill="url(#paint15_linear_2621_4440)"/>
<path d="M26.6393 22.0984C26.6961 22.025 26.7249 21.9121 26.7253 21.7591C26.7256 21.5942 26.7057 21.4256 26.6663 21.2536C26.6688 21.2428 26.6705 21.232 26.6714 21.2214L26.8461 20.8834C26.8606 20.835 26.8601 20.7886 26.8442 20.7442C26.8269 20.6958 26.7979 20.6594 26.7576 20.6352C26.717 20.611 26.6787 20.6054 26.6424 20.6184L26.4668 20.681C26.3139 20.3671 26.1074 20.1326 25.8473 19.9775C25.5873 19.8223 25.2819 19.8073 24.9314 19.9324C24.8066 19.977 24.6978 20.0317 24.6052 20.0966C24.5126 20.1614 24.4396 20.2398 24.3861 20.3317C24.3326 20.4235 24.2891 20.5084 24.2557 20.5864C24.2554 20.587 24.2553 20.5876 24.255 20.5881C24.255 20.5881 23.7655 21.6208 23.7652 21.6214C23.7602 21.6312 23.7556 21.6406 23.7508 21.6502L22.7384 22.0114C22.6866 21.8283 22.6767 21.6543 22.7087 21.4894C22.7406 21.3245 22.7778 21.1906 22.8206 21.0875C22.8632 20.9844 22.8761 20.9089 22.859 20.8611C22.8332 20.7888 22.772 20.7384 22.6754 20.7095C22.5789 20.6806 22.4924 20.68 22.4159 20.7072C22.2936 20.7509 22.1976 20.8628 22.128 21.0431L20.4287 24.628L22.5811 30.6597L26.6393 22.0984Z" fill="url(#paint16_linear_2621_4440)"/>
<path d="M22.4157 20.7072C22.4922 20.68 22.5787 20.6806 22.6753 20.7095C22.7718 20.7384 22.833 20.7888 22.8588 20.8611C22.8759 20.9089 22.863 20.9844 22.8204 21.0875C22.7777 21.1906 22.7404 21.3245 22.7085 21.4894C22.6765 21.6544 22.6865 21.8283 22.7382 22.0115L24.1576 21.5049C24.1587 21.3681 24.1608 21.2626 24.164 21.1888C24.167 21.1149 24.1747 21.0154 24.1869 20.8906C24.199 20.7657 24.2219 20.6643 24.2554 20.5864C24.2889 20.5084 24.3324 20.4235 24.3859 20.3317C24.4393 20.2398 24.5123 20.1614 24.605 20.0966C24.6976 20.0316 24.8063 19.9769 24.9312 19.9324C25.2817 19.8073 25.5871 19.8223 25.8471 19.9775C26.1071 20.1326 26.3137 20.3671 26.4666 20.6809L26.6421 20.6183C26.6784 20.6054 26.7168 20.611 26.7573 20.6352C26.7977 20.6594 26.8267 20.6958 26.8439 20.7442C26.8598 20.7885 26.8603 20.835 26.8458 20.8834C26.8312 20.9318 26.8058 20.9625 26.7695 20.9755L26.6061 21.0338C26.6857 21.2828 26.7254 21.5245 26.725 21.759C26.7244 21.9935 26.6576 22.1344 26.5245 22.182C26.4519 22.2079 26.3675 22.2104 26.2714 22.1896C26.1753 22.1689 26.1127 22.1178 26.0837 22.0365C26.0722 22.0043 26.0749 21.9037 26.092 21.7347C26.109 21.5656 26.0947 21.3982 26.0493 21.2325L24.8226 21.6702C24.8195 21.8523 24.8097 22.0062 24.7932 22.1319C24.7767 22.2576 24.7414 22.397 24.687 22.5499C24.6326 22.7028 24.5426 22.8355 24.4172 22.9481C24.2917 23.0607 24.1302 23.1523 23.9329 23.2227C23.5724 23.3514 23.2508 23.3553 22.968 23.2345C22.6852 23.1136 22.4594 22.8935 22.2905 22.5737L22.0883 22.6459C22.0526 22.6586 22.0141 22.6507 21.9726 22.6223C21.9312 22.5938 21.9025 22.5574 21.8867 22.5131C21.8695 22.4647 21.8686 22.4183 21.8839 22.3742C21.8995 22.3299 21.9251 22.3015 21.9607 22.2888L22.1449 22.2231C22.0237 21.8705 21.9978 21.5443 22.0673 21.2443C22.1368 20.9443 22.2529 20.7653 22.4157 20.7072ZM25.2054 20.5101C25.0483 20.5662 24.9459 20.6578 24.8983 20.7851C24.8507 20.9124 24.8255 21.0868 24.8229 21.3084L25.9233 20.9158C25.7352 20.5416 25.4959 20.4064 25.2054 20.5101ZM22.8647 22.3279C23.0558 22.66 23.3185 22.7664 23.6527 22.6472C23.8299 22.584 23.9522 22.488 24.0198 22.3593C24.0872 22.2305 24.1271 22.0685 24.1391 21.8732L22.8647 22.3279Z" fill="url(#paint17_linear_2621_4440)"/>
<path d="M24.9985 14.6042C24.6437 14.7308 24.2534 14.5458 24.1268 14.1909C24.0001 13.8361 24.1852 13.4458 24.54 13.3192C24.8948 13.1925 25.2851 13.3776 25.4118 13.7324C25.5384 14.0872 25.3534 14.4775 24.9985 14.6042Z" fill="url(#paint18_linear_2621_4440)"/>
<path d="M29.7056 27.7936C29.3508 27.9202 28.9605 27.7352 28.8338 27.3804C28.7072 27.0256 28.8922 26.6353 29.247 26.5086C29.6019 26.382 29.9922 26.567 30.1188 26.9218C30.2454 27.2767 30.0605 27.667 29.7056 27.7936Z" fill="url(#paint19_linear_2621_4440)"/>
<path d="M19.1997 16.6309C19.5765 16.6309 19.8819 16.3255 19.8819 15.9488C19.8819 15.572 19.5765 15.2666 19.1997 15.2666C18.823 15.2666 18.5176 15.572 18.5176 15.9488C18.5176 16.3255 18.823 16.6309 19.1997 16.6309Z" fill="url(#paint20_linear_2621_4440)"/>
<path d="M24.1353 29.7809C23.7804 29.9075 23.3901 29.7225 23.2635 29.3677C23.1369 29.0129 23.3219 28.6226 23.6767 28.4959C24.0316 28.3693 24.4219 28.5543 24.5485 28.9091C24.6751 29.264 24.4901 29.6543 24.1353 29.7809Z" fill="url(#paint21_linear_2621_4440)"/>
<path d="M23.2569 31.1197L12.9454 18.5715C12.7781 18.3679 12.8075 18.0672 13.0111 17.8999L19.5608 12.5177C19.7644 12.3504 20.0651 12.3798 20.2324 12.5834L30.5439 25.1316C30.7112 25.3352 30.6818 25.6359 30.4782 25.8032L23.9284 31.1854C23.7249 31.3527 23.4242 31.3233 23.2569 31.1197Z" fill="url(#paint22_linear_2621_4440)"/>
<path d="M23.2858 30.6392L13.4227 18.6366C13.2649 18.4445 13.2926 18.161 13.4846 18.0032L19.5709 13.0018C19.763 12.844 20.0466 12.8717 20.2044 13.0637L30.0675 25.0664C30.2253 25.2584 30.1975 25.542 30.0055 25.6998L23.9192 30.7012C23.7272 30.859 23.4436 30.8313 23.2858 30.6392Z" fill="url(#paint23_linear_2621_4440)"/>
<path d="M27.7023 26.2174C27.1966 25.602 27.2856 24.6932 27.901 24.1875C27.9263 24.1667 27.952 24.147 27.9783 24.1282C28.1042 24.0383 28.1279 23.861 28.0297 23.7415L21.1088 15.3193C21.0105 15.1997 20.832 15.1887 20.7194 15.2947C20.6959 15.3169 20.6716 15.3383 20.6463 15.3591C20.0309 15.8648 19.1221 15.7759 18.6164 15.1604C18.6158 15.1597 18.6152 15.159 18.6146 15.1583C18.5198 15.0425 18.3509 15.0224 18.2353 15.1174L15.8181 17.1038C15.7025 17.1987 15.6894 17.3684 15.7847 17.4838C15.7853 17.4845 15.7859 17.4852 15.7865 17.4859C16.2922 18.1013 16.2032 19.0102 15.5878 19.5159C15.5626 19.5366 15.5368 19.5564 15.5106 19.5751C15.3846 19.665 15.3609 19.8424 15.4591 19.9619L22.3801 28.3841C22.4783 28.5036 22.6569 28.5147 22.7695 28.4086C22.793 28.3865 22.8173 28.365 22.8426 28.3442C23.458 27.8386 24.3668 27.9274 24.8725 28.5429C24.8731 28.5436 24.8737 28.5443 24.8743 28.545C24.9691 28.6608 25.138 28.681 25.2536 28.5859L27.6709 26.5995C27.7864 26.5046 27.7995 26.3349 27.7042 26.2195C27.7036 26.2189 27.703 26.2182 27.7023 26.2174Z" fill="url(#paint24_linear_2621_4440)"/>
<path d="M21.7444 25.1368C23.559 25.1368 25.0299 23.6659 25.0299 21.8514C25.0299 20.0369 23.559 18.5659 21.7444 18.5659C19.9299 18.5659 18.459 20.0369 18.459 21.8514C18.459 23.6659 19.9299 25.1368 21.7444 25.1368Z" fill="url(#paint25_linear_2621_4440)"/>
<path d="M24.0961 21.5889C24.1247 21.5006 24.1136 21.3846 24.0622 21.2405C24.0067 21.0852 23.931 20.9334 23.8357 20.7848C23.8343 20.7737 23.8323 20.763 23.8296 20.7527L23.8797 20.3756C23.8769 20.3251 23.8606 20.2816 23.8308 20.2452C23.7981 20.2055 23.7585 20.1811 23.7124 20.172C23.666 20.1629 23.628 20.1706 23.5982 20.1951L23.4542 20.3134C23.2041 20.0698 22.9305 19.9189 22.6333 19.8609C22.336 19.8028 22.0437 19.8921 21.7561 20.1284C21.6537 20.2125 21.5699 20.3008 21.5047 20.3932C21.4394 20.4856 21.3973 20.5841 21.3781 20.6886C21.3588 20.7931 21.3466 20.8877 21.3414 20.9724C21.3414 20.9731 21.3414 20.9737 21.3414 20.9743C21.3414 20.9743 21.2301 22.1117 21.2301 22.1123C21.2286 22.1232 21.2275 22.1337 21.2262 22.1443L20.3957 22.8268C20.2851 22.6719 20.2169 22.5116 20.1912 22.3455C20.1654 22.1796 20.1552 22.041 20.1606 21.9294C20.1658 21.818 20.1524 21.7427 20.1201 21.7034C20.0714 21.6441 19.9968 21.6173 19.8961 21.6228C19.7955 21.6283 19.7139 21.6569 19.6511 21.7085C19.5508 21.7909 19.4983 21.9287 19.4938 22.1219L19.1074 26.0703L23.1734 31.0183L24.0961 21.5889Z" fill="url(#paint26_linear_2621_4440)"/>
<path d="M19.6508 21.7084C19.7136 21.6569 19.7952 21.6282 19.8959 21.6227C19.9965 21.6172 20.0712 21.6441 20.1199 21.7033C20.1521 21.7425 20.1656 21.8179 20.1603 21.9293C20.155 22.0408 20.1651 22.1794 20.1909 22.3454C20.2166 22.5115 20.2848 22.6718 20.3954 22.8267L21.5599 21.8698C21.5145 21.7407 21.4809 21.6407 21.4589 21.5702C21.4368 21.4996 21.4104 21.4034 21.3796 21.2818C21.3488 21.1602 21.336 21.0569 21.3412 20.9724C21.3464 20.8877 21.3585 20.7931 21.3778 20.6886C21.397 20.5841 21.4392 20.4856 21.5045 20.3932C21.5697 20.3008 21.6535 20.2126 21.7559 20.1284C22.0434 19.8921 22.3358 19.8029 22.6331 19.8609C22.9303 19.9189 23.204 20.0697 23.454 20.3134L23.598 20.1951C23.6278 20.1706 23.6658 20.1629 23.7121 20.172C23.7584 20.181 23.7979 20.2055 23.8305 20.2452C23.8604 20.2816 23.8767 20.325 23.8794 20.3755C23.8821 20.426 23.8686 20.4635 23.8388 20.488L23.7047 20.5982C23.8639 20.8055 23.983 21.0196 24.0619 21.2404C24.1407 21.4612 24.1256 21.6164 24.0163 21.7062C23.9568 21.7552 23.8782 21.7861 23.7807 21.7991C23.6832 21.8121 23.6071 21.7852 23.5522 21.7185C23.5306 21.6921 23.4991 21.5965 23.458 21.4316C23.4168 21.2668 23.3467 21.114 23.2479 20.9735L22.2416 21.8004C22.3003 21.9728 22.3431 22.1209 22.3702 22.2448C22.3972 22.3687 22.4111 22.5118 22.4116 22.6741C22.4121 22.8363 22.3724 22.9917 22.2924 23.1401C22.2124 23.2885 22.0914 23.4294 21.9296 23.5624C21.6339 23.8054 21.3325 23.9179 21.0256 23.8999C20.7185 23.8818 20.4316 23.751 20.1645 23.5073L19.9986 23.6436C19.9693 23.6676 19.9304 23.6732 19.8818 23.6605C19.8332 23.6477 19.7939 23.6232 19.764 23.5868C19.7313 23.5471 19.7148 23.5037 19.7144 23.457C19.7141 23.4101 19.7285 23.3747 19.7578 23.3506L19.9088 23.2265C19.6755 22.9358 19.5408 22.6375 19.5047 22.3317C19.4686 22.0258 19.5173 21.8182 19.6508 21.7084ZM22.2093 20.5792C22.0805 20.6851 22.0151 20.806 22.0135 20.9418C22.0116 21.0777 22.047 21.2504 22.1195 21.4598L23.0222 20.7181C22.7186 20.4297 22.4477 20.3834 22.2093 20.5792ZM20.6216 23.0817C20.9138 23.3295 21.1971 23.3409 21.4712 23.1155C21.6166 22.9961 21.6992 22.8644 21.7192 22.7204C21.7392 22.5764 21.7218 22.4105 21.6671 22.2225L20.6216 23.0817Z" fill="url(#paint27_linear_2621_4440)"/>
<path d="M19.5835 15.2471C19.9603 15.2471 20.2657 14.9417 20.2657 14.565C20.2657 14.1882 19.9603 13.8828 19.5835 13.8828C19.2068 13.8828 18.9014 14.1882 18.9014 14.565C18.9014 14.9417 19.2068 15.2471 19.5835 15.2471Z" fill="url(#paint28_linear_2621_4440)"/>
<path d="M28.4742 26.067C28.8509 26.067 29.1563 25.7616 29.1563 25.3848C29.1563 25.0081 28.8509 24.7026 28.4742 24.7026C28.0974 24.7026 27.792 25.0081 27.792 25.3848C27.792 25.7616 28.0974 26.067 28.4742 26.067Z" fill="url(#paint29_linear_2621_4440)"/>
<path d="M15.0152 19.0015C15.3919 19.0015 15.6973 18.6961 15.6973 18.3194C15.6973 17.9426 15.3919 17.6372 15.0152 17.6372C14.6384 17.6372 14.333 17.9426 14.333 18.3194C14.333 18.6961 14.6384 19.0015 15.0152 19.0015Z" fill="url(#paint30_linear_2621_4440)"/>
<path d="M23.9058 29.8214C24.2825 29.8214 24.588 29.5159 24.588 29.1392C24.588 28.7624 24.2825 28.457 23.9058 28.457C23.529 28.457 23.2236 28.7624 23.2236 29.1392C23.2236 29.5159 23.529 29.8214 23.9058 29.8214Z" fill="url(#paint31_linear_2621_4440)"/>
<path d="M32.6453 35.9999H13.4083C12.6634 35.9999 12.0596 35.3961 12.0596 34.6512V21.0806C12.0596 20.3357 12.6634 19.7319 13.4083 19.7319H32.6452C33.3901 19.7319 33.9939 20.3357 33.9939 21.0806V34.6512C33.994 35.3961 33.3901 35.9999 32.6453 35.9999Z" fill="url(#paint32_linear_2621_4440)"/>
<path d="M33.9939 34.6003V29.96H29.3535L33.9939 34.6003Z" fill="url(#paint33_linear_2621_4440)"/>
<path d="M32.6056 25.7243H29.6048C29.2191 25.7243 28.9062 26.037 28.9062 26.4229V29.3087C28.9062 29.6945 29.219 30.0073 29.6048 30.0073H32.6056C33.7057 30.0073 34.7467 29.5098 35.4377 28.6537L35.6359 28.4081C35.8327 28.1643 35.9401 27.8604 35.9401 27.5471V24.5482C35.9401 24.2818 35.605 24.1634 35.4377 24.3708C34.7467 25.2267 33.7057 25.7243 32.6056 25.7243Z" fill="url(#paint34_linear_2621_4440)"/>
<path d="M34.3455 29.3091V29.2987L31.9077 26.8609C31.6384 26.572 31.2547 26.3911 30.8286 26.3911C30.0139 26.3911 29.3535 27.0515 29.3535 27.8662C29.3535 28.2923 29.5344 28.676 29.8234 28.9453L30.8858 30.0077H33.6469C34.0327 30.0077 34.3455 29.6949 34.3455 29.3091Z" fill="url(#paint35_linear_2621_4440)"/>
<path d="M30.8286 29.3413C31.6433 29.3413 32.3037 28.6809 32.3037 27.8662C32.3037 27.0515 31.6433 26.3911 30.8286 26.3911C30.0139 26.3911 29.3535 27.0515 29.3535 27.8662C29.3535 28.6809 30.0139 29.3413 30.8286 29.3413Z" fill="url(#paint36_radial_2621_4440)"/>
<path d="M32.1451 27.866C32.1451 28.5932 31.5556 29.1827 30.8284 29.1827C30.1012 29.1827 29.5117 28.5932 29.5117 27.866C29.5117 27.1388 30.1012 26.5493 30.8284 26.5493C31.5556 26.5493 32.1451 27.1388 32.1451 27.866Z" fill="url(#paint37_linear_2621_4440)"/>
<path d="M31.4882 26.5469C31.5877 26.7455 31.6438 26.9695 31.6438 27.2067C31.6438 28.0214 30.9833 28.6818 30.1686 28.6818C29.9314 28.6818 29.7074 28.6257 29.5088 28.5263C29.751 29.0097 30.2509 29.3415 30.8283 29.3415C31.643 29.3415 32.3034 28.6811 32.3034 27.8664C32.3034 27.2889 31.9716 26.789 31.4882 26.5469Z" fill="url(#paint38_linear_2621_4440)"/>
<path d="M31.8259 27.2347C31.8259 27.6133 31.3793 27.9201 30.8285 27.9201C30.2776 27.9201 29.8311 27.6132 29.8311 27.2347C29.8311 26.8562 30.2776 26.5493 30.8285 26.5493C31.3793 26.5494 31.8259 26.8562 31.8259 27.2347Z" fill="url(#paint39_linear_2621_4440)"/>
</g>
<defs>
<linearGradient id="paint0_linear_2621_4440" x1="30.4274" y1="14.4301" x2="28.1215" y2="18.6184" gradientUnits="userSpaceOnUse">
<stop stop-color="#8A7889"/>
<stop offset="1" stop-color="#6E566E"/>
</linearGradient>
<linearGradient id="paint1_linear_2621_4440" x1="32.1949" y1="16.1513" x2="29.7008" y2="19.163" gradientUnits="userSpaceOnUse">
<stop stop-color="#6E566E" stop-opacity="0"/>
<stop offset="0.2191" stop-color="#685168" stop-opacity="0.219"/>
<stop offset="1" stop-color="#564357"/>
</linearGradient>
<linearGradient id="paint2_linear_2621_4440" x1="29.1527" y1="21.2849" x2="16.9455" y2="26.0818" gradientUnits="userSpaceOnUse">
<stop stop-color="#4AB272"/>
<stop offset="1" stop-color="#077565"/>
</linearGradient>
<linearGradient id="paint3_linear_2621_4440" x1="25.3038" y1="22.9059" x2="45.2669" y2="13.674" gradientUnits="userSpaceOnUse">
<stop stop-color="#92F37F" stop-opacity="0"/>
<stop offset="1" stop-color="#FFEE83"/>
</linearGradient>
<linearGradient id="paint4_linear_2621_4440" x1="28.6719" y1="21.5921" x2="20.5207" y2="24.2612" gradientUnits="userSpaceOnUse">
<stop stop-color="#91F27F"/>
<stop offset="1" stop-color="#00B302"/>
</linearGradient>
<linearGradient id="paint5_linear_2621_4440" x1="25.2215" y1="24.7007" x2="31.6678" y2="14.8266" gradientUnits="userSpaceOnUse">
<stop stop-color="#92F37F"/>
<stop offset="1" stop-color="#4AB272"/>
</linearGradient>
<linearGradient id="paint6_linear_2621_4440" x1="25.1713" y1="24.4974" x2="28.2619" y2="17.5535" gradientUnits="userSpaceOnUse">
<stop stop-color="#4AB272" stop-opacity="0"/>
<stop offset="1" stop-color="#009245"/>
</linearGradient>
<linearGradient id="paint7_linear_2621_4440" x1="27.1467" y1="21.8721" x2="25.3283" y2="24.5606" gradientUnits="userSpaceOnUse">
<stop stop-color="#4AB272"/>
<stop offset="1" stop-color="#077565"/>
</linearGradient>
<linearGradient id="paint8_linear_2621_4440" x1="30.0706" y1="14.9716" x2="28.6799" y2="16.2541" gradientUnits="userSpaceOnUse">
<stop stop-color="#91F27F"/>
<stop offset="1" stop-color="#00B302"/>
</linearGradient>
<linearGradient id="paint9_linear_2621_4440" x1="30.0416" y1="28.976" x2="28.6509" y2="30.2585" gradientUnits="userSpaceOnUse">
<stop stop-color="#91F27F"/>
<stop offset="1" stop-color="#00B302"/>
</linearGradient>
<linearGradient id="paint10_linear_2621_4440" x1="24.1575" y1="14.9597" x2="22.7668" y2="16.2423" gradientUnits="userSpaceOnUse">
<stop stop-color="#91F27F"/>
<stop offset="1" stop-color="#00B302"/>
</linearGradient>
<linearGradient id="paint11_linear_2621_4440" x1="24.1285" y1="28.9641" x2="22.7378" y2="30.2466" gradientUnits="userSpaceOnUse">
<stop stop-color="#91F27F"/>
<stop offset="1" stop-color="#00B302"/>
</linearGradient>
<linearGradient id="paint12_linear_2621_4440" x1="26.1731" y1="19.9113" x2="16.3029" y2="28.5515" gradientUnits="userSpaceOnUse">
<stop stop-color="#4AB272"/>
<stop offset="1" stop-color="#077565"/>
</linearGradient>
<linearGradient id="paint13_linear_2621_4440" x1="23.097" y1="22.7384" x2="38.7696" y2="7.30283" gradientUnits="userSpaceOnUse">
<stop stop-color="#92F37F" stop-opacity="0"/>
<stop offset="1" stop-color="#FFEE83"/>
</linearGradient>
<linearGradient id="paint14_linear_2621_4440" x1="25.8243" y1="20.3627" x2="19.0531" y2="25.6295" gradientUnits="userSpaceOnUse">
<stop stop-color="#91F27F"/>
<stop offset="1" stop-color="#00B302"/>
</linearGradient>
<linearGradient id="paint15_linear_2621_4440" x1="23.6268" y1="24.455" x2="26.3587" y2="12.9818" gradientUnits="userSpaceOnUse">
<stop stop-color="#92F37F"/>
<stop offset="1" stop-color="#4AB272"/>
</linearGradient>
<linearGradient id="paint16_linear_2621_4440" x1="23.5113" y1="24.2806" x2="24.0744" y2="16.6996" gradientUnits="userSpaceOnUse">
<stop stop-color="#4AB272" stop-opacity="0"/>
<stop offset="1" stop-color="#009245"/>
</linearGradient>
<linearGradient id="paint17_linear_2621_4440" x1="24.4835" y1="21.1417" x2="23.6801" y2="24.287" gradientUnits="userSpaceOnUse">
<stop stop-color="#4AB272"/>
<stop offset="1" stop-color="#077565"/>
</linearGradient>
<linearGradient id="paint18_linear_2621_4440" x1="24.9039" y1="13.6586" x2="24.0282" y2="15.3358" gradientUnits="userSpaceOnUse">
<stop stop-color="#91F27F"/>
<stop offset="1" stop-color="#00B302"/>
</linearGradient>
<linearGradient id="paint19_linear_2621_4440" x1="29.6096" y1="26.8508" x2="28.7338" y2="28.5281" gradientUnits="userSpaceOnUse">
<stop stop-color="#91F27F"/>
<stop offset="1" stop-color="#00B302"/>
</linearGradient>
<linearGradient id="paint20_linear_2621_4440" x1="19.3332" y1="15.6451" x2="18.4575" y2="17.3223" gradientUnits="userSpaceOnUse">
<stop stop-color="#91F27F"/>
<stop offset="1" stop-color="#00B302"/>
</linearGradient>
<linearGradient id="paint21_linear_2621_4440" x1="24.0381" y1="28.8376" x2="23.1623" y2="30.5148" gradientUnits="userSpaceOnUse">
<stop stop-color="#91F27F"/>
<stop offset="1" stop-color="#00B302"/>
</linearGradient>
<linearGradient id="paint22_linear_2621_4440" x1="22.9102" y1="19.6918" x2="16.5432" y2="31.1638" gradientUnits="userSpaceOnUse">
<stop stop-color="#4AB272"/>
<stop offset="1" stop-color="#077565"/>
</linearGradient>
<linearGradient id="paint23_linear_2621_4440" x1="20.972" y1="23.3928" x2="30.5014" y2="3.56147" gradientUnits="userSpaceOnUse">
<stop stop-color="#92F37F" stop-opacity="0"/>
<stop offset="1" stop-color="#FFEE83"/>
</linearGradient>
<linearGradient id="paint24_linear_2621_4440" x1="22.7348" y1="20.2347" x2="18.1434" y2="27.483" gradientUnits="userSpaceOnUse">
<stop stop-color="#91F27F"/>
<stop offset="1" stop-color="#00B302"/>
</linearGradient>
<linearGradient id="paint25_linear_2621_4440" x1="22.0508" y1="24.8299" x2="20.7403" y2="13.1064" gradientUnits="userSpaceOnUse">
<stop stop-color="#92F37F"/>
<stop offset="1" stop-color="#4AB272"/>
</linearGradient>
<linearGradient id="paint26_linear_2621_4440" x1="21.8829" y1="24.7052" x2="19.8479" y2="17.379" gradientUnits="userSpaceOnUse">
<stop stop-color="#4AB272" stop-opacity="0"/>
<stop offset="1" stop-color="#009245"/>
</linearGradient>
<linearGradient id="paint27_linear_2621_4440" x1="21.7359" y1="21.4216" x2="22.0439" y2="24.654" gradientUnits="userSpaceOnUse">
<stop stop-color="#4AB272"/>
<stop offset="1" stop-color="#077565"/>
</linearGradient>
<linearGradient id="paint28_linear_2621_4440" x1="19.5995" y1="14.2364" x2="19.3427" y2="16.1114" gradientUnits="userSpaceOnUse">
<stop stop-color="#91F27F"/>
<stop offset="1" stop-color="#00B302"/>
</linearGradient>
<linearGradient id="paint29_linear_2621_4440" x1="28.4916" y1="25.0619" x2="28.2347" y2="26.9369" gradientUnits="userSpaceOnUse">
<stop stop-color="#91F27F"/>
<stop offset="1" stop-color="#00B302"/>
</linearGradient>
<linearGradient id="paint30_linear_2621_4440" x1="15.0289" y1="17.9914" x2="14.772" y2="19.8664" gradientUnits="userSpaceOnUse">
<stop stop-color="#91F27F"/>
<stop offset="1" stop-color="#00B302"/>
</linearGradient>
<linearGradient id="paint31_linear_2621_4440" x1="23.9209" y1="28.8168" x2="23.664" y2="30.6919" gradientUnits="userSpaceOnUse">
<stop stop-color="#91F27F"/>
<stop offset="1" stop-color="#00B302"/>
</linearGradient>
<linearGradient id="paint32_linear_2621_4440" x1="17.0977" y1="18.2419" x2="29.5401" y2="38.4383" gradientUnits="userSpaceOnUse">
<stop stop-color="#8A7889"/>
<stop offset="1" stop-color="#6E566E"/>
</linearGradient>
<linearGradient id="paint33_linear_2621_4440" x1="33.8223" y1="33.5162" x2="31.2846" y2="29.316" gradientUnits="userSpaceOnUse">
<stop stop-color="#6E566E" stop-opacity="0"/>
<stop offset="0.2191" stop-color="#685168" stop-opacity="0.219"/>
<stop offset="1" stop-color="#564357"/>
</linearGradient>
<linearGradient id="paint34_linear_2621_4440" x1="32.202" y1="25.8722" x2="32.9079" y2="29.3075" gradientUnits="userSpaceOnUse">
<stop stop-color="#FF7044"/>
<stop offset="1" stop-color="#F82814"/>
</linearGradient>
<linearGradient id="paint35_linear_2621_4440" x1="32.9737" y1="29.7933" x2="31.2234" y2="28.2787" gradientUnits="userSpaceOnUse">
<stop stop-color="#F82814" stop-opacity="0"/>
<stop offset="1" stop-color="#C0272D"/>
</linearGradient>
<radialGradient id="paint36_radial_2621_4440" cx="0" cy="0" r="1" gradientUnits="userSpaceOnUse" gradientTransform="translate(30.4038 27.2997) scale(1.83798)">
<stop stop-color="#FFD945"/>
<stop offset="0.4169" stop-color="#FFD744"/>
<stop offset="0.6278" stop-color="#FFCF3F"/>
<stop offset="0.7926" stop-color="#FFC237"/>
<stop offset="0.9326" stop-color="#FFAF2C"/>
<stop offset="1" stop-color="#FFA325"/>
</radialGradient>
<linearGradient id="paint37_linear_2621_4440" x1="31.0847" y1="28.1223" x2="29.32" y2="26.3577" gradientUnits="userSpaceOnUse">
<stop stop-color="#FFD945" stop-opacity="0"/>
<stop offset="1" stop-color="#FBED21"/>
</linearGradient>
<linearGradient id="paint38_linear_2621_4440" x1="31.455" y1="27.9218" x2="34.2028" y2="25.596" gradientUnits="userSpaceOnUse">
<stop stop-color="#E87264" stop-opacity="0"/>
<stop offset="1" stop-color="#FF7044"/>
</linearGradient>
<linearGradient id="paint39_linear_2621_4440" x1="30.8285" y1="27.4124" x2="30.8285" y2="26.0214" gradientUnits="userSpaceOnUse">
<stop stop-color="white" stop-opacity="0"/>
<stop offset="1" stop-color="white"/>
</linearGradient>
<clipPath id="clip0_2621_4440">
<rect width="24" height="24" fill="white" transform="translate(12 12)"/>
</clipPath>
</defs>
</svg>
