<svg width="28" height="26" viewBox="0 0 28 26" fill="none" xmlns="http://www.w3.org/2000/svg">
<path d="M11.3447 11.5186H15.1537V13.3686H11.3447V11.5186Z" fill="#E6E9ED"/>
<path d="M18.9642 9.66971V13.7399H17.4406V9.66971V7.07958C17.4406 4.83357 15.5627 3.00937 13.2506 3.00937C10.9386 3.00937 9.06072 4.83357 9.06072 7.07958V9.66971V13.7399H7.53711V9.66971V7.07958C7.53711 4.01582 10.093 1.5293 13.2506 1.5293C16.4045 1.5293 18.9642 4.01582 18.9642 7.07958V9.66971Z" fill="#E1832C"/>
<path d="M22.769 9.67041L23.9155 21.511C23.9155 23.1465 22.5518 24.4712 20.8683 24.4712H5.63218C3.94859 24.4712 2.58496 23.1465 2.58496 21.511L3.73148 9.67041H7.53669V13.7406H9.06029V9.67041H17.4401V13.7406H18.9637V9.67041H22.769ZM15.1547 13.3706V11.5205H11.3457V13.3706H15.1547Z" fill="#D26A09"/>
</svg>
