<svg width="24" height="24" viewBox="0 0 24 24" fill="none" xmlns="http://www.w3.org/2000/svg">
<path d="M12.7017 12.0526L17.852 6.90034C17.8981 6.85425 17.9346 6.79953 17.9596 6.73931C17.9845 6.67909 17.9973 6.61454 17.9973 6.54935C17.9973 6.48417 17.9845 6.41962 17.9596 6.3594C17.9346 6.29918 17.8981 6.24446 17.852 6.19836C17.8059 6.15227 17.7512 6.11571 17.691 6.09076C17.6308 6.06582 17.5663 6.05298 17.5011 6.05298C17.436 6.05298 17.3715 6.06582 17.3113 6.09076C17.2511 6.11571 17.1964 6.15227 17.1503 6.19836L12 11.2977L6.84971 6.14538C6.80364 6.09929 6.74894 6.06273 6.68874 6.03778C6.62854 6.01284 6.56402 6 6.49886 6C6.4337 6 6.36918 6.01284 6.30898 6.03778C6.24878 6.06273 6.19408 6.09929 6.148 6.14538C6.10193 6.19148 6.06538 6.2462 6.04044 6.30642C6.01551 6.36664 6.00267 6.43119 6.00267 6.49637C6.00267 6.56156 6.01551 6.62611 6.04044 6.68633C6.06538 6.74655 6.10193 6.80127 6.148 6.84737L11.2983 12.0526L6.148 17.1519C6.10116 17.1976 6.06393 17.2521 6.03851 17.3124C6.0131 17.3727 6 17.4375 6 17.5029C6 17.5683 6.0131 17.6331 6.03851 17.6934C6.06393 17.7536 6.10116 17.8082 6.148 17.8539C6.1916 17.9014 6.2449 17.939 6.30429 17.9642C6.36368 17.9893 6.42777 18.0014 6.49224 17.9996C6.55868 18.0016 6.62481 17.9896 6.68638 17.9646C6.74794 17.9395 6.80358 17.9018 6.84971 17.8539L12 12.7016L17.1503 17.8539C17.1939 17.9014 17.2472 17.939 17.3066 17.9642C17.366 17.9893 17.4301 18.0014 17.4945 17.9996C17.5611 18.0024 17.6275 17.9909 17.6891 17.9657C17.7508 17.9406 17.8064 17.9024 17.852 17.8539C17.8988 17.8082 17.9361 17.7536 17.9615 17.6934C17.9869 17.6331 18 17.5683 18 17.5029C18 17.4375 17.9869 17.3727 17.9615 17.3124C17.9361 17.2521 17.8988 17.1976 17.852 17.1519L12.7017 12.0526Z" fill="#4C4D4B" stroke="#4C4D4B" stroke-width="0.5"/>
</svg>
