<svg width="19" height="20" viewBox="0 0 19 20" fill="none" xmlns="http://www.w3.org/2000/svg">
<path d="M9.52685 17.1865C13.3764 17.1865 16.4971 14.0658 16.4971 10.2163C16.4971 6.36676 13.3764 3.24609 9.52685 3.24609C5.67731 3.24609 2.55664 6.36676 2.55664 10.2163C2.55664 14.0658 5.67731 17.1865 9.52685 17.1865Z" fill="#41C946"/>
<path d="M8.42157 13.4303C8.29359 13.4312 8.16977 13.3849 8.07383 13.3001L5.44296 10.9194C5.39773 10.8804 5.36145 10.8321 5.33657 10.7777C5.3117 10.7234 5.29883 10.6644 5.29883 10.6046C5.29883 10.5449 5.3117 10.4858 5.33657 10.4315C5.36145 10.3772 5.39773 10.3288 5.44296 10.2898C5.53948 10.2055 5.66331 10.159 5.79147 10.159C5.91964 10.159 6.04346 10.2055 6.13998 10.2898L8.40143 12.3359L12.9251 7.75108C13.0172 7.66169 13.1387 7.60881 13.2669 7.60225C13.3951 7.5957 13.5213 7.63593 13.6221 7.71545C13.6697 7.7516 13.709 7.79757 13.7373 7.85023C13.7656 7.9029 13.7822 7.96103 13.786 8.02068C13.7898 8.08034 13.7807 8.14011 13.7594 8.19596C13.7381 8.2518 13.705 8.3024 13.6624 8.34432L8.78866 13.2808C8.69441 13.3739 8.56795 13.4271 8.43551 13.4295L8.42157 13.4303Z" fill="#F8F8F8"/>
</svg>
