<svg width="20" height="20" viewBox="0 0 20 20" fill="none" xmlns="http://www.w3.org/2000/svg">
<path d="M16.25 4.58203L15.7336 12.9363C15.6016 15.0707 15.5357 16.1379 15.0007 16.9053C14.7361 17.2846 14.3956 17.6048 14.0006 17.8454C13.2017 18.332 12.1325 18.332 9.99392 18.332C7.8526 18.332 6.78192 18.332 5.98254 17.8444C5.58733 17.6034 5.24667 17.2827 4.98223 16.9027C4.4474 16.1342 4.38287 15.0654 4.25384 12.928L3.75 4.58203" stroke="#475569" stroke-width="1.5" stroke-linecap="round"/>
<path d="M7.5 9.77734H12.5" stroke="#475569" stroke-width="1.5" stroke-linecap="round"/>
<path d="M8.75 13.0469H11.25" stroke="#475569" stroke-width="1.5" stroke-linecap="round"/>
<path d="M2.5 4.58464H17.5M13.3796 4.58464L12.8107 3.41108C12.4328 2.63152 12.2438 2.24174 11.9179 1.99864C11.8457 1.94472 11.7691 1.89675 11.689 1.85522C11.3281 1.66797 10.8949 1.66797 10.0286 1.66797C9.1405 1.66797 8.6965 1.66797 8.32957 1.86307C8.24826 1.90631 8.17066 1.95622 8.09758 2.01228C7.76787 2.26522 7.5837 2.66926 7.21535 3.47735L6.71061 4.58464" stroke="#475569" stroke-width="1.5" stroke-linecap="round"/>
</svg>
