<svg width="20" height="20" viewBox="0 0 20 20" fill="none" xmlns="http://www.w3.org/2000/svg">
<path d="M17.9527 9.20547C18.206 9.56072 18.3327 9.73839 18.3327 10.0013C18.3327 10.2642 18.206 10.4419 17.9527 10.7971C16.8143 12.3935 13.907 15.8346 9.99935 15.8346C6.09167 15.8346 3.18443 12.3935 2.04605 10.7971C1.79269 10.4419 1.66602 10.2642 1.66602 10.0013C1.66602 9.73839 1.79269 9.56072 2.04605 9.20547C3.18443 7.60917 6.09167 4.16797 9.99935 4.16797C13.907 4.16797 16.8143 7.60917 17.9527 9.20547Z" stroke="#475569" stroke-width="1.5"/>
<path d="M12.5 10C12.5 8.61925 11.3807 7.5 10 7.5C8.61925 7.5 7.5 8.61925 7.5 10C7.5 11.3807 8.61925 12.5 10 12.5C11.3807 12.5 12.5 11.3807 12.5 10Z" stroke="#475569" stroke-width="1.5"/>
</svg>
