<svg width="40" height="40" viewBox="0 0 40 40" fill="none" xmlns="http://www.w3.org/2000/svg">
<path fill-rule="evenodd" clip-rule="evenodd" d="M21.6771 35.418C21.6771 36.3385 20.9308 37.0846 20.0105 37.0846C19.09 37.0846 18.3438 36.3385 18.3438 35.418V27.918H17.3533C17.0606 27.9181 16.7011 27.9185 16.4071 27.8816L16.4015 27.881C16.1908 27.8546 15.2307 27.735 14.7734 26.7923C14.3152 25.8475 14.8184 25.014 14.9273 24.8336L14.9313 24.827C15.085 24.572 15.3086 24.2871 15.4925 24.0528L15.5321 24.0025C16.0231 23.376 16.6597 22.569 17.2938 21.9173C17.6101 21.5921 17.9723 21.2568 18.3571 20.992C18.6991 20.7566 19.2828 20.418 20.0006 20.418C20.7185 20.418 21.3021 20.7566 21.6441 20.992C22.029 21.2568 22.3911 21.5921 22.7075 21.9173C23.3416 22.569 23.9781 23.376 24.4693 24.0025L24.5088 24.0528C24.6926 24.2871 24.9163 24.5718 25.07 24.827L25.074 24.8336C25.1828 25.014 25.6861 25.8476 25.2278 26.7923C24.7706 27.735 23.8105 27.8546 23.5998 27.881L23.5941 27.8816C23.3001 27.9185 22.9406 27.9181 22.648 27.918H21.6771V35.418Z" fill="#64748B"/>
<path d="M2.08398 20.8346C2.08398 16.4317 5.05242 12.7233 9.09773 11.6C9.42438 11.5092 9.58772 11.4639 9.68185 11.3675C9.77598 11.271 9.81717 11.1077 9.8995 10.781C11.0385 6.26219 15.1285 2.91797 20.0007 2.91797C25.3588 2.91797 29.772 6.96349 30.3527 12.1667C30.3982 12.5756 30.421 12.7801 30.5251 12.8984C30.6293 13.0168 30.8321 13.066 31.2378 13.1644C35.071 14.0945 37.9173 17.5488 37.9173 21.668C37.9173 26.5005 33.9998 30.418 29.1673 30.418H27.335C26.5707 30.418 26.1883 30.418 26.1383 30.3545C26.1138 30.3235 26.1075 30.3078 26.1035 30.2685C26.0951 30.1881 26.4205 29.8718 27.0715 29.2391C28.7217 27.6353 28.759 24.9973 27.1551 23.3471C26.0743 21.9983 25.0532 20.5716 23.7305 19.4451C22.6817 18.5518 21.405 17.918 20.0007 17.918C18.5963 17.918 17.3197 18.5518 16.2708 19.4451C14.9481 20.5716 13.9269 21.9983 12.8462 23.3471C11.2423 24.9973 11.2797 27.6353 12.9299 29.2391C13.5808 29.8718 13.9062 30.1881 13.8979 30.2685C13.8938 30.3078 13.8874 30.3235 13.863 30.3545C13.8129 30.418 13.4307 30.418 12.6664 30.418H11.6673C6.37458 30.418 2.08398 26.1273 2.08398 20.8346Z" fill="#64748B"/>
</svg>
