<svg width="24" height="24" viewBox="0 0 24 24" fill="none" xmlns="http://www.w3.org/2000/svg">
<path fill-rule="evenodd" clip-rule="evenodd" d="M16.9237 10.1998C16.5097 10.1998 16.1737 9.86377 16.1737 9.44977V7.30277C16.1737 5.20677 14.4687 3.50177 12.3727 3.50177H12.3567C11.3437 3.50177 10.3947 3.89177 9.67773 4.60277C8.95573 5.31677 8.55673 6.26977 8.55273 7.28577V9.44977C8.55273 9.86377 8.21673 10.1998 7.80273 10.1998C7.38873 10.1998 7.05273 9.86377 7.05273 9.44977V7.30277C7.05873 5.86277 7.61573 4.53377 8.62073 3.53777C9.62673 2.54077 10.9547 1.96377 12.3757 2.00177C15.2957 2.00177 17.6737 4.37977 17.6737 7.30277V9.44977C17.6737 9.86377 17.3377 10.1998 16.9237 10.1998Z" fill="#737373"/>
<path fill-rule="evenodd" clip-rule="evenodd" d="M8.542 10.1289C6.864 10.1289 5.5 11.4929 5.5 13.1709V17.4599C5.5 19.1379 6.864 20.5019 8.542 20.5019H16.183C17.86 20.5019 19.225 19.1379 19.225 17.4599V13.1709C19.225 11.4929 17.86 10.1289 16.183 10.1289H8.542ZM16.183 22.0019H8.542C6.037 22.0019 4 19.9649 4 17.4599V13.1709C4 10.6659 6.037 8.62891 8.542 8.62891H16.183C18.688 8.62891 20.725 10.6659 20.725 13.1709V17.4599C20.725 19.9649 18.688 22.0019 16.183 22.0019Z" fill="#737373"/>
<path fill-rule="evenodd" clip-rule="evenodd" d="M12.3613 17.1741C11.9473 17.1741 11.6113 16.8381 11.6113 16.4241V14.2031C11.6113 13.7891 11.9473 13.4531 12.3613 13.4531C12.7753 13.4531 13.1113 13.7891 13.1113 14.2031V16.4241C13.1113 16.8381 12.7753 17.1741 12.3613 17.1741Z" fill="#737373"/>
</svg>
