<svg width="32" height="32" viewBox="0 0 32 32" fill="none" xmlns="http://www.w3.org/2000/svg">
<path d="M6.66602 7C6.11373 7 5.66602 7.44772 5.66602 8C5.66602 8.55228 6.11373 9 6.66602 9H25.3327C25.885 9 26.3327 8.55228 26.3327 8C26.3327 7.44772 25.885 7 25.3327 7H6.66602Z" fill="#64748B"/>
<path d="M6.66602 15C6.11373 15 5.66602 15.4477 5.66602 16C5.66602 16.5523 6.11373 17 6.66602 17H25.3327C25.885 17 26.3327 16.5523 26.3327 16C26.3327 15.4477 25.885 15 25.3327 15H6.66602Z" fill="#64748B"/>
<path d="M6.66602 23C6.11373 23 5.66602 23.4477 5.66602 24C5.66602 24.5523 6.11373 25 6.66602 25H25.3327C25.885 25 26.3327 24.5523 26.3327 24C26.3327 23.4477 25.885 23 25.3327 23H6.66602Z" fill="#64748B"/>
</svg>
