<svg width="33" height="33" viewBox="0 0 33 33" fill="none" xmlns="http://www.w3.org/2000/svg">
<path fill-rule="evenodd" clip-rule="evenodd" d="M18.0945 28.8711C18.0945 29.6075 17.4974 30.2044 16.7611 30.2044C16.0247 30.2044 15.4278 29.6075 15.4278 28.8711V22.8711H14.6354C14.4013 22.8712 14.1137 22.8715 13.8784 22.842L13.874 22.8415C13.7054 22.8204 12.9373 22.7247 12.5715 21.9706C12.2049 21.2147 12.6075 20.5479 12.6945 20.4036L12.6978 20.3983C12.8207 20.1943 12.9996 19.9664 13.1467 19.779L13.1784 19.7387C13.5712 19.2375 14.0805 18.5919 14.5878 18.0706C14.8409 17.8104 15.1306 17.5422 15.4385 17.3303C15.7121 17.142 16.179 16.8711 16.7533 16.8711C17.3275 16.8711 17.7945 17.142 18.0681 17.3303C18.3759 17.5422 18.6657 17.8104 18.9187 18.0706C19.4261 18.5919 19.9353 19.2375 20.3282 19.7387L20.3598 19.779C20.5069 19.9664 20.6858 20.1942 20.8087 20.3983L20.8119 20.4036C20.899 20.5479 21.3017 21.2148 20.935 21.9706C20.5693 22.7247 19.8011 22.8204 19.6326 22.8415L19.6281 22.842C19.3929 22.8715 19.1053 22.8712 18.8711 22.8711H18.0945V28.8711Z" fill="#64748B"/>
<path d="M2.41992 17.2044C2.41992 13.6821 4.79467 10.7154 8.03092 9.81668C8.29224 9.74411 8.42291 9.70783 8.49822 9.63069C8.57352 9.55355 8.60647 9.42288 8.67234 9.16153C9.58355 5.54647 12.8555 2.87109 16.7533 2.87109C21.0398 2.87109 24.5703 6.10751 25.0349 10.2701C25.0713 10.5972 25.0895 10.7608 25.1729 10.8555C25.2562 10.9501 25.4185 10.9895 25.743 11.0682C28.8095 11.8123 31.0866 14.5758 31.0866 17.8711C31.0866 21.7371 27.9526 24.8711 24.0866 24.8711H22.6207C22.0093 24.8711 21.7034 24.8711 21.6634 24.8203C21.6438 24.7955 21.6387 24.783 21.6355 24.7515C21.6289 24.6872 21.8891 24.4342 22.4099 23.928C23.7301 22.645 23.7599 20.5346 22.4769 19.2144C21.6122 18.1354 20.7953 16.994 19.7371 16.0928C18.8981 15.3782 17.8767 14.8711 16.7533 14.8711C15.6298 14.8711 14.6085 15.3782 13.7694 16.0928C12.7112 16.994 11.8943 18.1354 11.0297 19.2144C9.74653 20.5346 9.77652 22.645 11.0966 23.928C11.6173 24.4342 11.8777 24.6872 11.871 24.7515C11.8677 24.783 11.8627 24.7955 11.8431 24.8203C11.8031 24.8711 11.4973 24.8711 10.8858 24.8711H10.0866C5.8524 24.8711 2.41992 21.4386 2.41992 17.2044Z" fill="#64748B"/>
</svg>
