<svg width="24" height="24" viewBox="0 0 24 24" fill="none" xmlns="http://www.w3.org/2000/svg">
<mask id="mask0_2681_2701" style="mask-type:luminance" maskUnits="userSpaceOnUse" x="2" y="2" width="20" height="20">
<path d="M2 2H22V22H2V2Z" fill="white"/>
<path fill-rule="evenodd" clip-rule="evenodd" d="M5.46191 11.9999C5.46191 13.734 6.15079 15.3971 7.37699 16.6233C8.60318 17.8495 10.2663 18.5383 12.0004 18.5383C13.7345 18.5383 15.3976 17.8495 16.6238 16.6233C17.85 15.3971 18.5388 13.734 18.5388 11.9999C18.5388 10.2658 17.85 8.6027 16.6238 7.3765C15.3976 6.1503 13.7345 5.46143 12.0004 5.46143C10.2663 5.46143 8.60318 6.1503 7.37699 7.3765C6.15079 8.6027 5.46191 10.2658 5.46191 11.9999ZM17.7696 11.9999C17.7696 13.53 17.1618 14.9974 16.0798 16.0793C14.9979 17.1613 13.5305 17.7691 12.0004 17.7691C10.4703 17.7691 9.00285 17.1613 7.92091 16.0793C6.83897 14.9974 6.23114 13.53 6.23114 11.9999C6.23114 10.4698 6.83897 9.00237 7.92091 7.92042C9.00285 6.83848 10.4703 6.23066 12.0004 6.23066C13.5305 6.23066 14.9979 6.83848 16.0798 7.92042C17.1618 9.00237 17.7696 10.4698 17.7696 11.9999Z" fill="black"/>
<path fill-rule="evenodd" clip-rule="evenodd" d="M9.30762 12C9.30762 15.3808 10.4168 18.1539 11.9999 18.1539C13.583 18.1539 14.6922 15.3808 14.6922 12C14.6922 8.6185 13.583 5.84619 11.9999 5.84619C10.4168 5.84619 9.30762 8.6185 9.30762 12ZM13.923 12C13.923 14.9916 12.9653 17.3847 11.9999 17.3847C11.0345 17.3847 10.0768 14.9916 10.0768 12C10.0768 9.0085 11.0345 6.61542 11.9999 6.61542C12.9653 6.61542 13.923 9.0085 13.923 12Z" fill="black"/>
<path d="M7.1813 8.39401L7.69668 7.82324C7.77899 7.89709 7.86668 7.9694 7.96053 8.0394C8.97437 8.7994 10.5744 9.26247 12.3182 9.26247C13.8051 9.26247 15.1928 8.92632 16.2067 8.34709C16.4403 8.21492 16.661 8.06117 16.8659 7.88786L17.3659 8.47247C17.1367 8.66863 16.8767 8.8494 16.589 9.01401C15.4528 9.66401 13.9336 10.0317 12.3182 10.0317C10.4182 10.0317 8.65514 9.5217 7.49899 8.65478C7.38913 8.57253 7.28312 8.48525 7.1813 8.39324M7.1813 15.6156L7.69668 16.1848C7.77899 16.1109 7.86668 16.0386 7.96053 15.9694C8.97437 15.2094 10.5744 14.7463 12.3182 14.7463C13.8051 14.7463 15.1928 15.0817 16.2067 15.6617C16.4536 15.8032 16.6744 15.9571 16.8659 16.1202L17.3659 15.5356C17.1244 15.3312 16.8643 15.1499 16.589 14.994C15.4528 14.3448 13.9336 13.9771 12.3182 13.9771C10.4182 13.9771 8.65514 14.4871 7.49899 15.3532C7.38668 15.4379 7.28053 15.5248 7.1813 15.6148M5.84668 12.3848V11.6155H18.1544V12.3848H5.84668Z" fill="black"/>
</mask>
<g mask="url(#mask0_2681_2701)">
<path d="M12 22C17.5228 22 22 17.5228 22 12C22 6.47715 17.5228 2 12 2C6.47715 2 2 6.47715 2 12C2 17.5228 6.47715 22 12 22Z" fill="white"/>
</g>
</svg>
