<svg width="24" height="25" viewBox="0 0 24 25" fill="none" xmlns="http://www.w3.org/2000/svg">
<path d="M13.6099 12.7428C13.6038 13.0596 13.5039 13.3674 13.3227 13.6274C13.1415 13.8873 12.8872 14.0875 12.592 14.2028C12.2969 14.318 11.9742 14.343 11.6648 14.2746C11.3554 14.2062 11.0733 14.0475 10.8542 13.8186C10.6352 13.5897 10.489 13.3009 10.4342 12.9888C10.3795 12.6767 10.4186 12.3554 10.5467 12.0656C10.6747 11.7758 10.886 11.5305 11.1536 11.3609C11.4212 11.1913 11.7331 11.1049 12.0499 11.1128C12.4708 11.1284 12.8691 11.3073 13.1603 11.6116C13.4515 11.9159 13.6128 12.3216 13.6099 12.7428Z" fill="white"/>
<path d="M14.7635 7.73291H9.33845C8.80166 7.73291 8.28684 7.94615 7.90727 8.32573C7.5277 8.7053 7.31445 9.22011 7.31445 9.75691V15.3039C7.31445 15.5697 7.36681 15.8329 7.46852 16.0785C7.57024 16.324 7.71932 16.5471 7.90727 16.7351C8.09521 16.923 8.31834 17.0721 8.5639 17.1738C8.80946 17.2756 9.07266 17.3279 9.33845 17.3279H14.7635C15.0292 17.3279 15.2924 17.2756 15.538 17.1738C15.7836 17.0721 16.0067 16.923 16.1946 16.7351C16.3826 16.5471 16.5317 16.324 16.6334 16.0785C16.7351 15.8329 16.7875 15.5697 16.7875 15.3039V9.76691C16.7885 9.50035 16.7369 9.2362 16.6357 8.9896C16.5345 8.743 16.3856 8.5188 16.1976 8.32985C16.0096 8.14089 15.7861 7.9909 15.54 7.88847C15.2939 7.78603 15.03 7.73317 14.7635 7.73291ZM12.0505 15.4559C11.5134 15.468 10.9849 15.3199 10.5325 15.0303C10.08 14.7408 9.72411 14.323 9.51014 13.8303C9.29617 13.3376 9.23386 12.7923 9.33117 12.264C9.42847 11.7357 9.68098 11.2484 10.0565 10.8642C10.4319 10.4801 10.9134 10.2165 11.4393 10.1072C11.9652 9.99785 12.5118 10.0477 13.0093 10.2504C13.5067 10.453 13.9325 10.7993 14.2323 11.2451C14.5321 11.6908 14.6923 12.2157 14.6925 12.7529C14.6965 13.1039 14.6314 13.4522 14.5009 13.7781C14.3703 14.1039 14.1768 14.4008 13.9315 14.6518C13.6861 14.9028 13.3937 15.103 13.071 15.241C12.7482 15.379 12.4014 15.452 12.0505 15.4559ZM14.9865 10.0509C14.9205 10.0509 14.8551 10.0378 14.7943 10.0122C14.7335 9.98667 14.6783 9.94924 14.6321 9.90212C14.586 9.855 14.5496 9.79913 14.5253 9.73779C14.501 9.67646 14.4891 9.61088 14.4905 9.54491C14.4905 9.41071 14.5438 9.28201 14.6387 9.18711C14.7336 9.09222 14.8623 9.03891 14.9965 9.03891C15.1307 9.03891 15.2594 9.09222 15.3542 9.18711C15.4491 9.28201 15.5025 9.41071 15.5025 9.54491C15.5044 9.61635 15.491 9.68737 15.463 9.75311C15.4349 9.81886 15.3931 9.87778 15.3402 9.92583C15.2873 9.97388 15.2246 10.0099 15.1565 10.0315C15.0884 10.0531 15.0164 10.0597 14.9455 10.0509H14.9865Z" fill="white"/>
<path d="M12.0501 2.50013C9.39796 2.48686 6.84915 3.52771 4.96441 5.3937C3.07967 7.25969 2.01339 9.79796 2.00013 12.4501C1.98686 15.1023 3.02771 17.6511 4.8937 19.5358C6.75969 21.4206 9.29796 22.4869 11.9501 22.5001C13.2633 22.5067 14.565 22.2545 15.7808 21.7581C16.9965 21.2616 18.1026 20.5305 19.0358 19.6065C19.9691 18.6826 20.7112 17.5839 21.2198 16.3732C21.7284 15.1624 21.9936 13.8633 22.0001 12.5501C22.0067 11.2369 21.7545 9.93525 21.2581 8.71948C20.7616 7.50372 20.0305 6.39764 19.1065 5.46441C18.1826 4.53118 17.0839 3.78908 15.8732 3.28046C14.6624 2.77185 13.3633 2.50669 12.0501 2.50013ZM18.1231 15.2021C18.1259 15.6508 18.0396 16.0955 17.8693 16.5105C17.6989 16.9256 17.4478 17.3026 17.1306 17.6199C16.8134 17.9372 16.4364 18.1884 16.0214 18.3589C15.6065 18.5294 15.1618 18.6158 14.7131 18.6131H9.38913C8.94057 18.6156 8.49596 18.5292 8.08105 18.3587C7.66614 18.1882 7.28915 17.9372 6.97192 17.62C6.65469 17.3029 6.40351 16.926 6.23293 16.5111C6.06234 16.0963 5.97574 15.6517 5.97813 15.2031V9.87813C5.97534 9.42949 6.06163 8.98477 6.232 8.56973C6.40237 8.1547 6.65343 7.77761 6.97062 7.46033C7.28781 7.14304 7.66482 6.89187 8.07981 6.72138C8.49479 6.55089 8.93949 6.46447 9.38812 6.46713H14.7131C15.1617 6.46447 15.6063 6.55086 16.0212 6.72129C16.4361 6.89172 16.8131 7.1428 17.1303 7.45997C17.4475 7.77715 17.6985 8.15412 17.869 8.56904C18.0394 8.98396 18.1258 9.42858 18.1231 9.87713V15.2021Z" fill="white"/>
</svg>
