<svg width="48" height="48" viewBox="0 0 48 48" fill="none" xmlns="http://www.w3.org/2000/svg">
<circle cx="24" cy="24" r="24" fill="#FFF8E4"/>
<g clip-path="url(#clip0_2621_4578)">
<path d="M35.9668 18H34.9681H31.9719H15.9923H13.0461H11.9974C11.4482 18 10.9488 18.2143 10.5992 18.5143C10.2497 18.8143 10 19.2429 10 19.7143V33.4286C10 34.3714 10.8989 35.1429 11.9974 35.1429H35.9668C37.0654 35.1429 37.9643 34.3714 37.9643 33.4286V30V26.5714V19.7143C37.9643 18.7714 37.0654 18 35.9668 18Z" fill="#EAAC0F"/>
<path d="M37.9643 19.7143C37.9643 20.1857 37.7146 20.6143 37.3651 20.9143C37.0155 21.2143 36.5161 21.4286 35.9668 21.4286H11.9974C10.8989 21.4286 10 20.6571 10 19.7143C10 19.2429 10.2497 18.8143 10.5992 18.5143C10.9488 18.2143 11.4482 18 11.9974 18H35.9668C37.0654 18 37.9643 18.7714 37.9643 19.7143Z" fill="#A77800"/>
<path d="M37.9641 26.5713H31.1499L29.4463 28.2856L31.1499 29.9999H37.9641V26.5713Z" fill="#A77800"/>
<path d="M32.0183 29.143C32.4917 29.143 32.8754 28.7592 32.8754 28.2859C32.8754 27.8125 32.4917 27.4287 32.0183 27.4287C31.5449 27.4287 31.1611 27.8125 31.1611 28.2859C31.1611 28.7592 31.5449 29.143 32.0183 29.143Z" fill="#F3E4FF"/>
<path d="M15.9922 21.4284L23.982 14.5712L25.9794 12.8569L35.9667 21.4284H15.9922Z" fill="#E7C9FF"/>
<path d="M21.5352 21.4282C22.6338 20.571 24.2317 19.7139 25.9795 19.7139C27.7772 19.7139 29.3252 20.571 30.4238 21.4282H21.5352Z" fill="#F3E4FF"/>
<path d="M11.9971 21.4284L19.9869 14.5712L21.9843 12.8569L31.9716 21.4284H11.9971Z" fill="#F3E4FF"/>
<path d="M17.54 21.4286C18.6386 20.5715 20.2366 19.7144 21.9844 19.7144C23.7821 19.7144 25.3301 20.5715 26.4287 21.4286H17.54Z" fill="#E7C9FF"/>
</g>
<defs>
<clipPath id="clip0_2621_4578">
<rect width="27.9643" height="24" fill="white" transform="translate(10 12)"/>
</clipPath>
</defs>
</svg>
