<svg width="25" height="25" viewBox="0 0 25 25" fill="none" xmlns="http://www.w3.org/2000/svg">
<path fill-rule="evenodd" clip-rule="evenodd" d="M11.8793 1.32812C8.48372 1.32812 5.85654 4.30415 6.2777 7.67349L6.35706 8.30834C6.47318 9.23729 6.13385 10.1652 5.44584 10.8001C4.02016 12.1157 3.62406 14.2096 4.47072 15.9551L4.57407 16.1681C5.36323 17.7951 7.01254 18.8281 8.82077 18.8281H17.0416C18.6013 18.8281 20.0529 18.0313 20.8904 16.7155C22.0725 14.858 21.7594 12.4213 20.1461 10.9231L20.1022 10.8823C19.3637 10.1965 19.0001 9.19725 19.1251 8.19713L19.1897 7.6802C19.6113 4.3073 16.9813 1.32812 13.5822 1.32812H11.8793ZM7.76612 7.48744C7.45686 5.01338 9.38597 2.82812 11.8793 2.82812H13.5822C16.0791 2.82812 18.011 5.01653 17.7013 7.49415L17.6367 8.01108C17.4518 9.48987 17.9895 10.9673 19.0815 11.9815L19.1254 12.0222C20.2082 13.0279 20.4184 14.6634 19.6249 15.9101C19.0628 16.7933 18.0885 17.3281 17.0416 17.3281H8.82077C7.58719 17.3281 6.46204 16.6234 5.92367 15.5135L5.82032 15.3004C5.26224 14.1499 5.52333 12.7696 6.46309 11.9024C7.50685 10.9393 8.02164 9.53158 7.84548 8.12228L7.76612 7.48744Z" fill="#64748B"/>
<path d="M10.5627 20.6281C10.3142 20.2968 9.84406 20.2296 9.51269 20.4781C9.18132 20.7267 9.11416 21.1968 9.36269 21.5281L9.66269 21.9281C11.3127 24.1281 14.6127 24.1281 16.2627 21.9281L16.5627 21.5281C16.8112 21.1968 16.7441 20.7267 16.4127 20.4781C16.0813 20.2296 15.6112 20.2968 15.3627 20.6281L15.0627 21.0281C14.0127 22.4281 11.9127 22.4281 10.8627 21.0281L10.5627 20.6281Z" fill="#64748B"/>
</svg>
