<svg width="25" height="24" viewBox="0 0 25 24" fill="none" xmlns="http://www.w3.org/2000/svg">
<path d="M7.47992 15.4816C6.06515 16.324 2.35571 18.0441 4.61501 20.1966C5.71866 21.248 6.94784 22 8.49322 22H17.3114C18.8568 22 20.086 21.248 21.1896 20.1966C23.4489 18.0441 19.7395 16.324 18.3247 15.4816C15.0071 13.5061 10.7975 13.5061 7.47992 15.4816Z" stroke="#475569" stroke-width="1.5" stroke-linecap="round" stroke-linejoin="round"/>
<path d="M17.4023 6.5C17.4023 8.98528 15.3876 11 12.9023 11C10.4171 11 8.40234 8.98528 8.40234 6.5C8.40234 4.01472 10.4171 2 12.9023 2C15.3876 2 17.4023 4.01472 17.4023 6.5Z" stroke="#475569" stroke-width="1.5"/>
</svg>
