<svg width="49" height="48" viewBox="0 0 49 48" fill="none" xmlns="http://www.w3.org/2000/svg">
<g clip-path="url(#clip0_2631_1056)">
<path d="M43.5225 28.9998C42.8325 28.9998 42.2725 29.5598 42.2725 30.2498V38.9998H7.27246V23.9998H21.0225C21.7125 23.9998 22.2725 23.4398 22.2725 22.7498C22.2725 22.0598 21.7125 21.4998 21.0225 21.4998H7.27246V16.4998H21.0225C21.7125 16.4998 22.2725 15.9398 22.2725 15.2498C22.2725 14.5598 21.7125 13.9998 21.0225 13.9998H7.27246C5.89246 13.9998 4.77246 15.1198 4.77246 16.4998V38.9998C4.77246 40.3798 5.89246 41.4998 7.27246 41.4998H42.2725C43.6525 41.4998 44.7725 40.3798 44.7725 38.9998V30.2498C44.7725 29.5598 44.2125 28.9998 43.5225 28.9998Z" fill="#DB9E25"/>
<path d="M16.0225 28.9998H11.0225C10.3325 28.9998 9.77246 29.5598 9.77246 30.2498C9.77246 30.9398 10.3325 31.4998 11.0225 31.4998H16.0225C16.7125 31.4998 17.2725 30.9398 17.2725 30.2498C17.2725 29.5598 16.7125 28.9998 16.0225 28.9998Z" fill="#DB9E25"/>
<path d="M44.015 10.3496L35.265 6.59962C34.9475 6.46712 34.595 6.46712 34.2775 6.59962L25.5275 10.3496C25.07 10.5471 24.7725 10.9996 24.7725 11.4996V16.4996C24.7725 23.3771 27.315 27.3971 34.15 31.3346C34.3425 31.4446 34.5575 31.4996 34.7725 31.4996C34.9875 31.4996 35.2025 31.4446 35.395 31.3346C42.23 27.4071 44.7725 23.3871 44.7725 16.4996V11.4996C44.7725 10.9996 44.475 10.5471 44.015 10.3496ZM42.2725 16.4996C42.2725 22.2721 40.3625 25.4496 34.7725 28.7996C29.1825 25.4421 27.2725 22.2646 27.2725 16.4996V12.3246L34.7725 9.10962L42.2725 12.3246V16.4996Z" fill="#DB9E25"/>
<path d="M39.3051 14.2721C38.7676 13.8471 37.9826 13.9296 37.5476 14.4671L33.6176 19.3821L32.0626 17.0571C31.6751 16.4821 30.8976 16.3296 30.3301 16.7096C29.7576 17.0921 29.6001 17.8696 29.9826 18.4421L32.4826 22.1921C32.7051 22.5246 33.0701 22.7296 33.4701 22.7496C33.4876 22.7496 33.5076 22.7496 33.5226 22.7496C33.9001 22.7496 34.2601 22.5796 34.5001 22.2796L39.5001 16.0296C39.9301 15.4896 39.8451 14.7046 39.3051 14.2721Z" fill="#DB9E25"/>
</g>
<defs>
<clipPath id="clip0_2631_1056">
<rect width="40" height="40" fill="white" transform="translate(4.77246 4)"/>
</clipPath>
</defs>
</svg>
