<svg width="41" height="40" viewBox="0 0 41 40" fill="none" xmlns="http://www.w3.org/2000/svg">
<circle cx="20.3828" cy="20" r="20" fill="#FBF5E9"/>
<path fill-rule="evenodd" clip-rule="evenodd" d="M15.665 11.5C13.135 11.5 11.5 13.233 11.5 15.916V24.084C11.5 26.767 13.135 28.5 15.665 28.5H24.333C26.864 28.5 28.5 26.767 28.5 24.084V15.916C28.5 13.233 26.865 11.5 24.334 11.5H15.665ZM24.333 30H15.665C12.276 30 10 27.622 10 24.084V15.916C10 12.378 12.276 10 15.665 10H24.334C27.723 10 30 12.378 30 15.916V24.084C30 27.622 27.723 30 24.333 30Z" fill="#DB9E25"/>
<path fill-rule="evenodd" clip-rule="evenodd" d="M23.39 22.7678C23.259 22.7678 23.127 22.7338 23.006 22.6628L19.615 20.6398C19.389 20.5038 19.249 20.2588 19.249 19.9958V15.6338C19.249 15.2198 19.585 14.8838 19.999 14.8838C20.413 14.8838 20.749 15.2198 20.749 15.6338V19.5698L23.775 21.3728C24.13 21.5858 24.247 22.0458 24.035 22.4018C23.894 22.6368 23.645 22.7678 23.39 22.7678Z" fill="#DB9E25"/>
</svg>
