<svg width="41" height="40" viewBox="0 0 41 40" fill="none" xmlns="http://www.w3.org/2000/svg">
<circle cx="20.3828" cy="20" r="20" fill="#FBF5E9"/>
<path fill-rule="evenodd" clip-rule="evenodd" d="M29.8884 23.8957H25.8404C23.9434 23.8957 22.3994 22.3527 22.3984 20.4567C22.3984 18.5587 23.9424 17.0147 25.8404 17.0137H29.8884C30.3024 17.0137 30.6384 17.3497 30.6384 17.7637C30.6384 18.1777 30.3024 18.5137 29.8884 18.5137H25.8404C24.7694 18.5147 23.8984 19.3857 23.8984 20.4557C23.8984 21.5247 24.7704 22.3957 25.8404 22.3957H29.8884C30.3024 22.3957 30.6384 22.7317 30.6384 23.1457C30.6384 23.5597 30.3024 23.8957 29.8884 23.8957Z" fill="#DB9E25"/>
<path fill-rule="evenodd" clip-rule="evenodd" d="M26.2983 21.1436H25.9863C25.5723 21.1436 25.2363 20.8076 25.2363 20.3936C25.2363 19.9796 25.5723 19.6436 25.9863 19.6436H26.2983C26.7123 19.6436 27.0483 19.9796 27.0483 20.3936C27.0483 20.8076 26.7123 21.1436 26.2983 21.1436Z" fill="#DB9E25"/>
<mask id="mask0_2749_1713" style="mask-type:luminance" maskUnits="userSpaceOnUse" x="10" y="11" width="21" height="20">
<path fill-rule="evenodd" clip-rule="evenodd" d="M10 11H30.6386V30.1729H10V11Z" fill="white"/>
</mask>
<g mask="url(#mask0_2749_1713)">
<path fill-rule="evenodd" clip-rule="evenodd" d="M15.998 12.5C13.518 12.5 11.5 14.518 11.5 16.998V24.175C11.5 26.655 13.518 28.673 15.998 28.673H24.642C27.122 28.673 29.139 26.655 29.139 24.175V16.998C29.139 14.518 27.122 12.5 24.642 12.5H15.998ZM24.642 30.173H15.998C12.691 30.173 10 27.482 10 24.175V16.998C10 13.69 12.691 11 15.998 11H24.642C27.949 11 30.639 13.69 30.639 16.998V24.175C30.639 27.482 27.949 30.173 24.642 30.173Z" fill="#DB9E25"/>
</g>
<path fill-rule="evenodd" clip-rule="evenodd" d="M20.6842 17.0381H15.2852C14.8712 17.0381 14.5352 16.7021 14.5352 16.2881C14.5352 15.8741 14.8712 15.5381 15.2852 15.5381H20.6842C21.0982 15.5381 21.4342 15.8741 21.4342 16.2881C21.4342 16.7021 21.0982 17.0381 20.6842 17.0381Z" fill="#DB9E25"/>
</svg>
