<svg width="49" height="48" viewBox="0 0 49 48" fill="none" xmlns="http://www.w3.org/2000/svg">
<path d="M43.6588 24C43.6588 34.5868 35.0456 43.2 24.4588 43.2C13.872 43.2 5.25879 34.5868 5.25879 24C5.25879 23.3368 5.79559 22.8 6.45879 22.8C7.12199 22.8 7.65879 23.3368 7.65879 24C7.65879 33.2636 15.1952 40.8 24.4588 40.8C33.7224 40.8 41.2588 33.2636 41.2588 24C41.2588 14.7364 33.7224 7.20005 24.4588 7.20005C19.9936 7.20005 15.8484 8.93565 12.73 12H17.2588C17.922 12 18.4588 12.5368 18.4588 13.2C18.4588 13.8632 17.922 14.4 17.2588 14.4H10.0588C9.39559 14.4 8.85879 13.8632 8.85879 13.2V6.00005C8.85879 5.33685 9.39559 4.80005 10.0588 4.80005C10.722 4.80005 11.2588 5.33685 11.2588 6.00005V10.0936C14.7992 6.71445 19.4512 4.80005 24.4588 4.80005C35.0456 4.80005 43.6588 13.4132 43.6588 24ZM35.2588 19.2V30C35.2588 30.5004 34.9484 30.948 34.4808 31.124L24.8808 34.724C24.7448 34.7744 24.6016 34.8 24.4588 34.8C24.316 34.8 24.1728 34.7744 24.0368 34.724L14.4368 31.124C13.9692 30.948 13.6588 30.5004 13.6588 30V19.2C13.6588 18.6996 13.9692 18.252 14.4368 18.076L24.0368 14.476C24.3088 14.3752 24.6088 14.3752 24.8804 14.476L34.4804 18.076C34.9484 18.252 35.2588 18.6996 35.2588 19.2ZM18.276 19.2L24.4588 21.518L30.6416 19.2L24.4588 16.882L18.276 19.2ZM16.0588 29.168L23.2588 31.868V23.632L16.0588 20.932V29.168ZM32.8588 29.168V20.932L25.6588 23.632V31.868L32.8588 29.168Z" fill="#DB9E25"/>
</svg>
