<svg width="49" height="48" viewBox="0 0 49 48" fill="none" xmlns="http://www.w3.org/2000/svg">
<path d="M42.4016 21.5269L41.2885 17.0729C41.4392 17.0408 41.5744 16.9579 41.6714 16.8382C41.7684 16.7185 41.8214 16.5691 41.8215 16.415V15.6965C41.8208 14.9467 41.5226 14.2278 40.9925 13.6977C40.4623 13.1675 39.7434 12.8693 38.9937 12.8686H33.9261V11.3918C33.9259 11.0227 33.7792 10.6689 33.5182 10.4079C33.2572 10.147 32.9034 10.0002 32.5343 10H6.67805C6.309 10.0002 5.95514 10.147 5.69418 10.4079C5.43323 10.6689 5.28652 11.0227 5.28628 11.3918V23.5991C5.28628 23.7777 5.35721 23.949 5.48347 24.0752C5.60973 24.2015 5.78098 24.2724 5.95954 24.2724C6.1381 24.2724 6.30935 24.2015 6.43561 24.0752C6.56187 23.949 6.6328 23.7777 6.6328 23.5991V11.3918C6.6328 11.3798 6.63757 11.3683 6.64605 11.3598C6.65454 11.3513 6.66605 11.3465 6.67805 11.3465H32.5298C32.5418 11.3465 32.5533 11.3513 32.5618 11.3598C32.5703 11.3683 32.5751 11.3798 32.5751 11.3918V23.6001C32.5751 23.7786 32.646 23.9499 32.7722 24.0761C32.8985 24.2024 33.0698 24.2733 33.2483 24.2733C33.4269 24.2733 33.5981 24.2024 33.7244 24.0761C33.8506 23.9499 33.9216 23.7786 33.9216 23.6001V22.8372H41.8686C42.3337 22.8381 42.7866 22.9862 43.1624 23.2603C43.5382 23.5344 43.8177 23.9203 43.9608 24.3629H41.8686C41.69 24.3629 41.5188 24.4338 41.3925 24.5601C41.2663 24.6863 41.1953 24.8576 41.1953 25.0362V26.4723C41.196 27.0315 41.4185 27.5676 41.8139 27.963C42.2094 28.3584 42.7455 28.5809 43.3047 28.5816H44.0675V31.5434H42.3048C42.0157 30.7047 41.4721 29.977 40.7498 29.4619C40.0274 28.9468 39.1623 28.6699 38.2751 28.6699C37.388 28.6699 36.5229 28.9468 35.8005 29.4619C35.0782 29.977 34.5346 30.7047 34.2455 31.5434H33.9216V26.4759C33.9216 26.2973 33.8506 26.1261 33.7244 25.9998C33.5981 25.8736 33.4269 25.8026 33.2483 25.8026C33.0698 25.8026 32.8985 25.8736 32.7722 25.9998C32.646 26.1261 32.5751 26.2973 32.5751 26.4759V31.5434H18.6067C18.3176 30.7047 17.7741 29.977 17.0517 29.4619C16.3294 28.9468 15.4643 28.6699 14.5771 28.6699C13.6899 28.6699 12.8248 28.9468 12.1025 29.4619C11.3801 29.977 10.8365 30.7047 10.5475 31.5434H6.67805C6.66605 31.5434 6.65454 31.5387 6.64605 31.5302C6.63757 31.5217 6.6328 31.5102 6.6328 31.4982V30.0168H9.55026C9.72882 30.0168 9.90007 29.9459 10.0263 29.8196C10.1526 29.6934 10.2235 29.5221 10.2235 29.3436C10.2235 29.165 10.1526 28.9938 10.0263 28.8675C9.90007 28.7412 9.72882 28.6703 9.55026 28.6703H3.08732C2.90876 28.6703 2.73752 28.7412 2.61126 28.8675C2.485 28.9938 2.41406 29.165 2.41406 29.3436C2.41406 29.5221 2.485 29.6934 2.61126 29.8196C2.73752 29.9459 2.90876 30.0168 3.08732 30.0168H5.28628V31.4982C5.28652 31.8672 5.43323 32.2211 5.69418 32.4821C5.95514 32.743 6.309 32.8897 6.67805 32.89H10.3149C10.3149 32.9053 10.3149 32.9198 10.3149 32.9352C10.3149 34.0661 10.7642 35.1506 11.5638 35.9503C12.3635 36.7499 13.448 37.1992 14.5789 37.1992C15.7098 37.1992 16.7943 36.7499 17.594 35.9503C18.3936 35.1506 18.8429 34.0661 18.8429 32.9352C18.8429 32.9198 18.8429 32.9053 18.8429 32.89H34.0121C34.0121 32.9053 34.0121 32.9198 34.0121 32.9352C34.0121 34.0661 34.4613 35.1506 35.261 35.9503C36.0606 36.7499 37.1452 37.1992 38.2761 37.1992C39.4069 37.1992 40.4915 36.7499 41.2911 35.9503C42.0908 35.1506 42.54 34.0661 42.54 32.9352C42.54 32.9198 42.54 32.9053 42.54 32.89H44.7408C44.9194 32.89 45.0906 32.819 45.2169 32.6928C45.3431 32.5665 45.4141 32.3953 45.4141 32.2167V25.0353C45.4137 24.1871 45.1098 23.367 44.5572 22.7235C44.0046 22.08 43.24 21.6555 42.4016 21.5269ZM33.9216 14.2151H38.9891C39.3819 14.2156 39.7584 14.3718 40.0361 14.6495C40.3138 14.9272 40.47 15.3037 40.4705 15.6965V15.7417H33.9216V14.2151ZM33.9216 21.4862V17.0928H39.904L41.0035 21.4916L33.9216 21.4862ZM14.5771 35.8527C14.0001 35.8527 13.436 35.6816 12.9562 35.361C12.4765 35.0404 12.1025 34.5848 11.8817 34.0517C11.6609 33.5186 11.6031 32.932 11.7157 32.366C11.8283 31.8001 12.1061 31.2803 12.5141 30.8722C12.9222 30.4642 13.442 30.1864 14.0079 30.0738C14.5739 29.9612 15.1605 30.019 15.6936 30.2398C16.2267 30.4606 16.6823 30.8346 17.0029 31.3144C17.3235 31.7941 17.4946 32.3582 17.4946 32.9352C17.4938 33.7087 17.1862 34.4504 16.6393 34.9974C16.0923 35.5443 15.3506 35.8519 14.5771 35.8527ZM38.2751 35.8527C37.6981 35.8527 37.1341 35.6816 36.6543 35.361C36.1745 35.0404 35.8006 34.5848 35.5798 34.0517C35.3589 33.5186 35.3012 32.932 35.4137 32.366C35.5263 31.8001 35.8042 31.2803 36.2122 30.8722C36.6202 30.4642 37.14 30.1864 37.706 30.0738C38.2719 29.9612 38.8585 30.019 39.3916 30.2398C39.9247 30.4606 40.3804 30.8346 40.7009 31.3144C41.0215 31.7941 41.1926 32.3582 41.1926 32.9352C41.1919 33.7087 40.8843 34.4504 40.3373 34.9974C39.7903 35.5443 39.0487 35.8519 38.2751 35.8527ZM44.0666 27.2351H43.3038C43.1015 27.2349 42.9076 27.1544 42.7646 27.0114C42.6216 26.8684 42.5412 26.6745 42.5409 26.4723V25.7094H44.0666V27.2351Z" fill="#DB9E25" stroke="#DB9E25" stroke-width="0.7"/>
<path d="M14.5744 31.5464C14.2991 31.5464 14.03 31.628 13.8012 31.7809C13.5723 31.9339 13.3939 32.1512 13.2886 32.4055C13.1832 32.6599 13.1557 32.9397 13.2094 33.2097C13.2631 33.4796 13.3956 33.7276 13.5903 33.9223C13.7849 34.1169 14.0329 34.2495 14.3029 34.3032C14.5728 34.3569 14.8527 34.3293 15.107 34.224C15.3613 34.1186 15.5787 33.9402 15.7316 33.7114C15.8845 33.4825 15.9662 33.2134 15.9662 32.9381C15.9659 32.5691 15.8192 32.2152 15.5582 31.9543C15.2973 31.6933 14.9434 31.5466 14.5744 31.5464Z" fill="#DB9E25" stroke="#DB9E25" stroke-width="0.7"/>
<path d="M38.2745 31.5464C37.9992 31.5462 37.73 31.6277 37.5011 31.7805C37.2721 31.9333 37.0935 32.1506 36.988 32.4049C36.8826 32.6592 36.8549 32.9391 36.9085 33.2091C36.9621 33.4792 37.0946 33.7272 37.2892 33.922C37.4838 34.1167 37.7318 34.2493 38.0018 34.3031C38.2718 34.3569 38.5516 34.3294 38.806 34.2241C39.0604 34.1187 39.2778 33.9404 39.4307 33.7115C39.5837 33.4826 39.6654 33.2135 39.6654 32.9381C39.6651 32.5693 39.5185 32.2155 39.2578 31.9546C38.997 31.6937 38.6434 31.5469 38.2745 31.5464Z" fill="#DB9E25" stroke="#DB9E25" stroke-width="0.7"/>
<path d="M30.3754 28.6711H20.3217C20.1431 28.6711 19.9719 28.7421 19.8456 28.8683C19.7194 28.9946 19.6484 29.1658 19.6484 29.3444C19.6484 29.523 19.7194 29.6942 19.8456 29.8205C19.9719 29.9467 20.1431 30.0177 20.3217 30.0177H30.3754C30.5539 30.0177 30.7252 29.9467 30.8514 29.8205C30.9777 29.6942 31.0486 29.523 31.0486 29.3444C31.0486 29.1658 30.9777 28.9946 30.8514 28.8683C30.7252 28.7421 30.5539 28.6711 30.3754 28.6711Z" fill="#DB9E25" stroke="#DB9E25" stroke-width="0.7"/>
<path d="M13.1414 25.7988H4.52385C4.34529 25.7988 4.17404 25.8698 4.04778 25.996C3.92152 26.1223 3.85059 26.2935 3.85059 26.4721C3.85059 26.6507 3.92152 26.8219 4.04778 26.9482C4.17404 27.0744 4.34529 27.1454 4.52385 27.1454H13.1414C13.32 27.1454 13.4912 27.0744 13.6175 26.9482C13.7437 26.8219 13.8147 26.6507 13.8147 26.4721C13.8147 26.2935 13.7437 26.1223 13.6175 25.996C13.4912 25.8698 13.32 25.7988 13.1414 25.7988Z" fill="#DB9E25" stroke="#DB9E25" stroke-width="0.7"/>
<path d="M25.8258 16.6593C25.6996 16.5331 25.5284 16.4622 25.3499 16.4622C25.1713 16.4622 25.0001 16.5331 24.8739 16.6593L18.8869 22.6462L15.7722 19.5315C15.7101 19.4671 15.6358 19.4157 15.5536 19.3804C15.4715 19.345 15.3831 19.3264 15.2937 19.3256C15.2042 19.3247 15.1155 19.3418 15.0327 19.3756C14.9499 19.4095 14.8747 19.4595 14.8115 19.5227C14.7482 19.586 14.6982 19.6612 14.6643 19.744C14.6305 19.8268 14.6135 19.9155 14.6143 20.0049C14.6151 20.0944 14.6337 20.1828 14.6691 20.2649C14.7044 20.3471 14.7558 20.4214 14.8202 20.4835L18.4109 24.0742C18.5372 24.2004 18.7084 24.2713 18.8869 24.2713C19.0654 24.2713 19.2367 24.2004 19.3629 24.0742L25.8258 17.6113C25.9521 17.485 26.023 17.3138 26.023 17.1353C26.023 16.9567 25.9521 16.7855 25.8258 16.6593Z" fill="#DB9E25" stroke="#DB9E25" stroke-width="0.7"/>
</svg>
