<svg width="48" height="48" viewBox="0 0 48 48" fill="none" xmlns="http://www.w3.org/2000/svg">
<circle cx="24" cy="24" r="24" fill="#F9F2E7"/>
<path d="M41.6 25.8C41.6758 25.5727 41.7029 25.332 41.6798 25.0936C41.6566 24.8551 41.5837 24.6241 41.4656 24.4157C41.3475 24.2072 41.187 24.0258 40.9944 23.8833C40.8018 23.7408 40.5814 23.6403 40.3475 23.5884L36.8 22.8L24.2 15V17.9065C24.2 18.2925 24.3108 18.6703 24.5193 18.9951C24.7277 19.32 25.025 19.5781 25.3759 19.739L29.4364 21.6L26.6 22.2L8.6 17.4C8.6 17.4 8 19.2 8 21.6C8 24 8.6 25.8 8.6 25.8L31.4 28.8L41.6 25.8Z" fill="#A17837"/>
<path d="M8.59961 29.9998H16.9996V28.1998C16.9996 28.1998 25.9996 29.9998 30.7996 29.9998C35.5996 29.9998 42.1996 28.1998 42.1996 28.1998L41.5996 25.7998C41.5996 25.7998 33.7996 27.5998 30.7996 27.5998C27.7996 27.5998 16.9996 25.7998 16.9996 25.7998H8.59961V29.9998Z" fill="#714D25"/>
<path d="M32.7337 20.2828L27.7998 24.6L24.7998 24L29.7473 18.4341L32.7337 20.2828Z" fill="#EAAE48"/>
</svg>
