<svg width="149" height="150" viewBox="0 0 149 150" fill="none" xmlns="http://www.w3.org/2000/svg">
<circle cx="76.3714" cy="72.1878" r="51.5628" fill="#EF5021"/>
<path fill-rule="evenodd" clip-rule="evenodd" d="M66.5586 53.4375C62.1403 53.4375 58.5586 57.0192 58.5586 61.4375V83.8753C58.5586 88.2935 62.1403 91.8753 66.5586 91.8753H88.9963C93.4146 91.8753 96.9963 88.2935 96.9963 83.8753V61.4375C96.9963 57.0192 93.4146 53.4375 88.9963 53.4375H66.5586ZM87.6793 67.5548C87.9539 67.2806 88.0912 66.9206 88.0912 66.5608C88.0912 65.7565 87.4365 65.1545 86.685 65.1545C86.3246 65.1545 85.9643 65.292 85.6918 65.5676L75.4349 75.8245L70.8039 71.1915C70.5297 70.9169 70.1697 70.7795 69.8099 70.7795C69.0606 70.7795 68.4036 71.3825 68.4036 72.1858C68.4036 72.5461 68.5412 72.9065 68.8158 73.1801L74.4409 78.8051C74.7151 79.0798 75.0746 79.2171 75.4349 79.2171C75.7953 79.2171 76.1556 79.0809 76.4292 78.8049L87.6793 67.5548Z" fill="white"/>
<circle cx="16.375" cy="22.5" r="6.56254" fill="#EF5021"/>
<circle cx="143.406" cy="48.2813" r="5.15628" fill="#EF5021"/>
<circle cx="96.0625" cy="2.81252" r="2.81252" fill="#EF5021"/>
<circle cx="145.75" cy="91.875" r="2.81252" fill="#EF5021"/>
<circle cx="129.813" cy="120.938" r="2.81252" fill="#EF5021"/>
<ellipse cx="52.9375" cy="138.75" rx="3.75002" ry="3.75002" fill="#EF5021"/>
<circle cx="5.12503" cy="105.938" r="4.68753" fill="#EF5021"/>
<circle cx="101.219" cy="148.594" r="1.40626" fill="#EF5021"/>
</svg>
