<svg width="49" height="48" viewBox="0 0 49 48" fill="none" xmlns="http://www.w3.org/2000/svg">
<g clip-path="url(#clip0_2631_1110)">
<path d="M34.0234 35.4844C33.5706 35.4844 33.2031 35.8519 33.2031 36.3047C33.2031 36.7575 33.5706 37.125 34.0234 37.125C34.4763 37.125 34.8438 36.7575 34.8438 36.3047C34.8438 35.8519 34.4763 35.4844 34.0234 35.4844Z" fill="#DB9E25"/>
<mask id="path-2-outside-1_2631_1110" maskUnits="userSpaceOnUse" x="5.13281" y="3.05005" width="39" height="43" fill="black">
<rect fill="white" x="5.13281" y="3.05005" width="39" height="43"/>
<path d="M36.0432 33.136L32.1443 31.8691L30.7446 29.1396C32.0056 27.8882 32.8811 26.2325 33.1763 24.5055L33.3509 23.4853H34.8438C36.2007 23.4853 37.3047 22.4089 37.3047 21.0859V16.0471C37.3047 9.43193 31.7848 4.05005 25 4.05005C18.1978 4.05005 12.6953 9.4165 12.6953 16.0471V21.0859C12.6953 22.1285 13.3812 23.0176 14.3359 23.3477V24.2851C14.3359 25.6081 15.4399 26.6845 16.7969 26.6845H17.5173C17.8729 27.4377 18.3332 28.1353 18.8933 28.7619C19.0094 28.8921 19.1306 29.0184 19.2547 29.1411L17.8557 31.8691L13.9567 33.1361C9.42325 34.6099 6.13281 39.2631 6.13281 44.2002C6.13281 44.642 6.50007 45 6.95312 45H43.0469C43.4999 45 43.8672 44.642 43.8672 44.2002C43.8672 39.2631 40.5768 34.6099 36.0432 33.136ZM35.6641 21.0859C35.6641 21.5269 35.2961 21.8857 34.8438 21.8857H33.5918C33.8003 20.3109 33.9393 18.635 33.9951 16.9845C33.9968 16.9379 33.9981 16.8927 33.9996 16.8469H35.6641V21.0859ZM15.1562 21.8857C14.7039 21.8857 14.3359 21.5269 14.3359 21.0859V16.8469H16.001C16.0037 16.9303 16.0066 17.0142 16.0098 17.0985C16.0099 17.1014 16.01 17.1042 16.0101 17.1071C16.0101 17.1073 16.0101 17.1076 16.0101 17.1078C16.0675 18.7132 16.2047 20.3455 16.4085 21.8856H15.1562V21.8857ZM16.7969 25.0849C16.3446 25.0849 15.9766 24.7261 15.9766 24.2851V23.4853H16.6491L16.8236 24.5058C16.8569 24.6997 16.8979 24.893 16.9452 25.0849H16.7969ZM15.978 15.2473H14.3671C14.7826 9.88694 19.3708 5.64966 25 5.64966C30.6042 5.64966 35.2126 9.88638 35.6328 15.2473H34.0221C33.9631 10.8302 30.2739 7.24927 25.7343 7.24927H24.2659C19.7264 7.24927 16.0369 10.8302 15.978 15.2473ZM24.2658 8.84888H25.7342C29.4099 8.84888 32.3849 11.7802 32.3828 15.3601C32.3828 15.6118 32.3808 15.8309 32.3764 16.0303C32.3764 16.0329 32.3763 16.0355 32.3763 16.0382L31.3503 15.8952C28.5629 15.5072 25.931 14.2241 23.9394 12.2824C23.7855 12.1324 23.5769 12.0481 23.3594 12.0481C21.1563 12.0481 19.0475 13.0267 17.6534 14.6801C17.997 11.4234 20.8208 8.84888 24.2658 8.84888ZM18.6459 25.0849C18.2352 23.753 17.7653 19.834 17.6615 17.3226L18.7655 15.8872C19.7795 14.5695 21.3571 13.7507 23.0352 13.6567C25.2432 15.7055 28.0997 17.0585 31.1183 17.4787L32.326 17.647C32.2452 19.3174 32.0803 20.9936 31.8439 22.5352C31.8439 22.5357 31.8438 22.5363 31.8437 22.5368C31.7686 23.0325 31.7093 23.3514 31.5581 24.2423C31.1236 26.7829 29.1793 29.0803 26.6127 29.706C25.5563 29.9632 24.4435 29.9631 23.3878 29.706C21.7851 29.3154 20.3156 28.2342 19.3672 26.6845H21.0395C21.3782 27.6154 22.2899 28.2841 23.3594 28.2841H25C26.3597 28.2841 27.4609 27.2105 27.4609 25.8847C27.4609 24.5617 26.357 23.4853 25 23.4853H23.3594C22.2661 23.4853 21.3678 24.1738 21.0381 25.0849H18.6459ZM23.2904 31.3247C23.853 31.4402 24.4267 31.4993 25 31.4993C25.4488 31.4993 25.8977 31.4627 26.3415 31.3917L24.892 32.8863L23.2904 31.3247ZM23.7642 34.049L21.1623 36.7318C20.446 35.395 19.8306 34.0037 19.3257 32.5794L20.3028 30.6741L23.7642 34.049ZM29.5581 30.4031L30.6741 32.5793C30.1685 34.006 29.5528 35.3978 28.8373 36.7329L26.0525 34.0178L29.5581 30.4031ZM22.5391 25.8847C22.5391 25.4431 22.9064 25.0849 23.3594 25.0849H25C25.4523 25.0849 25.8203 25.4437 25.8203 25.8847C25.8203 26.3264 25.4529 26.6845 25 26.6845H23.3594C22.9071 26.6845 22.5391 26.3257 22.5391 25.8847ZM7.80625 43.4004C8.13134 39.4383 10.8358 35.8369 14.4756 34.6535L17.9286 33.5316C18.5612 35.2372 19.3449 36.8949 20.2634 38.4696C20.265 38.4723 20.2665 38.475 20.268 38.4776L20.2681 38.4778C20.9392 39.6286 21.6946 40.7532 22.5135 41.8209L23.5226 43.4004H7.80625ZM25 42.6875L23.8875 40.9461C23.875 40.9266 23.8617 40.9076 23.8476 40.8892C23.1833 40.0253 22.5637 39.1217 21.9993 38.1969L24.9248 35.1805L28.0073 38.186C27.4392 39.1176 26.8174 40.0249 26.1525 40.8891C26.1123 40.9413 26.1694 40.859 25 42.6875ZM26.4774 43.4004L27.4865 41.821C28.309 40.7492 29.0697 39.6156 29.7476 38.4512C29.7517 38.4442 29.7555 38.437 29.7596 38.43C29.7601 38.4291 29.7606 38.4283 29.7611 38.4274C30.6679 36.8678 31.4435 35.2244 32.0714 33.5316L35.5244 34.6535C39.1642 35.8369 41.8687 39.4383 42.1938 43.4004H26.4774Z"/>
</mask>
<path d="M36.0432 33.136L32.1443 31.8691L30.7446 29.1396C32.0056 27.8882 32.8811 26.2325 33.1763 24.5055L33.3509 23.4853H34.8438C36.2007 23.4853 37.3047 22.4089 37.3047 21.0859V16.0471C37.3047 9.43193 31.7848 4.05005 25 4.05005C18.1978 4.05005 12.6953 9.4165 12.6953 16.0471V21.0859C12.6953 22.1285 13.3812 23.0176 14.3359 23.3477V24.2851C14.3359 25.6081 15.4399 26.6845 16.7969 26.6845H17.5173C17.8729 27.4377 18.3332 28.1353 18.8933 28.7619C19.0094 28.8921 19.1306 29.0184 19.2547 29.1411L17.8557 31.8691L13.9567 33.1361C9.42325 34.6099 6.13281 39.2631 6.13281 44.2002C6.13281 44.642 6.50007 45 6.95312 45H43.0469C43.4999 45 43.8672 44.642 43.8672 44.2002C43.8672 39.2631 40.5768 34.6099 36.0432 33.136ZM35.6641 21.0859C35.6641 21.5269 35.2961 21.8857 34.8438 21.8857H33.5918C33.8003 20.3109 33.9393 18.635 33.9951 16.9845C33.9968 16.9379 33.9981 16.8927 33.9996 16.8469H35.6641V21.0859ZM15.1562 21.8857C14.7039 21.8857 14.3359 21.5269 14.3359 21.0859V16.8469H16.001C16.0037 16.9303 16.0066 17.0142 16.0098 17.0985C16.0099 17.1014 16.01 17.1042 16.0101 17.1071C16.0101 17.1073 16.0101 17.1076 16.0101 17.1078C16.0675 18.7132 16.2047 20.3455 16.4085 21.8856H15.1562V21.8857ZM16.7969 25.0849C16.3446 25.0849 15.9766 24.7261 15.9766 24.2851V23.4853H16.6491L16.8236 24.5058C16.8569 24.6997 16.8979 24.893 16.9452 25.0849H16.7969ZM15.978 15.2473H14.3671C14.7826 9.88694 19.3708 5.64966 25 5.64966C30.6042 5.64966 35.2126 9.88638 35.6328 15.2473H34.0221C33.9631 10.8302 30.2739 7.24927 25.7343 7.24927H24.2659C19.7264 7.24927 16.0369 10.8302 15.978 15.2473ZM24.2658 8.84888H25.7342C29.4099 8.84888 32.3849 11.7802 32.3828 15.3601C32.3828 15.6118 32.3808 15.8309 32.3764 16.0303C32.3764 16.0329 32.3763 16.0355 32.3763 16.0382L31.3503 15.8952C28.5629 15.5072 25.931 14.2241 23.9394 12.2824C23.7855 12.1324 23.5769 12.0481 23.3594 12.0481C21.1563 12.0481 19.0475 13.0267 17.6534 14.6801C17.997 11.4234 20.8208 8.84888 24.2658 8.84888ZM18.6459 25.0849C18.2352 23.753 17.7653 19.834 17.6615 17.3226L18.7655 15.8872C19.7795 14.5695 21.3571 13.7507 23.0352 13.6567C25.2432 15.7055 28.0997 17.0585 31.1183 17.4787L32.326 17.647C32.2452 19.3174 32.0803 20.9936 31.8439 22.5352C31.8439 22.5357 31.8438 22.5363 31.8437 22.5368C31.7686 23.0325 31.7093 23.3514 31.5581 24.2423C31.1236 26.7829 29.1793 29.0803 26.6127 29.706C25.5563 29.9632 24.4435 29.9631 23.3878 29.706C21.7851 29.3154 20.3156 28.2342 19.3672 26.6845H21.0395C21.3782 27.6154 22.2899 28.2841 23.3594 28.2841H25C26.3597 28.2841 27.4609 27.2105 27.4609 25.8847C27.4609 24.5617 26.357 23.4853 25 23.4853H23.3594C22.2661 23.4853 21.3678 24.1738 21.0381 25.0849H18.6459ZM23.2904 31.3247C23.853 31.4402 24.4267 31.4993 25 31.4993C25.4488 31.4993 25.8977 31.4627 26.3415 31.3917L24.892 32.8863L23.2904 31.3247ZM23.7642 34.049L21.1623 36.7318C20.446 35.395 19.8306 34.0037 19.3257 32.5794L20.3028 30.6741L23.7642 34.049ZM29.5581 30.4031L30.6741 32.5793C30.1685 34.006 29.5528 35.3978 28.8373 36.7329L26.0525 34.0178L29.5581 30.4031ZM22.5391 25.8847C22.5391 25.4431 22.9064 25.0849 23.3594 25.0849H25C25.4523 25.0849 25.8203 25.4437 25.8203 25.8847C25.8203 26.3264 25.4529 26.6845 25 26.6845H23.3594C22.9071 26.6845 22.5391 26.3257 22.5391 25.8847ZM7.80625 43.4004C8.13134 39.4383 10.8358 35.8369 14.4756 34.6535L17.9286 33.5316C18.5612 35.2372 19.3449 36.8949 20.2634 38.4696C20.265 38.4723 20.2665 38.475 20.268 38.4776L20.2681 38.4778C20.9392 39.6286 21.6946 40.7532 22.5135 41.8209L23.5226 43.4004H7.80625ZM25 42.6875L23.8875 40.9461C23.875 40.9266 23.8617 40.9076 23.8476 40.8892C23.1833 40.0253 22.5637 39.1217 21.9993 38.1969L24.9248 35.1805L28.0073 38.186C27.4392 39.1176 26.8174 40.0249 26.1525 40.8891C26.1123 40.9413 26.1694 40.859 25 42.6875ZM26.4774 43.4004L27.4865 41.821C28.309 40.7492 29.0697 39.6156 29.7476 38.4512C29.7517 38.4442 29.7555 38.437 29.7596 38.43C29.7601 38.4291 29.7606 38.4283 29.7611 38.4274C30.6679 36.8678 31.4435 35.2244 32.0714 33.5316L35.5244 34.6535C39.1642 35.8369 41.8687 39.4383 42.1938 43.4004H26.4774Z" fill="#DB9E25"/>
<path d="M36.0432 33.136L32.1443 31.8691L30.7446 29.1396C32.0056 27.8882 32.8811 26.2325 33.1763 24.5055L33.3509 23.4853H34.8438C36.2007 23.4853 37.3047 22.4089 37.3047 21.0859V16.0471C37.3047 9.43193 31.7848 4.05005 25 4.05005C18.1978 4.05005 12.6953 9.4165 12.6953 16.0471V21.0859C12.6953 22.1285 13.3812 23.0176 14.3359 23.3477V24.2851C14.3359 25.6081 15.4399 26.6845 16.7969 26.6845H17.5173C17.8729 27.4377 18.3332 28.1353 18.8933 28.7619C19.0094 28.8921 19.1306 29.0184 19.2547 29.1411L17.8557 31.8691L13.9567 33.1361C9.42325 34.6099 6.13281 39.2631 6.13281 44.2002C6.13281 44.642 6.50007 45 6.95312 45H43.0469C43.4999 45 43.8672 44.642 43.8672 44.2002C43.8672 39.2631 40.5768 34.6099 36.0432 33.136ZM35.6641 21.0859C35.6641 21.5269 35.2961 21.8857 34.8438 21.8857H33.5918C33.8003 20.3109 33.9393 18.635 33.9951 16.9845C33.9968 16.9379 33.9981 16.8927 33.9996 16.8469H35.6641V21.0859ZM15.1562 21.8857C14.7039 21.8857 14.3359 21.5269 14.3359 21.0859V16.8469H16.001C16.0037 16.9303 16.0066 17.0142 16.0098 17.0985C16.0099 17.1014 16.01 17.1042 16.0101 17.1071C16.0101 17.1073 16.0101 17.1076 16.0101 17.1078C16.0675 18.7132 16.2047 20.3455 16.4085 21.8856H15.1562V21.8857ZM16.7969 25.0849C16.3446 25.0849 15.9766 24.7261 15.9766 24.2851V23.4853H16.6491L16.8236 24.5058C16.8569 24.6997 16.8979 24.893 16.9452 25.0849H16.7969ZM15.978 15.2473H14.3671C14.7826 9.88694 19.3708 5.64966 25 5.64966C30.6042 5.64966 35.2126 9.88638 35.6328 15.2473H34.0221C33.9631 10.8302 30.2739 7.24927 25.7343 7.24927H24.2659C19.7264 7.24927 16.0369 10.8302 15.978 15.2473ZM24.2658 8.84888H25.7342C29.4099 8.84888 32.3849 11.7802 32.3828 15.3601C32.3828 15.6118 32.3808 15.8309 32.3764 16.0303C32.3764 16.0329 32.3763 16.0355 32.3763 16.0382L31.3503 15.8952C28.5629 15.5072 25.931 14.2241 23.9394 12.2824C23.7855 12.1324 23.5769 12.0481 23.3594 12.0481C21.1563 12.0481 19.0475 13.0267 17.6534 14.6801C17.997 11.4234 20.8208 8.84888 24.2658 8.84888ZM18.6459 25.0849C18.2352 23.753 17.7653 19.834 17.6615 17.3226L18.7655 15.8872C19.7795 14.5695 21.3571 13.7507 23.0352 13.6567C25.2432 15.7055 28.0997 17.0585 31.1183 17.4787L32.326 17.647C32.2452 19.3174 32.0803 20.9936 31.8439 22.5352C31.8439 22.5357 31.8438 22.5363 31.8437 22.5368C31.7686 23.0325 31.7093 23.3514 31.5581 24.2423C31.1236 26.7829 29.1793 29.0803 26.6127 29.706C25.5563 29.9632 24.4435 29.9631 23.3878 29.706C21.7851 29.3154 20.3156 28.2342 19.3672 26.6845H21.0395C21.3782 27.6154 22.2899 28.2841 23.3594 28.2841H25C26.3597 28.2841 27.4609 27.2105 27.4609 25.8847C27.4609 24.5617 26.357 23.4853 25 23.4853H23.3594C22.2661 23.4853 21.3678 24.1738 21.0381 25.0849H18.6459ZM23.2904 31.3247C23.853 31.4402 24.4267 31.4993 25 31.4993C25.4488 31.4993 25.8977 31.4627 26.3415 31.3917L24.892 32.8863L23.2904 31.3247ZM23.7642 34.049L21.1623 36.7318C20.446 35.395 19.8306 34.0037 19.3257 32.5794L20.3028 30.6741L23.7642 34.049ZM29.5581 30.4031L30.6741 32.5793C30.1685 34.006 29.5528 35.3978 28.8373 36.7329L26.0525 34.0178L29.5581 30.4031ZM22.5391 25.8847C22.5391 25.4431 22.9064 25.0849 23.3594 25.0849H25C25.4523 25.0849 25.8203 25.4437 25.8203 25.8847C25.8203 26.3264 25.4529 26.6845 25 26.6845H23.3594C22.9071 26.6845 22.5391 26.3257 22.5391 25.8847ZM7.80625 43.4004C8.13134 39.4383 10.8358 35.8369 14.4756 34.6535L17.9286 33.5316C18.5612 35.2372 19.3449 36.8949 20.2634 38.4696C20.265 38.4723 20.2665 38.475 20.268 38.4776L20.2681 38.4778C20.9392 39.6286 21.6946 40.7532 22.5135 41.8209L23.5226 43.4004H7.80625ZM25 42.6875L23.8875 40.9461C23.875 40.9266 23.8617 40.9076 23.8476 40.8892C23.1833 40.0253 22.5637 39.1217 21.9993 38.1969L24.9248 35.1805L28.0073 38.186C27.4392 39.1176 26.8174 40.0249 26.1525 40.8891C26.1123 40.9413 26.1694 40.859 25 42.6875ZM26.4774 43.4004L27.4865 41.821C28.309 40.7492 29.0697 39.6156 29.7476 38.4512C29.7517 38.4442 29.7555 38.437 29.7596 38.43C29.7601 38.4291 29.7606 38.4283 29.7611 38.4274C30.6679 36.8678 31.4435 35.2244 32.0714 33.5316L35.5244 34.6535C39.1642 35.8369 41.8687 39.4383 42.1938 43.4004H26.4774Z" stroke="#DB9E25" stroke-width="0.4" mask="url(#path-2-outside-1_2631_1110)"/>
<path d="M39.7287 40.0397C39.1805 38.9424 38.3775 37.9675 37.4065 37.2206C37.0473 36.9442 36.5323 37.0114 36.2561 37.3705C35.9799 37.7296 36.047 38.2446 36.4061 38.5209C37.1816 39.1175 37.8229 39.8962 38.2609 40.7729C38.4638 41.1789 38.9568 41.3423 39.3613 41.1402C39.7666 40.9377 39.9311 40.445 39.7287 40.0397Z" fill="#DB9E25"/>
</g>
<defs>
<clipPath id="clip0_2631_1110">
<rect width="42" height="42" fill="white" transform="translate(4 3)"/>
</clipPath>
</defs>
</svg>
