<svg width="41" height="40" viewBox="0 0 41 40" fill="none" xmlns="http://www.w3.org/2000/svg">
<circle cx="20.3828" cy="20" r="20" fill="#FBF5E9"/>
<path fill-rule="evenodd" clip-rule="evenodd" d="M16.982 14.3035C16.95 14.3035 16.918 14.3075 16.886 14.3155C13.916 15.0465 11.5 18.2645 11.5 21.4885C11.5 25.5445 14.8 28.8445 18.857 28.8445C22.514 28.8445 25.57 26.2395 26.124 22.6495C26.128 22.6195 26.142 22.5325 26.06 22.4355C25.982 22.3445 25.858 22.2905 25.728 22.2905C24.317 22.2905 23.24 22.3225 22.399 22.3465C20.363 22.4075 19.521 22.4305 18.689 21.8135C17.435 20.8845 17.329 19.2885 17.329 14.5945C17.329 14.5105 17.293 14.4405 17.221 14.3845C17.154 14.3315 17.069 14.3035 16.982 14.3035ZM18.857 30.3445C13.973 30.3445 10 26.3715 10 21.4885C10 17.6165 12.928 13.7445 16.527 12.8585C17.089 12.7215 17.693 12.8495 18.147 13.2035C18.58 13.5435 18.829 14.0505 18.829 14.5945C18.829 18.9795 18.977 20.1595 19.582 20.6085C19.979 20.9015 20.523 20.8985 22.356 20.8475C23.208 20.8225 24.299 20.7905 25.728 20.7905C26.298 20.7905 26.835 21.0345 27.199 21.4595C27.537 21.8545 27.685 22.3705 27.607 22.8785C26.939 27.2035 23.259 30.3445 18.857 30.3445Z" fill="#DB9E25"/>
<mask id="mask0_2749_1706" style="mask-type:luminance" maskUnits="userSpaceOnUse" x="20" y="9" width="11" height="11">
<path fill-rule="evenodd" clip-rule="evenodd" d="M20.4736 9.00049H30.8926V19.2898H20.4736V9.00049Z" fill="white"/>
</mask>
<g mask="url(#mask0_2749_1706)">
<path fill-rule="evenodd" clip-rule="evenodd" d="M22.0104 10.5017C21.9004 13.0207 22.0634 16.2747 22.1394 17.5637C22.1434 17.6407 22.1994 17.6967 22.2754 17.7007C23.3034 17.7597 26.8454 17.9237 29.3924 17.5487C29.3984 16.1447 28.4374 14.2407 26.9904 12.7947C25.5064 11.3127 23.7504 10.5017 22.0324 10.5017H22.0104ZM25.3144 19.2897C24.0044 19.2897 22.8514 19.2367 22.1884 19.1987C21.3544 19.1497 20.6904 18.4847 20.6424 17.6507C20.5644 16.3287 20.3954 12.9697 20.5154 10.3717C20.5484 9.61674 21.1584 9.01574 21.9044 9.00274C24.0414 8.94074 26.2464 9.93274 28.0504 11.7337C29.8084 13.4907 30.9244 15.7997 30.8924 17.6167C30.8804 18.3257 30.3654 18.9177 29.6694 19.0227C28.3114 19.2277 26.7214 19.2897 25.3144 19.2897Z" fill="#DB9E25"/>
</g>
</svg>
