<svg width="48" height="48" viewBox="0 0 48 48" fill="none" xmlns="http://www.w3.org/2000/svg">
<circle cx="24" cy="24" r="24" fill="#FFF8F1"/>
<g clip-path="url(#clip0_2621_4513)">
<path d="M31.0364 19.959C33.1372 19.959 34.8403 18.2559 34.8403 16.155C34.8403 14.0542 33.1372 12.3511 31.0364 12.3511C28.9355 12.3511 27.2324 14.0542 27.2324 16.155C27.2324 18.2559 28.9355 19.959 31.0364 19.959Z" fill="#FCD249"/>
<path d="M28.8645 17.4092C27.9246 15.7812 28.3256 13.748 29.7235 12.5854C29.5229 12.6595 29.3256 12.7504 29.1341 12.8609C27.3146 13.9114 26.6913 16.2379 27.7417 18.0574C28.7922 19.8768 31.1187 20.5002 32.9381 19.4498C33.1296 19.3393 33.307 19.2138 33.4714 19.0771C31.7656 19.7065 29.8043 19.0372 28.8645 17.4092Z" fill="#F9B938"/>
<path d="M31.0362 18.6632C32.4212 18.6632 33.544 17.5404 33.544 16.1553C33.544 14.7703 32.4212 13.6475 31.0362 13.6475C29.6511 13.6475 28.5283 14.7703 28.5283 16.1553C28.5283 17.5404 29.6511 18.6632 31.0362 18.6632Z" fill="#F9B938"/>
<path d="M29.8796 16.8228C29.2881 15.7983 29.5023 14.5302 30.3248 13.7505C30.1394 13.8055 29.9574 13.8823 29.7826 13.9832C28.5832 14.6757 28.1722 16.2094 28.8647 17.4087C29.5571 18.6081 31.0908 19.0191 32.2902 18.3266C32.4651 18.2257 32.6226 18.1064 32.7629 17.9734C31.6765 18.2959 30.4712 17.8474 29.8796 16.8228Z" fill="#E59C1C"/>
<path d="M27.3889 19.959C29.4898 19.959 31.1929 18.2559 31.1929 16.155C31.1929 14.0542 29.4898 12.3511 27.3889 12.3511C25.288 12.3511 23.585 14.0542 23.585 16.155C23.585 18.2559 25.288 19.959 27.3889 19.959Z" fill="#FCD249"/>
<path d="M25.217 17.4092C24.2771 15.7812 24.6781 13.748 26.0761 12.5854C25.8754 12.6595 25.6781 12.7504 25.4867 12.8609C23.6672 13.9114 23.0438 16.2379 24.0942 18.0574C25.1447 19.8769 27.4712 20.5002 29.2907 19.4498C29.4822 19.3393 29.6596 19.2138 29.824 19.0771C28.1182 19.7065 26.1569 19.0372 25.217 17.4092Z" fill="#F9B938"/>
<path d="M27.3887 18.6632C28.7738 18.6632 29.8966 17.5404 29.8966 16.1553C29.8966 14.7703 28.7738 13.6475 27.3887 13.6475C26.0037 13.6475 24.8809 14.7703 24.8809 16.1553C24.8809 17.5404 26.0037 18.6632 27.3887 18.6632Z" fill="#F9B938"/>
<path d="M26.2321 16.8228C25.6406 15.7983 25.8548 14.5302 26.6773 13.7505C26.4919 13.8055 26.3099 13.8823 26.1351 13.9832C24.9357 14.6757 24.5248 16.2094 25.2172 17.4087C25.9097 18.6081 27.4434 19.0191 28.6428 18.3266C28.8176 18.2257 28.9751 18.1064 29.1155 17.9734C28.0289 18.2959 26.8237 17.8474 26.2321 16.8228Z" fill="#E59C1C"/>
<path d="M27.7074 18.7263L21.5793 12.5513C21.3142 12.2863 20.8805 12.2863 20.6154 12.5513L14.4873 18.7263H27.7074Z" fill="#91CE91"/>
<path d="M21.5793 12.5513C21.3143 12.2863 20.8805 12.2863 20.6154 12.5513L14.4873 18.7263H16.3155L22.0115 12.9868L21.5793 12.5513Z" fill="#5EAA5E"/>
<path d="M20.6152 14.3844L16.3203 18.7261H25.874L21.5791 14.3844C21.314 14.1193 20.8803 14.1193 20.6152 14.3844Z" fill="#5EAA5E"/>
<path d="M21.5791 14.3848C21.314 14.1198 20.8803 14.1198 20.6152 14.3848L16.3203 18.7266H17.5391L21.7065 14.5137L21.5791 14.3848Z" fill="#4D964D"/>
<path d="M35.6483 30.2674V33.525C35.6483 34.6959 34.6957 35.6486 33.5247 35.6486H14.4762C13.3052 35.6486 12.3525 34.696 12.3525 33.525V20.8033C12.3525 19.6323 13.3051 18.6797 14.4762 18.6797H33.5247C34.6957 18.6797 35.6483 19.6323 35.6483 20.8033V24.0485" fill="#DD9A5E"/>
<path d="M13.665 33.525V20.8033C13.665 19.6323 14.6176 18.6797 15.7887 18.6797H14.4762C13.3052 18.6797 12.3525 19.6323 12.3525 20.8033V33.525C12.3525 34.6959 13.3051 35.6486 14.4762 35.6486H15.7887C14.6176 35.6486 13.665 34.6959 13.665 33.525Z" fill="#D38D54"/>
<path d="M35.6481 24.1641H30.2305C28.5805 24.1641 27.2305 25.5141 27.2305 27.1641C27.2305 28.8141 28.5805 30.1641 30.2305 30.1641H35.6481V24.1641Z" fill="#D38D54"/>
<path d="M27.3014 26.5195C27.2555 26.7274 27.2305 26.9428 27.2305 27.164C27.2305 28.814 28.5805 30.164 30.2305 30.164H35.648V28.8751H30.2305C28.8016 28.8751 27.5984 27.8625 27.3014 26.5195Z" fill="#C17B48"/>
<path d="M30.3125 28.8375C31.2445 28.8375 32.0001 28.082 32.0001 27.1499C32.0001 26.2179 31.2445 25.4624 30.3125 25.4624C29.3805 25.4624 28.625 26.2179 28.625 27.1499C28.625 28.082 29.3805 28.8375 30.3125 28.8375Z" fill="#DADADA"/>
<path d="M31.3376 27.9363C30.4374 27.6951 29.9031 26.7698 30.1444 25.8695C30.1835 25.7235 30.2409 25.5874 30.3129 25.4624C29.5675 25.462 28.885 25.959 28.6829 26.7133C28.4417 27.6135 28.9759 28.5388 29.8762 28.7801C30.6304 28.9821 31.4021 28.6397 31.7745 27.9939C31.6302 27.9938 31.4836 27.9755 31.3376 27.9363Z" fill="#C0C0C0"/>
<path d="M28.8707 25.708C27.585 26.9938 28.5081 29.188 30.3126 29.188C32.1157 29.188 33.0417 26.9952 31.7546 25.708H31.7545C30.9593 24.913 29.6657 24.9131 28.8707 25.708ZM31.2573 28.0946C30.7363 28.6154 29.8887 28.6154 29.3679 28.0946C28.5257 27.2524 29.1303 25.8146 30.3125 25.8146C31.4945 25.8146 32.0999 27.2519 31.2573 28.0946Z" fill="black"/>
<path d="M24.6113 34.0132C24.4171 34.0132 24.2598 34.1705 24.2598 34.3647C24.2598 34.5589 24.4171 34.7163 24.6113 34.7163H24.6585C24.8527 34.7163 25.0101 34.5589 25.0101 34.3647C25.0101 34.1705 24.8527 34.0132 24.6585 34.0132H24.6113Z" fill="black"/>
<path d="M18.2151 34.3649C18.2151 33.8961 17.4648 33.8946 17.4648 34.3649C17.4648 34.5591 17.6222 34.7164 17.8164 34.7164H17.8636C18.0578 34.7164 18.2151 34.559 18.2151 34.3649Z" fill="black"/>
<path d="M25.9492 19.963C25.9492 20.1572 26.1066 20.3146 26.3008 20.3146H26.348C26.5422 20.3146 26.6995 20.1572 26.6995 19.963C26.6995 19.4942 25.9492 19.4927 25.9492 19.963Z" fill="black"/>
<path d="M26.3096 34.0132C26.1154 34.0132 25.958 34.1705 25.958 34.3647C25.958 34.5589 26.1154 34.7163 26.3096 34.7163H26.3568C26.551 34.7163 26.7083 34.5589 26.7083 34.3647C26.7083 34.1705 26.551 34.0132 26.3568 34.0132H26.3096Z" fill="black"/>
<path d="M29.7542 34.7163C29.9484 34.7163 30.1058 34.5589 30.1058 34.3647C30.1058 34.1705 29.9484 34.0132 29.7542 34.0132H29.707C29.5128 34.0132 29.3555 34.1705 29.3555 34.3647C29.3555 34.5589 29.5128 34.7163 29.707 34.7163H29.7542Z" fill="black"/>
<path d="M17.8076 20.3145H17.8548C18.049 20.3145 18.2063 20.1571 18.2063 19.9629C18.2063 19.7687 18.049 19.6113 17.8548 19.6113H17.8076C17.6134 19.6113 17.4561 19.7687 17.4561 19.9629C17.456 20.157 17.6134 20.3145 17.8076 20.3145Z" fill="black"/>
<path d="M28.055 34.7163C28.2492 34.7163 28.4066 34.5589 28.4066 34.3647C28.4066 34.1705 28.2492 34.0132 28.055 34.0132H28.0078C27.8136 34.0132 27.6562 34.1705 27.6562 34.3647C27.6562 34.5589 27.8136 34.7163 28.0078 34.7163H28.055Z" fill="black"/>
<path d="M24.6497 19.6113H24.6025C24.4083 19.6113 24.251 19.7687 24.251 19.9629C24.251 20.4317 25.0013 20.4332 25.0013 19.9629C25.0013 19.7687 24.8439 19.6113 24.6497 19.6113Z" fill="black"/>
<path d="M19.5156 34.0132C19.3214 34.0132 19.1641 34.1705 19.1641 34.3647C19.1641 34.5589 19.3214 34.7163 19.5156 34.7163H19.5628C19.757 34.7163 19.9143 34.5589 19.9143 34.3647C19.9143 34.1705 19.757 34.0132 19.5628 34.0132H19.5156Z" fill="black"/>
<path d="M19.554 19.6113H19.5068C19.3126 19.6113 19.1553 19.7687 19.1553 19.9629C19.1553 20.1571 19.3126 20.3145 19.5068 20.3145H19.554C19.7482 20.3145 19.9056 20.1571 19.9056 19.9629C19.9056 19.7687 19.7482 19.6113 19.554 19.6113Z" fill="black"/>
<path d="M21.2522 19.6113H21.2051C21.0109 19.6113 20.8535 19.7687 20.8535 19.9629C20.8535 20.4317 21.6038 20.4332 21.6038 19.9629C21.6038 19.7687 21.4464 19.6113 21.2522 19.6113Z" fill="black"/>
<path d="M31.4525 34.7164C31.6466 34.7164 31.804 34.5591 31.804 34.3649C31.804 33.8961 31.0537 33.8946 31.0537 34.3649C31.0537 34.5591 31.2111 34.7164 31.4053 34.7164H31.4525Z" fill="black"/>
<path d="M22.9121 34.0132C22.7179 34.0132 22.5605 34.1705 22.5605 34.3647C22.5605 34.5589 22.7179 34.7163 22.9121 34.7163H22.9593C23.1535 34.7163 23.3108 34.5589 23.3108 34.3647C23.3108 34.1705 23.1535 34.0132 22.9593 34.0132H22.9121Z" fill="black"/>
<path d="M22.9505 19.6113H22.9033C22.7091 19.6113 22.5518 19.7687 22.5518 19.9629C22.5518 20.1571 22.7091 20.3145 22.9033 20.3145H22.9505C23.1447 20.3145 23.3021 20.1571 23.3021 19.9629C23.3021 19.7687 23.1447 19.6113 22.9505 19.6113Z" fill="black"/>
<path d="M21.2139 34.0132C21.0197 34.0132 20.8623 34.1705 20.8623 34.3647C20.8623 34.5589 21.0197 34.7163 21.2139 34.7163H21.261C21.4552 34.7163 21.6126 34.5589 21.6126 34.3647C21.6126 34.1705 21.4552 34.0132 21.261 34.0132H21.2139Z" fill="black"/>
<path d="M13.6357 31.0396C13.4416 31.0396 13.2842 31.1969 13.2842 31.3911V31.4383C13.2842 31.6325 13.4416 31.7899 13.6357 31.7899C14.1045 31.7899 14.106 31.0396 13.6357 31.0396Z" fill="black"/>
<path d="M13.6357 32.7383C13.4416 32.7383 13.2842 32.8956 13.2842 33.0898V33.137C13.2842 33.3312 13.4416 33.4886 13.6357 33.4886C14.1045 33.4886 14.106 32.7383 13.6357 32.7383Z" fill="black"/>
<path d="M13.9873 29.6929C13.9873 29.4987 13.8299 29.3413 13.6357 29.3413C13.4416 29.3413 13.2842 29.4987 13.2842 29.6929V29.7401C13.2842 29.9342 13.4416 30.0916 13.6357 30.0916C13.8299 30.0916 13.9873 29.9342 13.9873 29.7401V29.6929Z" fill="black"/>
<path d="M14.4379 20.3162C14.4468 20.3155 14.4556 20.315 14.4644 20.3148C14.9272 20.3055 14.9439 19.5706 14.3824 19.6152C14.1888 19.6306 14.0444 19.7999 14.0597 19.9934C14.0748 20.1847 14.2418 20.3314 14.4379 20.3162Z" fill="black"/>
<path d="M13.9873 27.9941C13.9873 27.7999 13.8299 27.6426 13.6357 27.6426C13.4416 27.6426 13.2842 27.7999 13.2842 27.9941V28.0413C13.2842 28.2355 13.4416 28.3929 13.6357 28.3929C13.8299 28.3929 13.9873 28.2355 13.9873 28.0413V27.9941Z" fill="black"/>
<path d="M14.8178 34.3689C14.823 33.9133 14.0991 33.8841 14.0683 34.3393C14.0364 34.8133 14.8122 34.8566 14.8178 34.3689Z" fill="black"/>
<path d="M13.9873 21.1997C13.9873 21.0055 13.8299 20.8481 13.6357 20.8481C13.4416 20.8481 13.2842 21.0055 13.2842 21.1997V21.2469C13.2842 21.4411 13.4416 21.5984 13.6357 21.5984C13.8299 21.5984 13.9873 21.4411 13.9873 21.2469V21.1997Z" fill="black"/>
<path d="M16.1566 20.3146C16.3508 20.3146 16.5081 20.1572 16.5081 19.963C16.5081 19.4942 15.7578 19.4927 15.7578 19.963C15.7578 20.1572 15.9152 20.3146 16.1094 20.3146H16.1566Z" fill="black"/>
<path d="M13.9873 22.8984C13.9873 22.7042 13.8299 22.5469 13.6357 22.5469C13.4416 22.5469 13.2842 22.7042 13.2842 22.8984V22.9456C13.2842 23.1398 13.4416 23.2972 13.6357 23.2972C13.8299 23.2972 13.9873 23.1398 13.9873 22.9456V22.8984Z" fill="black"/>
<path d="M13.9873 26.2954C13.9873 26.1012 13.8299 25.9438 13.6357 25.9438C13.4416 25.9438 13.2842 26.1012 13.2842 26.2954V26.3426C13.2842 26.5368 13.4416 26.6942 13.6357 26.6942C13.8299 26.6942 13.9873 26.5368 13.9873 26.3426V26.2954Z" fill="black"/>
<path d="M13.9873 24.5972C13.9873 24.403 13.8299 24.2456 13.6357 24.2456C13.4416 24.2456 13.2842 24.403 13.2842 24.5972V24.6443C13.2842 24.8385 13.4416 24.9959 13.6357 24.9959C13.8299 24.9959 13.9873 24.8385 13.9873 24.6443V24.5972Z" fill="black"/>
<path d="M34.0126 20.7742C34.0131 20.783 34.0133 20.7919 34.0134 20.8008C34.014 20.9946 34.1712 21.1513 34.3649 21.1513C34.3653 21.1513 34.3657 21.1513 34.3659 21.1513C34.5601 21.1508 34.717 20.9929 34.7165 20.7988C34.7154 20.2425 33.9836 20.3051 34.0126 20.7742Z" fill="black"/>
<path d="M16.1182 34.7164H16.1654C16.3596 34.7164 16.5169 34.5591 16.5169 34.3649C16.5169 33.8961 15.7666 33.8946 15.7666 34.3649C15.7666 34.559 15.924 34.7164 16.1182 34.7164Z" fill="black"/>
<path d="M29.7454 20.3146C29.9396 20.3146 30.097 20.1572 30.097 19.963C30.097 19.4942 29.3467 19.4927 29.3467 19.963C29.3467 20.1572 29.504 20.3146 29.6982 20.3146H29.7454Z" fill="black"/>
<path d="M28.0462 20.3145C28.2404 20.3145 28.3978 20.1571 28.3978 19.9629C28.3978 19.7687 28.2404 19.6113 28.0462 19.6113H27.999C27.8048 19.6113 27.6475 19.7687 27.6475 19.9629C27.6475 20.1571 27.8048 20.3145 27.999 20.3145H28.0462Z" fill="black"/>
<path d="M34.3643 32.219C34.5585 32.219 34.7158 32.0617 34.7158 31.8675V31.8203C34.7158 31.6261 34.5585 31.4688 34.3643 31.4688C34.1701 31.4688 34.0127 31.6261 34.0127 31.8203V31.8675C34.0127 32.0616 34.1701 32.219 34.3643 32.219Z" fill="black"/>
<path d="M34.0123 33.5486C33.9888 34.0176 34.716 34.0702 34.716 33.5247V33.519C34.716 33.3248 34.5586 33.1675 34.3644 33.1675C34.1702 33.1675 34.0128 33.3248 34.0128 33.519C34.0128 33.5238 34.013 33.5334 34.0123 33.5486Z" fill="black"/>
<path d="M31.4437 20.3146C31.6379 20.3146 31.7952 20.1572 31.7952 19.963C31.7952 19.4942 31.0449 19.4927 31.0449 19.963C31.0449 20.1572 31.2023 20.3146 31.3965 20.3146H31.4437Z" fill="black"/>
<path d="M33.1419 20.3145C33.3361 20.3145 33.4935 20.1571 33.4935 19.9629C33.4935 19.7687 33.3361 19.6113 33.1419 19.6113H33.0947C32.9005 19.6113 32.7432 19.7687 32.7432 19.9629C32.7432 20.1571 32.9005 20.3145 33.0947 20.3145H33.1419Z" fill="black"/>
<path d="M34.3643 22.0996C34.1701 22.0996 34.0127 22.257 34.0127 22.4512V22.4984C34.0127 22.6926 34.1701 22.8499 34.3643 22.8499C34.5585 22.8499 34.7158 22.6926 34.7158 22.4984V22.4512C34.7158 22.257 34.5585 22.0996 34.3643 22.0996Z" fill="black"/>
<path d="M33.1517 34.7163C33.3459 34.7163 33.5033 34.5589 33.5033 34.3647C33.5033 34.1705 33.3459 34.0132 33.1517 34.0132H33.1045C32.9103 34.0132 32.7529 34.1705 32.7529 34.3647C32.7529 34.5589 32.9103 34.7163 33.1045 34.7163H33.1517Z" fill="black"/>
<path d="M34.462 18.5128C34.9358 17.8238 35.1926 17.006 35.1926 16.16C35.1926 13.0921 31.963 11.077 29.2073 12.4272C27.207 11.4439 24.7759 12.2235 23.7187 14.193L21.8286 12.3029C21.4259 11.9001 20.7703 11.9001 20.3674 12.3028L14.3383 18.332C13.0374 18.4038 12.001 19.4846 12.001 20.8031V33.5248C12.001 34.8896 13.1113 36 14.4762 36H16.7742C16.9684 36 17.1258 35.8426 17.1258 35.6484C17.1258 35.4542 16.9684 35.2969 16.7742 35.2969H14.4762C13.4991 35.2969 12.7041 34.502 12.7041 33.5248V20.8031C12.7041 19.826 13.499 19.031 14.4762 19.031C34.7329 19.021 33.8123 19.0546 33.8077 19.0539C34.6507 19.1898 35.2968 19.9222 35.2968 20.8031V23.8122H34.4625C34.2363 23.747 34.0134 23.9172 34.0134 24.1498V24.1732C34.0134 24.3961 34.2203 24.5675 34.4447 24.5154H35.2968V29.8123H34.486C34.4068 29.7832 34.3233 29.7832 34.2439 29.8123H30.2308C28.7704 29.8123 27.5823 28.6242 27.5823 27.1639C27.5823 25.7035 28.7704 24.5154 30.2308 24.5154H32.7329C32.9271 24.5154 33.0845 24.358 33.0845 24.1638C33.0845 23.9696 32.9271 23.8122 32.7329 23.8122H30.2308C28.3827 23.8122 26.8792 25.3158 26.8792 27.1639C26.8792 29.012 28.3828 30.5155 30.2308 30.5155C30.8252 30.5155 34.4371 30.5155 35.2968 30.5155V33.5247C35.2968 34.5018 34.5019 35.2967 33.5247 35.2967H18.4149C18.2207 35.2967 18.0633 35.4541 18.0633 35.6483C18.0633 35.8425 18.2207 35.9999 18.4149 35.9999H33.5248C34.8895 35.9999 35.9999 34.8895 35.9999 33.5247V30.1639C35.9999 29.8981 35.9999 21.0429 35.9999 20.803C35.9999 19.7699 35.3633 18.883 34.462 18.5128ZM30.9291 18.3231C31.7302 17.0102 31.7472 15.3391 30.9289 13.9969C32.1623 13.935 33.2016 14.9235 33.2016 16.16C33.2017 17.3949 32.1641 18.385 30.9291 18.3231ZM27.38 12.7064C30.2518 12.7064 31.9086 16.049 30.0669 18.3279H29.2583C31.2586 16.592 30.0261 13.2911 27.38 13.2911C26.1588 13.2911 25.0972 14.0611 24.6895 15.1637L24.2425 14.7167C24.8016 13.5056 26.0351 12.7064 27.38 12.7064ZM25.2573 15.7315C25.4577 14.7301 26.3425 13.9942 27.38 13.9942C28.5742 13.9942 29.5457 14.9658 29.5457 16.16C29.5457 17.1974 28.8098 18.0822 27.8085 18.2826L25.2573 15.7315ZM17.17 18.3279L20.8646 14.6332C20.9934 14.5045 21.2027 14.5046 21.3313 14.6332L22.5603 15.8622C22.6976 15.9994 22.9202 15.9994 23.0575 15.8622C23.1948 15.7248 23.1948 15.5023 23.0575 15.365L21.8285 14.136C21.4257 13.7332 20.7703 13.7332 20.3674 14.136L16.1754 18.328H15.3368L20.8647 12.8001C20.9926 12.6721 21.2035 12.6721 21.3314 12.8001C21.8631 13.3318 26.3691 17.8378 26.8593 18.328H26.0206L24.2196 16.527C24.0822 16.3897 23.8597 16.3897 23.7224 16.527C23.5851 16.6643 23.5851 16.8869 23.7224 17.0242L25.0261 18.3279H17.17ZM32.9117 18.3279C33.5193 17.8015 33.9048 17.0252 33.9048 16.16C33.9048 14.3486 32.2337 12.9768 30.4453 13.353C30.2909 13.1842 30.122 13.0274 29.9396 12.8848C32.1787 12.1373 34.4895 13.8088 34.4895 16.16C34.4895 16.9556 34.2168 17.7214 33.7179 18.3356C33.5474 18.3222 33.417 18.3305 32.9117 18.3279Z" fill="black"/>
</g>
<defs>
<clipPath id="clip0_2621_4513">
<rect width="24" height="24" fill="white" transform="translate(12 12)"/>
</clipPath>
</defs>
</svg>
