<svg width="32" height="32" viewBox="0 0 32 32" fill="none" xmlns="http://www.w3.org/2000/svg">
<path d="M27.339 13.5319L25.9363 11.6356C25.6124 11.2079 25.1869 10.8677 24.6984 10.6458C24.1794 10.407 23.6145 10.2844 23.0432 10.2864H20.6972C20.6413 10.2866 20.5857 10.2801 20.5315 10.2671C20.4348 10.2451 20.3447 10.2007 20.2684 10.1373C20.1989 10.0796 20.1467 10.0037 20.1176 9.91814C20.1073 9.88661 20.1008 9.85393 20.0984 9.82083L20.0808 9.71562L20.0151 9.37634L19.9537 9.06336C19.8028 8.3642 19.3888 7.74986 18.7973 7.34765C18.1513 6.89992 17.3828 6.66262 16.5968 6.66821H6.41129C5.53593 6.65833 4.68455 6.95411 4.00386 7.50458C3.69977 7.74681 3.4528 8.05307 3.28052 8.40159C3.10823 8.7501 3.01486 9.1323 3.00705 9.521V16.1918C2.98823 16.1887 2.96916 16.1872 2.95007 16.1874C2.87702 16.1867 2.80602 16.2116 2.7493 16.2576C2.72391 16.2778 2.70328 16.3034 2.68888 16.3324C2.67449 16.3615 2.66668 16.3934 2.66602 16.4259V19.9064C2.66668 19.9389 2.67449 19.9708 2.68888 19.9999C2.70328 20.029 2.72391 20.0545 2.7493 20.0747C2.78607 20.1035 2.82858 20.124 2.87396 20.1348C2.91933 20.1457 2.96651 20.1468 3.01231 20.1379C3.04843 20.5115 3.16213 20.8734 3.34616 21.2006C3.53018 21.5277 3.78047 21.8128 4.08101 22.0377C4.74984 22.5466 5.56911 22.8184 6.40953 22.81H6.9864C7.02202 23.118 7.12065 23.4153 7.27615 23.6835C7.43165 23.9517 7.64071 24.185 7.89028 24.3688C8.44805 24.779 9.12229 25.0002 9.81464 25.0002C10.507 25.0002 11.1812 24.779 11.739 24.3688C11.9886 24.185 12.1976 23.9517 12.3531 23.6835C12.5086 23.4153 12.6073 23.118 12.6429 22.81H19.4698C19.505 23.115 19.602 23.4095 19.7551 23.6755C19.9081 23.9416 20.1138 24.1736 20.3596 24.3574C20.9102 24.7666 21.5762 24.9911 22.2621 24.9988C22.9481 25.0066 23.6189 24.7971 24.1785 24.4004C24.4302 24.2227 24.6432 23.9958 24.8048 23.7335C24.9663 23.4711 25.073 23.1788 25.1184 22.874L28.0904 22.9302C28.3818 22.9383 28.6671 22.8454 28.8978 22.6671C29.0009 22.5888 29.0857 22.4889 29.1462 22.3744C29.2068 22.2599 29.2417 22.1337 29.2485 22.0044L29.3292 19.7319C29.389 17.4981 28.6851 15.3107 27.3338 13.531L27.339 13.5319ZM25.9144 16.5925L22.6846 16.4794C22.4255 16.473 22.1747 16.3866 21.9666 16.2321C21.7768 16.0933 21.6478 15.8868 21.6063 15.6553L21.1004 12.4992C21.0799 12.371 21.0923 12.2398 21.1364 12.1178C21.1831 11.9906 21.2588 11.8759 21.3573 11.7829C21.463 11.6832 21.5876 11.6056 21.7238 11.5549C21.8664 11.5012 22.0176 11.4739 22.17 11.4743H22.5672C22.8828 11.4737 23.1961 11.5283 23.493 11.6356C23.7772 11.7375 24.0394 11.8928 24.2653 12.0932L24.6055 12.3992C25.6684 13.323 26.3685 14.5945 26.5807 15.9867C26.5836 16.0076 26.585 16.0287 26.5851 16.0498C26.5848 16.1236 26.5671 16.1963 26.5334 16.262C26.4974 16.33 26.4475 16.3897 26.3869 16.4373C26.322 16.489 26.2479 16.5283 26.1686 16.553C26.0862 16.5789 25.9999 16.5905 25.9135 16.5872L25.9144 16.5925Z" fill="#737373"/>
<path d="M10.965 18.7809C10.799 18.7808 10.6398 18.7149 10.5223 18.5976L7.17505 15.2574C7.10952 15.2011 7.05634 15.1319 7.01889 15.0541C6.98143 14.9763 6.9605 14.8916 6.95743 14.8053C6.95435 14.719 6.96919 14.633 7.00102 14.5527C7.03284 14.4724 7.08095 14.3996 7.14232 14.3388C7.20369 14.278 7.27698 14.2307 7.35758 14.1996C7.43818 14.1686 7.52433 14.1546 7.6106 14.1586C7.69687 14.1625 7.78139 14.1843 7.85883 14.2225C7.93626 14.2607 8.00494 14.3146 8.06052 14.3807L10.9361 17.2475L16.696 10.8195C16.808 10.7018 16.9613 10.6323 17.1236 10.6255C17.2859 10.6188 17.4445 10.6754 17.5658 10.7834C17.6871 10.8914 17.7617 11.0424 17.7738 11.2044C17.7859 11.3663 17.7345 11.5267 17.6306 11.6515L11.4323 18.5722C11.3754 18.6357 11.3062 18.6869 11.2289 18.7228C11.1516 18.7587 11.0678 18.7784 10.9826 18.7809H10.965Z" fill="white" stroke="white" stroke-width="0.5"/>
</svg>
