<?xml version="1.0" encoding="utf-8"?>
<!-- Generator: Adobe Illustrator 27.9.0, SVG Export Plug-In . SVG Version: 6.00 Build 0)  -->
<svg version="1.1" id="Layer_1" xmlns="http://www.w3.org/2000/svg" xmlns:xlink="http://www.w3.org/1999/xlink" x="0px" y="0px"
	 viewBox="0 0 336.4 83.8" style="enable-background:new 0 0 336.4 83.8;" xml:space="preserve">
<style type="text/css">
	.st0{fill:#201C6E;}
	.st1{fill:#EF4E23;}
	.st2{fill:#201B6D;}
	.st3{fill:#F04E23;}
	.st4{fill:#FFFFFF;}
</style>
<g id="Layer_2_00000165942167003734075770000006427488705346559383_">
</g>
<g>
	<g>
		<path class="st0" d="M15.4,52c6.9,5.7,14.7,10,23.1,12.8c8.4,2.8,17.4,4.2,26.5,4.2c9,0,18-1.4,26.5-4.2c8.5-2.8,16.3-7,23.1-12.8
			l0,0c0.3-0.2,0.7-0.2,1,0c0.2,0.2,0.3,0.4,0.2,0.6c-3.4,7.7-10.9,14.3-20,18.7c-9.1,4.4-20,6.7-30.8,6.8
			c-10.8,0-21.7-2.3-30.8-6.8c-9.1-4.4-16.6-11-20-18.7c-0.1-0.3,0.1-0.6,0.5-0.7C14.9,51.8,15.2,51.8,15.4,52L15.4,52z"/>
		<path class="st1" d="M6.3,55.5c-0.2-1.4,0.3-2.7,1.1-3.9c0.9-1.2,2.2-2.2,3.8-2.9c1.6-0.6,3.4-1,5.1-0.9c0.9,0,1.7,0.2,2.5,0.3
			c0.8,0.2,1.5,0.5,2.2,0.8c0.4,0.2,0.5,0.5,0.3,0.8c-0.1,0.1-0.2,0.2-0.4,0.3l-0.1,0c-0.8,0.2-1.5,0.3-2.1,0.4
			c-0.7,0.2-1.3,0.2-1.9,0.4c-1.2,0.3-2.3,0.7-3.3,1.1c-1,0.4-1.9,1-2.9,1.6c-0.9,0.6-1.9,1.4-2.9,2.2l-0.1,0.1
			c-0.3,0.2-0.8,0.2-1.1,0C6.4,55.7,6.3,55.6,6.3,55.5z"/>
		<path class="st1" d="M122.2,55.7c-1-0.8-1.9-1.6-2.9-2.2c-0.9-0.6-1.8-1.2-2.9-1.6c-1-0.4-2.1-0.8-3.3-1.1
			c-0.6-0.2-1.3-0.3-1.9-0.4c-0.7-0.1-1.4-0.2-2.1-0.4l-0.1,0c-0.4-0.1-0.6-0.5-0.5-0.8c0.1-0.1,0.2-0.2,0.3-0.3
			c0.7-0.3,1.5-0.6,2.2-0.8c0.8-0.1,1.6-0.3,2.5-0.3c1.7-0.1,3.5,0.3,5.1,0.9c1.6,0.6,2.9,1.7,3.8,2.9c0.9,1.2,1.3,2.5,1.1,3.9
			c0,0.3-0.4,0.6-0.8,0.5c-0.2,0-0.3-0.1-0.5-0.2L122.2,55.7z"/>
	</g>
	<g>
		<g>
			<path class="st2" d="M16.3,36.5c-2.2,0-4-0.5-5.4-1.5c-1.4-1-2.5-2.3-3.2-4c-0.7-1.7-1.1-3.5-1.1-5.5c0-2.1,0.4-4,1.1-5.7
				c0.8-1.7,1.9-3,3.4-3.9c1.5-0.9,3.3-1.4,5.6-1.4c0.8,0,1.5,0.1,2.3,0.3c0.7,0.2,1.4,0.4,2.1,0.8c0.6,0.3,1.2,0.8,1.6,1.3V7.5h5.7
				v28.8h-5.5l-0.1-2.4c-0.5,0.6-1.1,1.1-1.8,1.5c-0.7,0.4-1.4,0.7-2.2,0.9C18,36.4,17.2,36.5,16.3,36.5z M17.4,31.4
				c1.2,0,2.2-0.3,3-0.9c0.8-0.6,1.3-1.3,1.7-2.2c0.4-0.9,0.6-1.9,0.6-2.9c0-1.1-0.2-2-0.5-2.9c-0.4-0.9-0.9-1.6-1.7-2.1
				c-0.8-0.5-1.8-0.8-3-0.8c-1.2,0-2.2,0.3-3,0.9c-0.8,0.6-1.3,1.3-1.6,2.2c-0.3,0.9-0.5,1.9-0.5,2.9c0,0.8,0.1,1.5,0.3,2.2
				c0.2,0.7,0.5,1.3,0.9,1.8c0.4,0.5,0.9,1,1.6,1.3S16.5,31.4,17.4,31.4z"/>
			<path class="st2" d="M35.7,12.7c-1.1,0-1.9-0.3-2.6-1c-0.7-0.6-1-1.5-1-2.5c0-1.1,0.3-1.9,1-2.6c0.7-0.7,1.5-1,2.6-1
				c0.9,0,1.8,0.3,2.5,1s1,1.5,1,2.5c0,1-0.3,1.9-1,2.5C37.6,12.4,36.7,12.7,35.7,12.7z M32.9,36.2V14.8h5.7v21.4H32.9z"/>
			<path class="st2" d="M53.4,46.2c-1.7,0-3.2-0.3-4.6-0.8c-1.4-0.5-2.6-1.4-3.6-2.5c-1-1.1-1.6-2.6-2-4.4H49c0.2,0.5,0.5,1,0.9,1.4
				c0.4,0.4,0.9,0.6,1.5,0.8c0.6,0.2,1.3,0.3,1.9,0.3c1.3,0,2.3-0.3,3-0.8c0.7-0.5,1.2-1.3,1.5-2.1c0.3-0.9,0.4-1.9,0.4-2.9v-1.5
				c-0.5,0.8-1.1,1.4-1.8,1.8c-0.7,0.4-1.5,0.7-2.3,0.9c-0.8,0.2-1.6,0.3-2.3,0.3c-2.2,0-4.1-0.5-5.5-1.5c-1.4-1-2.4-2.3-3.1-4
				c-0.7-1.6-1-3.4-1-5.3c0-2.1,0.4-4,1.1-5.7s1.8-3.1,3.3-4.1c1.5-1,3.3-1.5,5.5-1.5c1.3,0,2.5,0.2,3.5,0.6c1,0.4,1.9,1,2.6,1.8
				l0.5-2.2H64v18.7c0,2.6-0.3,4.8-1,6.7c-0.7,1.9-1.8,3.3-3.4,4.4C58.1,45.7,56,46.2,53.4,46.2z M53.1,31.4c1.2,0,2.2-0.3,2.9-0.8
				c0.8-0.5,1.3-1.3,1.7-2.2c0.4-0.9,0.6-1.9,0.6-2.9c0-1.1-0.2-2.1-0.6-3c-0.4-0.9-0.9-1.6-1.7-2.1c-0.8-0.5-1.7-0.8-2.9-0.8
				c-1.3,0-2.3,0.3-3.1,0.9c-0.8,0.6-1.3,1.4-1.6,2.3c-0.3,0.9-0.5,1.9-0.5,2.9c0,1,0.2,2,0.5,2.9c0.3,0.9,0.9,1.6,1.6,2.1
				C50.8,31.1,51.8,31.4,53.1,31.4z"/>
			<path class="st2" d="M71.3,12.7c-1.1,0-1.9-0.3-2.6-1c-0.7-0.6-1-1.5-1-2.5c0-1.1,0.3-1.9,1-2.6c0.7-0.7,1.5-1,2.6-1
				c0.9,0,1.8,0.3,2.5,1s1,1.5,1,2.5c0,1-0.3,1.9-1,2.5C73.2,12.4,72.4,12.7,71.3,12.7z M68.5,36.2V14.8h5.7v21.4H68.5z"/>
			<path class="st2" d="M88.4,36.2c-1.8,0-3.3-0.2-4.5-0.7c-1.2-0.4-2.1-1.2-2.7-2.2c-0.6-1-0.9-2.5-0.9-4.3v-9.2h-3.2v-5.1h3.2V9.1
				H86v5.7h4.7v5.1H86v8.4c0,0.9,0.2,1.6,0.5,2.1c0.3,0.5,1.1,0.8,2.2,0.8h1.8v5.1H88.4z"/>
			<path class="st2" d="M100.3,36.5c-1,0-1.9-0.1-2.8-0.4c-0.9-0.3-1.7-0.7-2.4-1.2c-0.7-0.5-1.3-1.2-1.7-2
				c-0.4-0.8-0.6-1.8-0.6-2.8c0-1.5,0.3-2.6,0.9-3.5s1.4-1.6,2.4-2c1-0.5,2.2-0.8,3.5-0.9c1.3-0.2,2.7-0.2,4.1-0.2h3.1
				c0-0.8-0.1-1.5-0.4-2.1c-0.3-0.6-0.7-1.1-1.3-1.4c-0.6-0.3-1.3-0.5-2.2-0.5c-0.6,0-1.1,0.1-1.6,0.2c-0.5,0.1-1,0.4-1.3,0.6
				c-0.4,0.3-0.6,0.6-0.7,1.1h-5.8c0.2-1.2,0.5-2.2,1.1-3.1c0.6-0.9,1.3-1.6,2.2-2.1c0.9-0.5,1.9-0.9,2.9-1.2
				c1.1-0.3,2.2-0.4,3.3-0.4c3.1,0,5.4,0.9,6.9,2.7c1.5,1.8,2.2,4.3,2.2,7.5v11.5h-5.1l-0.1-2.8c-0.7,0.9-1.4,1.6-2.3,2.1
				c-0.9,0.4-1.7,0.7-2.5,0.8C101.5,36.5,100.8,36.5,100.3,36.5z M101.6,32c0.9,0,1.8-0.2,2.6-0.6c0.8-0.4,1.4-0.9,1.9-1.5
				c0.5-0.7,0.7-1.4,0.7-2.2v-0.5h-3.9c-0.6,0-1.1,0-1.6,0.1s-1,0.2-1.4,0.3c-0.4,0.1-0.8,0.4-1,0.7s-0.4,0.8-0.4,1.3
				c0,0.5,0.1,1,0.4,1.4c0.3,0.4,0.7,0.6,1.2,0.8S101.1,32,101.6,32z"/>
			<path class="st2" d="M116.6,36.2V7.5h5.7v28.8H116.6z"/>
		</g>
		<g>
			<path class="st3" d="M144.3,37c-2.3,0-4.2-0.5-5.7-1.4c-1.5-0.9-2.6-2.2-3.4-3.9c-0.8-1.7-1.1-3.6-1.1-5.7c0-2.1,0.4-4,1.2-5.7
				c0.8-1.7,2-3,3.5-4c1.6-1,3.5-1.5,5.8-1.5c1.6,0,3,0.3,4.2,0.8c1.2,0.5,2.2,1.3,3,2.3c0.8,1,1.3,2.3,1.5,3.8h-4.2
				c-0.4-1.1-0.9-1.9-1.8-2.4c-0.8-0.5-1.8-0.7-2.9-0.7c-1.5,0-2.7,0.4-3.6,1.1c-0.9,0.7-1.5,1.6-1.9,2.7c-0.4,1.1-0.6,2.3-0.6,3.5
				c0,1.3,0.2,2.5,0.6,3.6c0.4,1.1,1.1,2,2,2.6c0.9,0.7,2.1,1,3.5,1c1.1,0,2.1-0.2,3-0.7c0.9-0.5,1.5-1.3,1.8-2.4h4.3
				c-0.2,1.6-0.8,2.9-1.7,3.9c-0.9,1-2,1.8-3.3,2.3C147.2,36.8,145.8,37,144.3,37z"/>
			<path class="st3" d="M167.3,37c-2.2,0-4.1-0.5-5.7-1.4c-1.6-0.9-2.7-2.2-3.5-3.9c-0.8-1.7-1.2-3.6-1.2-5.8c0-2.2,0.4-4.1,1.2-5.8
				c0.8-1.7,2-2.9,3.6-3.9c1.6-0.9,3.5-1.4,5.7-1.4c2.2,0,4.1,0.5,5.7,1.4c1.6,0.9,2.7,2.2,3.5,3.9c0.8,1.7,1.2,3.6,1.2,5.8
				c0,2.2-0.4,4.1-1.2,5.7c-0.8,1.7-2,3-3.5,3.9C171.5,36.5,169.6,37,167.3,37z M167.3,33.2c1.5,0,2.7-0.3,3.6-1s1.6-1.5,2-2.6
				c0.4-1.1,0.7-2.3,0.7-3.6s-0.2-2.5-0.7-3.6c-0.4-1.1-1.1-2-2-2.6c-0.9-0.7-2.1-1-3.6-1c-1.4,0-2.6,0.3-3.6,1
				c-0.9,0.7-1.6,1.5-2,2.6c-0.4,1.1-0.6,2.3-0.6,3.6c0,1.3,0.2,2.6,0.6,3.6c0.4,1.1,1.1,2,2,2.6C164.7,32.9,165.9,33.2,167.3,33.2z
				"/>
			<path class="st3" d="M182.1,36.8V15.2h4l0.2,2.5c0.5-0.7,1-1.3,1.7-1.7c0.6-0.4,1.3-0.7,2-0.9c0.7-0.2,1.4-0.3,2.2-0.3
				c1.4,0,2.6,0.3,3.6,0.9c0.9,0.6,1.7,1.4,2.2,2.5c0.5-0.7,1.1-1.4,1.8-1.9c0.7-0.5,1.4-0.9,2.2-1.1c0.8-0.2,1.6-0.4,2.5-0.4
				c1.6,0,2.9,0.3,3.9,1c1,0.7,1.7,1.6,2.2,2.8c0.5,1.2,0.7,2.5,0.7,4.1v14h-4.3V24.5c0-0.7,0-1.3-0.1-2s-0.2-1.3-0.5-1.9
				c-0.3-0.6-0.6-1.1-1.1-1.4c-0.5-0.4-1.2-0.6-2-0.6c-0.8,0-1.5,0.2-2.1,0.6c-0.6,0.4-1,0.9-1.4,1.5c-0.3,0.6-0.6,1.3-0.7,2.1
				c-0.2,0.7-0.2,1.5-0.2,2.2v11.7h-4.3V24.4c0-0.6,0-1.3-0.1-1.9c-0.1-0.7-0.2-1.3-0.4-1.9c-0.2-0.6-0.6-1.1-1.1-1.4
				c-0.5-0.4-1.2-0.6-2-0.6c-1.2,0-2.2,0.3-2.8,1c-0.7,0.7-1.1,1.5-1.4,2.5c-0.2,1-0.4,1.9-0.4,2.8v11.7H182.1z"/>
			<path class="st3" d="M216.1,36.8V15.2h4l0.2,2.5c0.5-0.7,1-1.3,1.7-1.7c0.6-0.4,1.3-0.7,2-0.9c0.7-0.2,1.4-0.3,2.2-0.3
				c1.4,0,2.6,0.3,3.6,0.9c0.9,0.6,1.7,1.4,2.2,2.5c0.5-0.7,1.1-1.4,1.8-1.9c0.7-0.5,1.4-0.9,2.2-1.1c0.8-0.2,1.6-0.4,2.5-0.4
				c1.6,0,2.9,0.3,3.9,1c1,0.7,1.7,1.6,2.2,2.8c0.5,1.2,0.7,2.5,0.7,4.1v14h-4.3V24.5c0-0.7,0-1.3-0.1-2s-0.2-1.3-0.5-1.9
				c-0.3-0.6-0.6-1.1-1.1-1.4c-0.5-0.4-1.2-0.6-2-0.6c-0.8,0-1.5,0.2-2.1,0.6c-0.6,0.4-1,0.9-1.4,1.5c-0.3,0.6-0.6,1.3-0.7,2.1
				c-0.2,0.7-0.2,1.5-0.2,2.2v11.7h-4.3V24.4c0-0.6,0-1.3-0.1-1.9c-0.1-0.7-0.2-1.3-0.4-1.9c-0.2-0.6-0.6-1.1-1.1-1.4
				c-0.5-0.4-1.2-0.6-2-0.6c-1.2,0-2.2,0.3-2.8,1c-0.7,0.7-1.1,1.5-1.4,2.5c-0.2,1-0.4,1.9-0.4,2.8v11.7H216.1z"/>
			<path class="st3" d="M259.6,37c-2.3,0-4.2-0.5-5.7-1.4c-1.5-0.9-2.7-2.2-3.5-3.9c-0.8-1.7-1.2-3.6-1.2-5.7c0-2.2,0.4-4.1,1.2-5.8
				c0.8-1.7,2-3,3.5-3.9c1.5-1,3.4-1.4,5.6-1.4c1.7,0,3.1,0.3,4.3,0.9c1.2,0.6,2.2,1.4,3.1,2.5c0.8,1,1.4,2.2,1.8,3.5
				c0.4,1.3,0.5,2.6,0.5,4c0,0.3,0,0.6,0,0.9c0,0.3-0.1,0.6-0.1,0.9h-15.6c0.1,1.1,0.4,2.1,0.8,3s1.2,1.6,2,2.1
				c0.9,0.5,2,0.8,3.2,0.8c0.7,0,1.4-0.1,2.1-0.3c0.7-0.2,1.3-0.5,1.8-0.9c0.5-0.4,0.9-0.9,1.1-1.5h4.3c-0.4,1.4-1,2.6-1.9,3.6
				s-2,1.6-3.3,2.1C262.4,36.8,261,37,259.6,37z M253.6,24.1h11.5c0-1.1-0.3-2-0.7-2.8c-0.5-0.8-1.1-1.5-1.9-2
				c-0.8-0.5-1.8-0.7-2.9-0.7c-1.3,0-2.3,0.3-3.1,0.8s-1.5,1.2-1.9,2C254,22.2,253.7,23.1,253.6,24.1z"/>
			<path class="st3" d="M273.6,36.8V15.2h4l0.2,3.1c0.5-0.8,1.2-1.5,1.9-2c0.7-0.5,1.5-0.8,2.3-1.1c0.8-0.2,1.7-0.3,2.7-0.3
				c0.2,0,0.5,0,0.7,0c0.2,0,0.4,0,0.6,0v4.1h-1.3c-1.6,0-2.8,0.3-3.9,0.9c-1,0.6-1.8,1.5-2.3,2.6c-0.5,1.1-0.7,2.4-0.7,3.8v10.4
				H273.6z"/>
			<path class="st3" d="M298.1,37c-2.3,0-4.2-0.5-5.7-1.4c-1.5-0.9-2.6-2.2-3.4-3.9s-1.1-3.6-1.1-5.7c0-2.1,0.4-4,1.2-5.7
				c0.8-1.7,2-3,3.5-4c1.6-1,3.5-1.5,5.8-1.5c1.6,0,3,0.3,4.2,0.8c1.2,0.5,2.2,1.3,3,2.3c0.8,1,1.3,2.3,1.5,3.8H303
				c-0.4-1.1-0.9-1.9-1.8-2.4c-0.8-0.5-1.8-0.7-2.9-0.7c-1.5,0-2.7,0.4-3.6,1.1c-0.9,0.7-1.5,1.6-1.9,2.7c-0.4,1.1-0.6,2.3-0.6,3.5
				c0,1.3,0.2,2.5,0.6,3.6c0.4,1.1,1.1,2,2,2.6c0.9,0.7,2.1,1,3.5,1c1.1,0,2.1-0.2,3-0.7c0.9-0.5,1.5-1.3,1.8-2.4h4.3
				c-0.2,1.6-0.8,2.9-1.7,3.9c-0.9,1-2,1.8-3.3,2.3C301.1,36.8,299.6,37,298.1,37z"/>
			<path class="st3" d="M321,37c-2.3,0-4.2-0.5-5.7-1.4c-1.5-0.9-2.7-2.2-3.5-3.9c-0.8-1.7-1.2-3.6-1.2-5.7c0-2.2,0.4-4.1,1.2-5.8
				c0.8-1.7,2-3,3.5-3.9c1.5-1,3.4-1.4,5.6-1.4c1.7,0,3.1,0.3,4.3,0.9c1.2,0.6,2.2,1.4,3.1,2.5c0.8,1,1.4,2.2,1.8,3.5
				c0.4,1.3,0.5,2.6,0.5,4c0,0.3,0,0.6,0,0.9c0,0.3-0.1,0.6-0.1,0.9H315c0.1,1.1,0.4,2.1,0.8,3s1.2,1.6,2,2.1c0.9,0.5,2,0.8,3.2,0.8
				c0.7,0,1.4-0.1,2.1-0.3c0.7-0.2,1.3-0.5,1.8-0.9c0.5-0.4,0.9-0.9,1.1-1.5h4.3c-0.4,1.4-1,2.6-1.9,3.6s-2,1.6-3.3,2.1
				C323.8,36.8,322.5,37,321,37z M315.1,24.1h11.5c0-1.1-0.3-2-0.7-2.8c-0.5-0.8-1.1-1.5-1.9-2c-0.8-0.5-1.8-0.7-2.9-0.7
				c-1.3,0-2.3,0.3-3.1,0.8s-1.5,1.2-1.9,2C315.4,22.2,315.1,23.1,315.1,24.1z"/>
		</g>
	</g>
	<g>
		<g>
			<path class="st2" d="M134.1,70.1V54.9h2.3v6.7h7.6v-6.7h2.3v15.2H144v-6.4h-7.6v6.4H134.1z"/>
			<path class="st2" d="M153.1,70.2c-0.5,0-1-0.1-1.5-0.2c-0.5-0.1-0.9-0.3-1.3-0.6c-0.4-0.3-0.7-0.6-0.9-1.1
				c-0.2-0.4-0.3-0.9-0.3-1.5c0-0.7,0.1-1.3,0.4-1.7c0.3-0.5,0.6-0.8,1.1-1.1c0.4-0.3,1-0.4,1.5-0.5s1.2-0.2,1.8-0.2h2.8
				c0-0.6-0.1-1.1-0.3-1.5s-0.4-0.8-0.8-1c-0.4-0.2-0.9-0.4-1.5-0.4c-0.4,0-0.7,0-1,0.1c-0.3,0.1-0.6,0.2-0.8,0.4
				c-0.2,0.2-0.4,0.4-0.5,0.7h-2.3c0.1-0.5,0.3-1,0.6-1.4c0.3-0.4,0.7-0.7,1.1-1c0.4-0.3,0.9-0.4,1.4-0.6s1-0.2,1.6-0.2
				c1.6,0,2.8,0.5,3.5,1.4c0.7,1,1.1,2.3,1.1,3.9v6.1h-1.9l-0.1-1.4c-0.3,0.4-0.7,0.8-1.2,1c-0.5,0.2-0.9,0.4-1.3,0.5
				C153.9,70.2,153.5,70.2,153.1,70.2z M153.4,68.3c0.6,0,1.2-0.1,1.7-0.3c0.5-0.2,0.9-0.5,1.1-1c0.3-0.4,0.4-0.9,0.4-1.5v-0.5h-2
				c-0.4,0-0.8,0-1.2,0s-0.8,0.1-1.1,0.2c-0.3,0.1-0.6,0.2-0.8,0.5c-0.2,0.2-0.3,0.5-0.3,0.9c0,0.4,0.1,0.7,0.3,0.9s0.5,0.4,0.8,0.5
				C152.7,68.3,153.1,68.3,153.4,68.3z"/>
			<path class="st2" d="M161.5,74.2V58.7h2.1l0.1,1.6c0.4-0.6,0.9-1,1.6-1.3c0.6-0.3,1.3-0.4,2.1-0.4c1.1,0,2.1,0.3,2.8,0.8
				c0.7,0.5,1.3,1.2,1.6,2.1c0.4,0.9,0.5,1.9,0.5,3c0,1.1-0.2,2.1-0.5,3c-0.4,0.9-0.9,1.6-1.7,2.1c-0.8,0.5-1.7,0.8-2.9,0.8
				c-0.5,0-1-0.1-1.5-0.2c-0.5-0.1-0.8-0.3-1.2-0.5s-0.6-0.5-0.9-0.8v5.5H161.5z M167,68.2c0.8,0,1.4-0.2,1.9-0.5
				c0.5-0.4,0.8-0.8,1-1.4s0.3-1.2,0.3-1.9c0-0.7-0.1-1.3-0.3-1.9c-0.2-0.6-0.5-1-1-1.4c-0.5-0.4-1.1-0.5-1.9-0.5
				c-0.7,0-1.3,0.2-1.8,0.5c-0.5,0.4-0.9,0.8-1.1,1.4c-0.3,0.6-0.4,1.2-0.4,1.9c0,0.7,0.1,1.3,0.4,1.9c0.2,0.6,0.6,1,1.1,1.4
				C165.6,68.1,166.3,68.2,167,68.2z"/>
			<path class="st2" d="M174.7,74.2V58.7h2.1l0.1,1.6c0.4-0.6,0.9-1,1.6-1.3c0.6-0.3,1.3-0.4,2.1-0.4c1.1,0,2.1,0.3,2.8,0.8
				c0.7,0.5,1.3,1.2,1.6,2.1c0.4,0.9,0.5,1.9,0.5,3c0,1.1-0.2,2.1-0.5,3c-0.4,0.9-0.9,1.6-1.7,2.1c-0.8,0.5-1.7,0.8-2.9,0.8
				c-0.5,0-1-0.1-1.5-0.2c-0.5-0.1-0.8-0.3-1.2-0.5c-0.3-0.2-0.6-0.5-0.9-0.8v5.5H174.7z M180.2,68.2c0.8,0,1.4-0.2,1.9-0.5
				c0.5-0.4,0.8-0.8,1-1.4s0.3-1.2,0.3-1.9c0-0.7-0.1-1.3-0.3-1.9c-0.2-0.6-0.5-1-1-1.4c-0.5-0.4-1.1-0.5-1.9-0.5
				c-0.7,0-1.3,0.2-1.8,0.5s-0.9,0.8-1.1,1.4c-0.3,0.6-0.4,1.2-0.4,1.9c0,0.7,0.1,1.3,0.4,1.9c0.2,0.6,0.6,1,1.1,1.4
				C178.8,68.1,179.4,68.2,180.2,68.2z"/>
			<path class="st2" d="M192.8,75.2c-0.9,0-1.7-0.1-2.5-0.4c-0.8-0.2-1.6-0.7-2.2-1.2l0.9-1.8c0.5,0.4,1.1,0.7,1.7,1
				c0.6,0.2,1.3,0.4,2,0.4c1.2,0,2-0.3,2.5-0.9c0.5-0.6,0.8-1.5,0.8-2.5v-1.1c-0.3,0.4-0.6,0.7-1,0.9c-0.4,0.2-0.8,0.4-1.3,0.5
				c-0.5,0.1-0.9,0.2-1.4,0.2c-1.1,0-2-0.2-2.6-0.7s-1.1-1.1-1.4-1.9c-0.3-0.8-0.4-1.7-0.4-2.7v-6.2h2.2v5.7c0,0.5,0,0.9,0.1,1.4
				c0.1,0.5,0.2,0.9,0.4,1.2c0.2,0.4,0.5,0.7,0.8,0.9c0.4,0.2,0.8,0.3,1.5,0.3c0.8,0,1.4-0.2,1.8-0.6c0.4-0.4,0.8-0.9,0.9-1.5
				c0.2-0.6,0.3-1.3,0.3-2v-5.4h2.2v10.8c0,0.9-0.1,1.7-0.3,2.4c-0.2,0.7-0.5,1.3-1,1.8c-0.4,0.5-1,0.9-1.6,1.1
				C194.5,75.1,193.7,75.2,192.8,75.2z"/>
		</g>
		<g>
			<g>
				<rect x="211.6" y="52" class="st0" width="119.1" height="26.1"/>
			</g>
			<g>
				<path class="st4" d="M224.9,72.8c-1.6,0-2.9-0.3-3.9-1c-1.1-0.7-1.8-1.6-2.4-2.7s-0.8-2.5-0.8-4c0-1.5,0.3-2.9,0.8-4
					c0.5-1.2,1.3-2.1,2.4-2.8c1.1-0.7,2.4-1,3.9-1c1.1,0,2.1,0.2,3,0.5c0.8,0.4,1.5,0.9,2.1,1.6c0.5,0.7,0.9,1.5,1,2.4h-2.2
					c-0.2-0.7-0.7-1.3-1.3-1.7s-1.5-0.6-2.5-0.6c-1.1,0-2.1,0.3-2.8,0.8s-1.2,1.2-1.5,2.1c-0.3,0.9-0.5,1.8-0.5,2.8
					c0,1,0.2,2,0.5,2.8s0.9,1.6,1.6,2.1c0.7,0.5,1.6,0.8,2.8,0.8c0.7,0,1.3-0.1,1.8-0.3c0.5-0.2,1-0.5,1.3-0.8
					c0.4-0.4,0.6-0.8,0.7-1.3h2.4c-0.2,0.9-0.6,1.7-1.1,2.4s-1.3,1.2-2.2,1.6C227.1,72.6,226.1,72.8,224.9,72.8z"/>
				<path class="st4" d="M238.3,72.8c-1.6,0-2.8-0.4-3.7-1.3s-1.3-2.1-1.3-3.8v-6.4h2.2v6.2c0,0.7,0.1,1.3,0.3,1.7
					c0.2,0.5,0.5,0.9,0.9,1.1c0.4,0.3,0.9,0.4,1.5,0.4c0.6,0,1.2-0.1,1.6-0.4c0.4-0.3,0.7-0.6,0.9-1.1s0.3-1.1,0.3-1.7v-6.2h2.2v6.4
					c0,1.8-0.4,3-1.3,3.9C241.1,72.4,239.9,72.8,238.3,72.8z"/>
				<path class="st4" d="M250.2,72.8c-0.5,0-1.1,0-1.6-0.2s-1-0.3-1.5-0.5c-0.5-0.3-0.8-0.6-1.2-1c-0.3-0.4-0.5-1-0.6-1.6h2.3
					c0.1,0.3,0.3,0.6,0.6,0.8c0.3,0.2,0.6,0.4,1,0.5c0.4,0.1,0.7,0.2,1.1,0.2c0.2,0,0.5,0,0.7,0c0.3,0,0.5-0.1,0.8-0.2
					s0.4-0.2,0.6-0.4c0.2-0.2,0.2-0.5,0.2-0.8c0-0.3-0.1-0.5-0.2-0.6c-0.1-0.2-0.3-0.3-0.6-0.4c-0.2-0.1-0.5-0.2-0.9-0.2
					c-0.6-0.1-1.3-0.3-2.1-0.4c-0.7-0.1-1.4-0.4-1.9-0.7c-0.2-0.1-0.4-0.3-0.5-0.4c-0.2-0.2-0.3-0.4-0.4-0.6
					c-0.1-0.2-0.2-0.4-0.3-0.7s-0.1-0.5-0.1-0.8c0-0.6,0.1-1.1,0.4-1.5c0.2-0.4,0.6-0.8,1-1c0.4-0.3,0.9-0.5,1.4-0.6
					c0.5-0.1,1.1-0.2,1.7-0.2c0.8,0,1.4,0.1,2.1,0.4c0.6,0.2,1.1,0.6,1.5,1.1c0.4,0.5,0.6,1.1,0.7,1.8h-2.1
					c-0.1-0.4-0.3-0.7-0.7-0.9c-0.4-0.2-0.9-0.4-1.5-0.4c-0.2,0-0.4,0-0.7,0c-0.3,0-0.5,0.1-0.7,0.2s-0.4,0.2-0.6,0.4
					c-0.1,0.2-0.2,0.4-0.2,0.7c0,0.3,0.1,0.5,0.2,0.7c0.1,0.2,0.3,0.3,0.6,0.5c0.3,0.1,0.6,0.2,0.9,0.3c0.5,0.1,1,0.2,1.6,0.3
					s1,0.2,1.4,0.3c0.5,0.1,0.9,0.3,1.2,0.6c0.3,0.2,0.6,0.6,0.8,0.9c0.2,0.4,0.3,0.8,0.3,1.4c0,0.7-0.1,1.3-0.4,1.7
					c-0.3,0.4-0.6,0.8-1.1,1c-0.5,0.3-1,0.4-1.5,0.5S250.7,72.8,250.2,72.8z"/>
				<path class="st4" d="M261.5,72.7c-0.9,0-1.6-0.1-2.2-0.4c-0.6-0.3-1-0.6-1.2-1.2c-0.3-0.5-0.4-1.3-0.4-2.1v-5.7h-1.8v-2h1.8V58
					h2.2v3.3h2.9v2h-2.9v5.4c0,0.7,0.1,1.2,0.4,1.5c0.2,0.3,0.8,0.5,1.5,0.5h0.9v2H261.5z"/>
				<path class="st4" d="M269.7,72.8c-1.2,0-2.2-0.2-3-0.7c-0.8-0.5-1.4-1.2-1.9-2c-0.4-0.9-0.6-1.9-0.6-3c0-1.2,0.2-2.2,0.6-3
					c0.4-0.9,1.1-1.5,1.9-2c0.8-0.5,1.8-0.7,3-0.7c1.2,0,2.2,0.2,3,0.7c0.8,0.5,1.4,1.2,1.9,2.1c0.4,0.9,0.6,1.9,0.6,3.1
					c0,1.1-0.2,2.1-0.6,3c-0.4,0.9-1,1.6-1.9,2C271.9,72.5,270.9,72.8,269.7,72.8z M269.7,70.8c0.8,0,1.4-0.2,1.9-0.5
					c0.5-0.3,0.8-0.8,1.1-1.4c0.2-0.6,0.3-1.2,0.3-1.9s-0.1-1.3-0.3-1.9c-0.2-0.6-0.6-1-1.1-1.4c-0.5-0.4-1.1-0.5-1.9-0.5
					c-0.8,0-1.4,0.2-1.9,0.5s-0.8,0.8-1.1,1.4c-0.2,0.6-0.3,1.2-0.3,1.9c0,0.7,0.1,1.3,0.3,1.9c0.2,0.6,0.6,1,1.1,1.4
					S268.9,70.8,269.7,70.8z"/>
				<path class="st4" d="M277.5,72.7V61.3h2.1l0.1,1.3c0.3-0.4,0.5-0.7,0.9-0.9s0.7-0.4,1-0.5c0.4-0.1,0.8-0.2,1.1-0.2
					c0.8,0,1.4,0.2,1.9,0.5s0.9,0.7,1.2,1.3c0.3-0.4,0.6-0.7,0.9-1s0.7-0.5,1.1-0.6c0.4-0.1,0.9-0.2,1.3-0.2c0.8,0,1.5,0.2,2.1,0.5
					c0.5,0.4,0.9,0.9,1.1,1.5c0.2,0.6,0.4,1.3,0.4,2.1v7.3h-2.2v-6.5c0-0.3,0-0.7,0-1c0-0.3-0.1-0.7-0.2-1c-0.1-0.3-0.3-0.6-0.6-0.8
					c-0.3-0.2-0.6-0.3-1.1-0.3c-0.4,0-0.8,0.1-1.1,0.3s-0.5,0.5-0.7,0.8c-0.2,0.3-0.3,0.7-0.4,1.1s-0.1,0.8-0.1,1.2v6.2H284v-6.5
					c0-0.3,0-0.7,0-1c0-0.3-0.1-0.7-0.2-1c-0.1-0.3-0.3-0.6-0.6-0.8c-0.3-0.2-0.6-0.3-1.1-0.3c-0.6,0-1.1,0.2-1.5,0.5
					s-0.6,0.8-0.7,1.3c-0.1,0.5-0.2,1-0.2,1.5v6.1H277.5z"/>
				<path class="st4" d="M300.3,72.8c-1.2,0-2.2-0.2-3-0.7c-0.8-0.5-1.4-1.2-1.8-2c-0.4-0.9-0.6-1.9-0.6-3c0-1.1,0.2-2.2,0.6-3
					c0.4-0.9,1-1.6,1.9-2.1c0.8-0.5,1.8-0.8,2.9-0.8c0.9,0,1.6,0.2,2.3,0.5c0.6,0.3,1.2,0.8,1.6,1.3s0.7,1.2,0.9,1.8
					c0.2,0.7,0.3,1.4,0.3,2.1c0,0.2,0,0.3,0,0.5s0,0.3,0,0.5h-8.2c0,0.6,0.2,1.1,0.4,1.6s0.6,0.9,1.1,1.1c0.5,0.3,1,0.4,1.7,0.4
					c0.4,0,0.7,0,1.1-0.1c0.4-0.1,0.7-0.2,0.9-0.5c0.3-0.2,0.5-0.5,0.6-0.8h2.2c-0.2,0.8-0.5,1.4-1,1.9c-0.5,0.5-1.1,0.9-1.7,1.1
					S301.1,72.8,300.3,72.8z M297.2,66h6c0-0.6-0.1-1.1-0.4-1.5c-0.2-0.4-0.6-0.8-1-1c-0.4-0.3-0.9-0.4-1.5-0.4
					c-0.7,0-1.2,0.1-1.6,0.4c-0.4,0.3-0.8,0.6-1,1.1C297.4,65,297.2,65.5,297.2,66z"/>
				<path class="st4" d="M307.7,72.7V61.3h2.1l0.1,1.6c0.3-0.4,0.6-0.8,1-1.1c0.4-0.3,0.8-0.4,1.2-0.6s0.9-0.2,1.4-0.2
					c0.1,0,0.3,0,0.4,0c0.1,0,0.2,0,0.3,0v2.1h-0.7c-0.8,0-1.5,0.2-2,0.5c-0.5,0.3-0.9,0.8-1.2,1.4c-0.3,0.6-0.4,1.3-0.4,2v5.5
					H307.7z"/>
				<path class="st4" d="M319.9,72.8c-0.5,0-1.1,0-1.6-0.2s-1-0.3-1.5-0.5c-0.5-0.3-0.8-0.6-1.2-1c-0.3-0.4-0.5-1-0.6-1.6h2.3
					c0.1,0.3,0.3,0.6,0.6,0.8c0.3,0.2,0.6,0.4,1,0.5c0.4,0.1,0.7,0.2,1.1,0.2c0.2,0,0.5,0,0.7,0c0.3,0,0.5-0.1,0.8-0.2
					s0.4-0.2,0.6-0.4c0.2-0.2,0.2-0.5,0.2-0.8c0-0.3-0.1-0.5-0.2-0.6c-0.1-0.2-0.3-0.3-0.6-0.4c-0.2-0.1-0.5-0.2-0.9-0.2
					c-0.6-0.1-1.3-0.3-2.1-0.4c-0.7-0.1-1.4-0.4-1.9-0.7c-0.2-0.1-0.4-0.3-0.5-0.4c-0.2-0.2-0.3-0.4-0.4-0.6
					c-0.1-0.2-0.2-0.4-0.3-0.7s-0.1-0.5-0.1-0.8c0-0.6,0.1-1.1,0.4-1.5c0.2-0.4,0.6-0.8,1-1c0.4-0.3,0.9-0.5,1.4-0.6
					c0.5-0.1,1.1-0.2,1.7-0.2c0.8,0,1.4,0.1,2.1,0.4c0.6,0.2,1.1,0.6,1.5,1.1c0.4,0.5,0.6,1.1,0.7,1.8h-2.1
					c-0.1-0.4-0.3-0.7-0.7-0.9c-0.4-0.2-0.9-0.4-1.5-0.4c-0.2,0-0.4,0-0.7,0c-0.3,0-0.5,0.1-0.7,0.2s-0.4,0.2-0.6,0.4
					c-0.1,0.2-0.2,0.4-0.2,0.7c0,0.3,0.1,0.5,0.2,0.7c0.1,0.2,0.3,0.3,0.6,0.5c0.3,0.1,0.6,0.2,0.9,0.3c0.5,0.1,1,0.2,1.6,0.3
					s1,0.2,1.4,0.3c0.5,0.1,0.9,0.3,1.2,0.6c0.3,0.2,0.6,0.6,0.8,0.9c0.2,0.4,0.3,0.8,0.3,1.4c0,0.7-0.1,1.3-0.4,1.7
					c-0.3,0.4-0.6,0.8-1.1,1c-0.5,0.3-1,0.4-1.5,0.5S320.4,72.8,319.9,72.8z"/>
			</g>
		</g>
	</g>
</g>
</svg>
