<svg width="180" height="38" viewBox="0 0 180 38" fill="none" xmlns="http://www.w3.org/2000/svg">
<g clip-path="url(#clip0_9320_28225)">
<path d="M13.1746 11.5433L9.40024 13.9365C9.40024 13.9365 3.5244 6.15514 0 4.10343L41.1693 0C41.1693 0 10.1557 4.44491 7.72182 5.98719L13.1746 11.5433Z" fill="#4E4E4F"/>
<path d="M43.6798 0C43.6798 0 29.7498 3.78432 19.4677 24.1559L15.4818 15.1765L12.125 17.7432C12.125 17.7432 18.4211 29.4153 18.814 35.5144C18.814 35.5144 27.4203 10.1326 43.6798 0Z" fill="#34A487"/>
<path d="M2.43359 23.4076C2.43359 23.4076 13.0672 10.0169 37.6502 1.50781C37.6502 1.50781 18.9376 8.22555 2.43359 23.4076Z" fill="#4E4E4F"/>
<path d="M126.67 32.1608C126.278 31.3454 125.485 30.9377 124.291 30.9377C123.358 30.9147 122.444 31.2103 121.695 31.7774C120.951 32.3512 120.445 33.188 120.277 34.123C120.214 34.3926 120.18 34.6687 120.178 34.9459C120.158 35.2841 120.218 35.6223 120.353 35.9321C120.488 36.2418 120.694 36.5141 120.953 36.7261C121.502 37.1242 122.167 37.3214 122.84 37.2859C123.387 37.2954 123.93 37.1897 124.435 36.9754C124.94 36.761 125.396 36.4427 125.774 36.0403L126.299 36.4294C125.839 36.921 125.284 37.3109 124.67 37.5748C124.055 37.8387 123.394 37.9709 122.728 37.9633C121.513 37.9633 120.619 37.619 120.044 36.9304C119.636 36.4292 119.423 35.7927 119.445 35.1418C119.447 34.8159 119.484 34.4912 119.555 34.1734C119.762 33.0334 120.376 32.0116 121.277 31.3043C122.186 30.6037 123.302 30.2394 124.442 30.2715C125.888 30.2715 126.866 30.7753 127.376 31.783L126.67 32.1608Z" fill="#4E4E4F"/>
<path d="M135.398 37.2097C135.058 37.5176 134.661 37.7527 134.23 37.901C133.861 37.9795 133.484 38.0124 133.107 37.999C132.501 38.0311 131.904 37.847 131.417 37.4784C131.187 37.2859 131.004 37.0405 130.884 36.7622C130.764 36.4839 130.711 36.1807 130.728 35.8773C130.73 35.6383 130.756 35.4002 130.805 35.1664C130.958 34.3465 131.396 33.6102 132.038 33.0923C132.684 32.5749 133.486 32.3019 134.307 32.3197C134.917 32.289 135.518 32.4728 136.01 32.8403C136.24 33.036 136.422 33.2837 136.541 33.5636C136.66 33.8435 136.714 34.1479 136.697 34.4526C136.692 34.9811 136.573 35.502 136.348 35.9785C136.124 36.4549 135.799 36.8753 135.398 37.2097ZM135.656 33.5709C135.492 33.3333 135.261 33.1525 134.994 33.0531C134.724 32.9875 134.447 32.9611 134.17 32.9747C133.545 32.9528 132.934 33.1614 132.449 33.562C131.963 33.9626 131.636 34.5283 131.527 35.1552C131.486 35.3388 131.464 35.5266 131.464 35.715C131.451 35.9436 131.49 36.1721 131.579 36.3825C131.667 36.5929 131.803 36.7794 131.975 36.927C132.342 37.2084 132.794 37.3501 133.252 37.3272C133.876 37.3431 134.486 37.1351 134.975 36.7394C135.458 36.3418 135.787 35.7824 135.903 35.1608C135.945 34.9705 135.967 34.7763 135.969 34.5814C135.979 34.2217 135.869 33.8693 135.656 33.5821V33.5709Z" fill="#4E4E4F"/>
<path d="M144.571 37.8979L144.692 37.3073C144.124 37.7801 143.407 38.0285 142.673 38.007C142.201 38.03 141.732 37.9144 141.322 37.6739C141.123 37.5482 140.962 37.3704 140.854 37.1591C140.746 36.9478 140.696 36.7109 140.709 36.4731C140.711 36.3019 140.73 36.1313 140.764 35.9637L141.495 32.4593H142.217L141.484 35.9385C141.457 36.0665 141.444 36.1968 141.443 36.3276C141.443 36.9938 141.9 37.3269 142.816 37.3269C143.363 37.3486 143.899 37.1643 144.321 36.809C144.731 36.4346 145.007 35.9327 145.107 35.3815L145.717 32.4453H146.439L145.291 37.8979H144.571Z" fill="#4E4E4F"/>
<path d="M151.13 35.6731L150.671 37.8759H149.951L151.086 32.4402H151.808L151.654 33.1847C152.347 32.5813 153.241 32.2709 154.151 32.317L154.022 32.9832C152.473 32.9832 151.509 33.8798 151.13 35.6731Z" fill="#4E4E4F"/>
<path d="M157.283 37.8758L158.44 32.3169H159.159L158.003 37.8758H157.283ZM158.931 31.5947C158.778 31.5947 158.684 31.5023 158.657 31.3148L158.83 30.5143C158.867 30.4381 158.923 30.3727 158.992 30.3239C159.06 30.275 159.139 30.2443 159.223 30.2344C159.341 30.2344 159.448 30.3155 159.549 30.4779L159.376 31.3456C159.264 31.4831 159.105 31.5721 158.931 31.5947Z" fill="#4E4E4F"/>
<path d="M163.501 35.4407C163.48 35.5731 163.469 35.7069 163.468 35.841C163.468 36.8347 164.045 37.3301 165.204 37.3301C165.665 37.3516 166.122 37.2437 166.526 37.018C166.93 36.7924 167.266 36.4578 167.495 36.0509H168.237C167.954 36.6605 167.5 37.1714 166.934 37.5199C166.367 37.8683 165.712 38.0389 165.051 38.0103C164.466 38.0467 163.886 37.8832 163.402 37.5456C163.18 37.3619 163.005 37.1263 162.891 36.8588C162.777 36.5913 162.728 36.2998 162.749 36.009C162.751 35.7327 162.785 35.4576 162.847 35.1888C162.999 34.3766 163.426 33.6447 164.055 33.122C164.683 32.5992 165.473 32.3191 166.284 32.331C166.868 32.3041 167.446 32.4678 167.932 32.7984C168.165 32.9725 168.352 33.2027 168.476 33.4685C168.6 33.7342 168.658 34.0272 168.644 34.3211C168.641 34.5453 168.615 34.7685 168.567 34.9873L168.479 35.4435L163.501 35.4407ZM166.152 32.9832C165.602 32.9669 165.061 33.1325 164.61 33.4554C164.159 33.7783 163.824 34.2411 163.652 34.7746H167.833C167.847 34.6819 167.854 34.5884 167.855 34.4947C167.864 34.2819 167.824 34.07 167.739 33.8757C167.654 33.6814 167.525 33.51 167.364 33.375C167.015 33.1083 166.588 32.9701 166.152 32.9832Z" fill="#4E4E4F"/>
<path d="M173.395 35.6731L172.937 37.8759H172.217L173.351 32.4402H174.082L173.931 33.1847C174.624 32.5813 175.517 32.2709 176.428 32.317L176.299 32.9832C174.742 32.9832 173.774 33.8798 173.395 35.6731Z" fill="#4E4E4F"/>
<path d="M44.4687 11.0257C44.3352 11.0228 44.2054 11.0696 44.1033 11.1572C44.0079 11.2372 43.9349 11.3415 43.8918 11.4595C43.8896 11.4764 43.884 11.4926 43.8753 11.5071C43.8611 11.5412 43.8509 11.5769 43.8451 11.6135L43.8011 11.8374C43.7792 11.9354 43.7517 12.0585 43.716 12.2013C43.6803 12.344 43.6391 12.526 43.5869 12.7415C43.5347 12.957 43.477 13.2117 43.4056 13.5C43.3888 13.5888 43.3909 13.6802 43.4118 13.7681C43.4326 13.856 43.4717 13.9383 43.5264 14.0094C43.5773 14.0789 43.6437 14.135 43.7202 14.173C43.7966 14.211 43.8809 14.2298 43.9659 14.2278H51.3554C51.9882 14.2078 52.6163 14.3442 53.1861 14.6255C53.7558 14.9067 54.2503 15.3244 54.6271 15.8428C55.0255 16.3612 55.3005 16.9667 55.4307 17.6116C55.5608 18.2566 55.5424 18.9235 55.377 19.56C55.379 19.5758 55.379 19.5918 55.377 19.6076C55.368 19.6407 55.3607 19.6744 55.355 19.7083C55.355 19.7531 55.3303 19.8203 55.3083 19.9099C55.2863 19.9994 55.2616 20.1058 55.2259 20.2401C55.1902 20.3745 55.149 20.5424 55.105 20.744C55.0611 20.9455 55.0034 21.1778 54.9375 21.4465C54.8715 21.7153 54.7946 22.0231 54.7095 22.3758C54.6243 22.7285 54.5309 23.1232 54.4348 23.5654C54.1909 24.5446 53.6366 25.4144 52.858 26.0398C52.0791 26.674 51.1079 27.0124 50.111 26.9971H35.2415C35.2398 26.9794 35.2398 26.9616 35.2415 26.9439C35.2415 26.9187 35.258 26.8767 35.2717 26.8207C35.2854 26.7648 35.3074 26.6836 35.3321 26.58C35.3568 26.4765 35.3898 26.3421 35.431 26.177C35.4722 26.0118 35.5162 25.8131 35.5684 25.5751C35.6206 25.3372 35.681 25.0573 35.7579 24.7354C35.8348 24.4135 35.9227 24.0385 36.0326 23.6158C36.1425 23.1932 36.2469 22.7201 36.3677 22.1939H49.4325C49.5659 22.1974 49.6967 22.1552 49.8037 22.074C49.9108 21.9928 49.9881 21.8773 50.0231 21.746C50.0214 21.7312 50.0214 21.7161 50.0231 21.7013C50.0231 21.6789 50.0231 21.6425 50.0451 21.5921C50.067 21.5417 50.0725 21.4661 50.1 21.3682L50.1907 21.0043C50.2264 20.8588 50.2676 20.6796 50.3198 20.4641C50.372 20.2485 50.4242 19.9938 50.4846 19.7055C50.5209 19.6245 50.5352 19.535 50.526 19.4464C50.5169 19.3577 50.4845 19.2733 50.4324 19.2017C50.3844 19.1308 50.3199 19.0732 50.2446 19.0341C50.1693 18.995 50.0856 18.9756 50.0011 18.9778H42.5567C41.9261 18.9992 41.2995 18.8666 40.7294 18.591C40.1593 18.3153 39.6622 17.9048 39.2796 17.3935C38.4573 16.3392 38.2037 15.0945 38.5186 13.6596C38.5169 13.6447 38.5169 13.6297 38.5186 13.6148C38.5186 13.5924 38.5351 13.5588 38.5489 13.5056C38.5626 13.4524 38.5818 13.3853 38.6011 13.2985C38.6203 13.2117 38.6478 13.0998 38.678 12.9654C38.7082 12.831 38.7494 12.6659 38.7988 12.47C38.8483 12.274 38.906 12.0389 38.9664 11.7674C39.0268 11.4959 39.101 11.1824 39.1862 10.8325C39.2713 10.4826 39.3702 10.0852 39.4828 9.64012C40.3417 7.40087 41.7784 6.28125 43.7929 6.28125H58.7228C58.7243 6.29895 58.7243 6.31674 58.7228 6.33443L58.6926 6.45759C58.6761 6.51357 58.6569 6.59474 58.6322 6.69831C58.6075 6.80187 58.5718 6.93344 58.5251 7.09298C58.4784 7.25253 58.4289 7.44846 58.374 7.68078C58.319 7.9131 58.2504 8.18741 58.1679 8.5065C58.0855 8.8256 57.9949 9.19507 57.8932 9.62613C57.7916 10.0572 57.668 10.5162 57.5361 11.0257H44.4687Z" fill="#4E4E4F"/>
<path d="M60.1708 6.28906H65.1649C65.167 6.29921 65.167 6.3097 65.1649 6.31985C65.1558 6.33676 65.1484 6.35458 65.1429 6.37303C65.1294 6.40572 65.1184 6.4394 65.1099 6.47379C65.1099 6.51578 65.088 6.56616 65.0742 6.62774C65.0605 6.68932 65.0385 6.7649 65.0138 6.85168C64.9891 6.93845 64.9616 7.0392 64.9369 7.15396C64.9122 7.26872 64.8819 7.39469 64.8462 7.53184C64.8105 7.669 64.7693 7.83134 64.7254 8.01327C64.6814 8.19521 64.6292 8.39115 64.5715 8.60667C64.5138 8.8222 64.4589 9.06013 64.3985 9.31764C64.338 9.57516 64.2694 9.85786 64.1924 10.1574C64.1155 10.4569 64.0331 10.7899 63.9425 11.1398H67.5136L66.5274 15.7303H62.9014C62.9038 15.7413 62.9038 15.7528 62.9014 15.7639C62.8929 15.7834 62.8873 15.8042 62.8849 15.8255C62.8849 15.8562 62.8849 15.8926 62.8629 15.9402C62.8409 15.9878 62.8409 16.0466 62.8244 16.1194C62.808 16.1921 62.7915 16.2761 62.7722 16.3741C62.753 16.472 62.7228 16.5868 62.6871 16.7211C62.6514 16.8555 62.6157 17.001 62.5745 17.1774C62.5333 17.3537 62.4893 17.5413 62.4371 17.7568L62.2723 18.4762C62.2091 18.7393 62.1432 19.036 62.0663 19.3495C61.9894 19.663 61.9069 20.0128 61.8163 20.3851C61.7256 20.7574 61.624 21.1632 61.5114 21.6055C61.4941 21.7305 61.5015 21.8578 61.5331 21.9799C61.5647 22.102 61.6199 22.2164 61.6954 22.3165C61.7704 22.4189 61.8691 22.5009 61.9827 22.5551C62.0962 22.6093 62.2212 22.6341 62.3465 22.6272H64.9424L63.9287 27.0049H60.5197C59.8905 27.0267 59.2656 26.8899 58.7007 26.6067C58.1357 26.3235 57.6481 25.9026 57.281 25.3814C56.8885 24.8489 56.6176 24.2339 56.4878 23.5812C56.3581 22.9284 56.3729 22.2545 56.5311 21.6083L60.1708 6.28906Z" fill="#4E4E4F"/>
<path d="M70.3843 14.2883C72.2846 12.3529 74.8406 11.233 77.5265 11.159H81.2349C81.8298 11.1363 82.4217 11.2559 82.9631 11.5081C83.5045 11.7604 83.9804 12.1383 84.3528 12.6117C84.7308 13.063 84.9947 13.6017 85.1216 14.1808C85.2484 14.7599 85.2344 15.3619 85.0807 15.9342C85.001 16.2449 84.9296 16.5136 84.8692 16.7375C84.8088 16.9614 84.7566 17.1574 84.7181 17.3113C84.6796 17.4653 84.6412 17.5912 84.611 17.6976C84.5808 17.8039 84.5615 17.8795 84.5505 17.9383C84.5452 17.9777 84.5351 18.0162 84.5203 18.053C84.5112 18.0673 84.5055 18.0837 84.5038 18.1006C84.2875 19.0501 83.7472 19.8903 82.9793 20.4714C82.2089 21.0643 81.2662 21.3776 80.3009 21.3615H75.7079C75.4176 21.3332 75.1428 21.2151 74.9204 21.0229C74.6979 20.8308 74.5385 20.5739 74.4636 20.2867C74.3805 19.9764 74.364 19.6516 74.4152 19.3343C74.4664 19.0169 74.5841 18.7146 74.7602 18.4477C75.1283 17.8235 75.8096 17.4205 76.8012 17.2329H79.6993C79.7598 16.9866 79.812 16.7711 79.8587 16.5919C79.9054 16.4128 79.9438 16.2589 79.9795 16.1357C80.0152 16.0125 80.0427 15.909 80.0647 15.8278C80.0867 15.7466 80.0976 15.6794 80.1086 15.6347C80.1196 15.5899 80.1279 15.5563 80.1306 15.5395C80.1326 15.5275 80.1326 15.5152 80.1306 15.5031H77.0128C76.0092 15.4792 75.0247 15.7854 74.2053 16.3764C73.416 16.9586 72.8547 17.8916 72.5214 19.1755C72.3516 20.0454 72.5033 20.9485 72.9472 21.7114C73.3922 22.484 74.2676 22.8702 75.5733 22.8702H83.3254C83.2155 23.3349 83.1111 23.7463 83.015 24.1074C82.9188 24.4685 82.8337 24.7848 82.7568 25.0591C82.6798 25.3334 82.6167 25.5713 82.5672 25.7785C82.5178 25.9856 82.4711 26.1563 82.4299 26.2963C82.3887 26.4362 82.3584 26.5482 82.3392 26.635C82.32 26.7217 82.3007 26.7917 82.287 26.8449C82.2733 26.8981 82.2623 26.9317 82.2568 26.954C82.2549 26.9689 82.2549 26.984 82.2568 26.9988H73.3867C71.2825 26.9988 69.7708 26.4857 68.8514 25.4594C67.941 24.463 67.4362 23.1512 67.4395 21.7898C67.4395 18.7519 68.4211 16.2514 70.3843 14.2883Z" fill="#4E4E4F"/>
<path d="M91.1232 26.945C88.574 26.667 86.89 25.5408 86.0714 23.5666C85.2528 21.5923 85.4653 19.1469 86.7087 16.2302C88.8331 12.6232 92.1295 10.9438 96.5979 11.1919H103.685L103.457 12.0093H103.485L102.24 17.0196L99.7515 27.0066H94.7794L91.1232 26.945ZM97.2847 17.0196H97.2682L97.6775 15.3401H95.2959C94.0139 15.3625 92.982 15.7105 92.2 16.3842C91.4425 17.0128 90.8836 17.855 90.593 18.8054C90.0564 21.2872 90.9007 22.5132 93.1257 22.4833H95.8892L97.2847 17.0196Z" fill="#4E4E4F"/>
<path d="M118.846 21.3816H113.959L115.332 15.4616H112.275C110.099 15.4392 108.662 16.6605 107.965 19.1255C107.771 19.9968 107.916 20.9105 108.368 21.6755C108.815 22.4219 109.657 22.8138 110.893 22.8511H118.51L117.447 26.9937H108.783C106.769 26.962 105.304 26.4367 104.388 25.4178C103.479 24.4104 102.955 23.1046 102.91 21.7371C103.002 18.6749 103.985 16.1623 105.86 14.1992C107.687 12.2628 110.189 11.1366 112.824 11.0643H116.45L117.695 6.28906H122.576L118.846 21.3816Z" fill="#4E4E4F"/>
<path d="M123.264 9.72071C124.042 7.43108 125.479 6.2872 127.574 6.28906H141.548L140.482 11.0251H132.348H128.42C128.294 11.0314 128.173 11.0807 128.077 11.165C127.959 11.2611 127.872 11.3907 127.827 11.5373L127.22 14.272H135.414L134.414 19.0024H126.173L124.415 26.9965H119.438L123.264 9.72071Z" fill="#34A487"/>
<path d="M141.641 26.945C139.096 26.6688 137.412 25.5427 136.59 23.5666C135.767 21.5904 135.98 19.145 137.227 16.2302C139.35 12.6232 142.646 10.9438 147.116 11.1919H154.203L153.975 12.0093H153.992L152.748 17.0196L150.259 27.0066H145.3L141.641 26.945ZM147.803 17.0196H147.786L148.199 15.3401H145.814C144.532 15.3625 143.501 15.7105 142.721 16.3842C141.962 17.0119 141.402 17.8542 141.111 18.8054C140.567 21.2947 141.413 22.5272 143.647 22.5029H146.394L147.803 17.0196Z" fill="#34A487"/>
<path d="M171.495 11.1734L172.654 6.28906H177.654C177.656 6.29921 177.656 6.3097 177.654 6.31985C177.644 6.33676 177.637 6.35458 177.632 6.37303C177.618 6.4054 177.608 6.43918 177.601 6.47379C177.601 6.51578 177.577 6.56616 177.563 6.62774C177.549 6.68932 177.527 6.7649 177.502 6.85168C177.478 6.93845 177.45 7.0392 177.426 7.15396C177.401 7.26872 177.371 7.39469 177.335 7.53184C177.299 7.669 177.258 7.83134 177.214 8.01327C177.17 8.19521 177.118 8.39115 177.06 8.60667C177.003 8.8222 176.948 9.06013 176.887 9.31764C176.827 9.57516 176.758 9.85786 176.681 10.1574C176.604 10.4569 176.522 10.7899 176.431 11.1398H180.002L179.027 15.7331H175.401C175.403 15.7441 175.403 15.7556 175.401 15.7667C175.393 15.7862 175.387 15.807 175.385 15.8282C175.385 15.859 175.385 15.8954 175.363 15.943C175.341 15.9906 175.341 16.0494 175.324 16.1222C175.308 16.1949 175.291 16.2789 175.272 16.3769C175.253 16.4748 175.222 16.5896 175.19 16.7239C175.157 16.8583 175.115 17.0038 175.074 17.1802C175.033 17.3565 174.989 17.5441 174.937 17.7596L174.772 18.479C174.712 18.7421 174.643 19.0332 174.566 19.3523C174.489 19.6714 174.407 20.0156 174.316 20.3879C174.225 20.7602 174.124 21.166 174.014 21.6083C173.996 21.7331 174.003 21.8603 174.034 21.9824C174.065 22.1045 174.12 22.219 174.195 22.3193C174.27 22.4217 174.369 22.5037 174.482 22.5579C174.596 22.6121 174.721 22.6369 174.846 22.63H177.442L176.439 27.0049H173.003C172.374 27.0267 171.749 26.8899 171.184 26.6067C170.619 26.3235 170.131 25.9026 169.764 25.3814C169.372 24.8489 169.101 24.2339 168.971 23.5812C168.841 22.9284 168.856 22.2545 169.014 21.6083L170.511 15.302H160.787C160.161 15.2722 159.802 15.5036 159.71 15.9962C159.674 16.1508 159.695 16.3135 159.769 16.4534C159.843 16.5934 159.965 16.7006 160.111 16.7547C160.519 16.8906 160.951 16.9382 161.378 16.8947L163.397 16.8331C165.288 16.8947 166.54 17.4377 167.152 18.4622C167.763 19.4866 167.928 20.8553 167.646 22.5684C167.016 25.6399 164.938 27.1187 161.411 27.0049H152.4L153.263 22.7083H161.259C162.111 22.7783 162.619 22.5124 162.792 21.9022C162.812 21.2332 162.323 20.9281 161.32 20.9897H159.076C157.519 20.958 156.329 20.4486 155.504 19.4614C154.68 18.4743 154.425 17.1083 154.738 15.3636C155.639 12.3555 157.91 10.956 161.551 11.165H171.498L171.495 11.1734Z" fill="#34A487"/>
<mask id="mask0_9320_28225" style="mask-type:luminance" maskUnits="userSpaceOnUse" x="35" y="34" width="83" height="2">
<path d="M117.394 34.3984H35.2422V35.5153H117.394V34.3984Z" fill="white"/>
</mask>
<g mask="url(#mask0_9320_28225)">
<path d="M35.668 34.3984H35.2422V35.5153H35.668V34.3984Z" fill="#34A487"/>
<path d="M36.0938 34.3984H35.668V35.5153H36.0938V34.3984Z" fill="#34A487"/>
<path d="M36.5195 34.3984H36.0938V35.5153H36.5195V34.3984Z" fill="#35A487"/>
<path d="M36.9453 34.3984H36.5195V35.5153H36.9453V34.3984Z" fill="#35A487"/>
<path d="M37.3711 34.3984H36.9453V35.5153H37.3711V34.3984Z" fill="#36A488"/>
<path d="M37.7969 34.3984H37.3711V35.5153H37.7969V34.3984Z" fill="#37A588"/>
<path d="M38.2227 34.3984H37.7969V35.5153H38.2227V34.3984Z" fill="#37A588"/>
<path d="M38.6484 34.3984H38.2227V35.5153H38.6484V34.3984Z" fill="#38A588"/>
<path d="M39.0742 34.3984H38.6484V35.5153H39.0742V34.3984Z" fill="#39A588"/>
<path d="M39.5 34.3984H39.0742V35.5153H39.5V34.3984Z" fill="#3AA588"/>
<path d="M39.9258 34.3984H39.5V35.5153H39.9258V34.3984Z" fill="#3BA589"/>
<path d="M40.3516 34.3984H39.9258V35.5153H40.3516V34.3984Z" fill="#3BA589"/>
<path d="M40.7773 34.3984H40.3516V35.5153H40.7773V34.3984Z" fill="#3CA689"/>
<path d="M41.2031 34.3984H40.7773V35.5153H41.2031V34.3984Z" fill="#3DA689"/>
<path d="M41.6289 34.3984H41.2031V35.5153H41.6289V34.3984Z" fill="#3EA68A"/>
<path d="M42.0527 34.3984H41.627V35.5153H42.0527V34.3984Z" fill="#3FA68A"/>
<path d="M42.4785 34.3984H42.0527V35.5153H42.4785V34.3984Z" fill="#40A68A"/>
<path d="M42.9043 34.3984H42.4785V35.5153H42.9043V34.3984Z" fill="#41A68A"/>
<path d="M43.3301 34.3984H42.9043V35.5153H43.3301V34.3984Z" fill="#42A78B"/>
<path d="M43.7559 34.3984H43.3301V35.5153H43.7559V34.3984Z" fill="#43A78B"/>
<path d="M44.1816 34.3984H43.7559V35.5153H44.1816V34.3984Z" fill="#43A78B"/>
<path d="M44.6074 34.3984H44.1816V35.5153H44.6074V34.3984Z" fill="#44A78C"/>
<path d="M45.0332 34.3984H44.6074V35.5153H45.0332V34.3984Z" fill="#45A78C"/>
<path d="M45.459 34.3984H45.0332V35.5153H45.459V34.3984Z" fill="#46A88C"/>
<path d="M45.8848 34.3984H45.459V35.5153H45.8848V34.3984Z" fill="#47A88C"/>
<path d="M46.3106 34.3984H45.8848V35.5153H46.3106V34.3984Z" fill="#48A88D"/>
<path d="M46.7363 34.3984H46.3105V35.5153H46.7363V34.3984Z" fill="#49A88D"/>
<path d="M47.1621 34.3984H46.7363V35.5153H47.1621V34.3984Z" fill="#4AA98D"/>
<path d="M47.5879 34.3984H47.1621V35.5153H47.5879V34.3984Z" fill="#4BA98E"/>
<path d="M48.0137 34.3984H47.5879V35.5153H48.0137V34.3984Z" fill="#4CA98E"/>
<path d="M48.4395 34.3984H48.0137V35.5153H48.4395V34.3984Z" fill="#4DA98E"/>
<path d="M48.8652 34.3984H48.4395V35.5153H48.8652V34.3984Z" fill="#4EAA8F"/>
<path d="M49.291 34.3984H48.8652V35.5153H49.291V34.3984Z" fill="#4FAA8F"/>
<path d="M49.7168 34.3984H49.291V35.5153H49.7168V34.3984Z" fill="#4FAA8F"/>
<path d="M50.1426 34.3984H49.7168V35.5153H50.1426V34.3984Z" fill="#50AA90"/>
<path d="M50.5684 34.3984H50.1426V35.5153H50.5684V34.3984Z" fill="#51AB90"/>
<path d="M50.9941 34.3984H50.5684V35.5153H50.9941V34.3984Z" fill="#52AB90"/>
<path d="M51.416 34.3984H50.9902V35.5153H51.416V34.3984Z" fill="#53AB91"/>
<path d="M51.8418 34.3984H51.416V35.5153H51.8418V34.3984Z" fill="#54AB91"/>
<path d="M52.2676 34.3984H51.8418V35.5153H52.2676V34.3984Z" fill="#55AC92"/>
<path d="M52.6934 34.3984H52.2676V35.5153H52.6934V34.3984Z" fill="#56AC92"/>
<path d="M53.1191 34.3984H52.6934V35.5153H53.1191V34.3984Z" fill="#57AC92"/>
<path d="M53.5449 34.3984H53.1191V35.5153H53.5449V34.3984Z" fill="#58AC93"/>
<path d="M53.9707 34.3984H53.5449V35.5153H53.9707V34.3984Z" fill="#59AD93"/>
<path d="M54.3965 34.3984H53.9707V35.5153H54.3965V34.3984Z" fill="#5AAD93"/>
<path d="M54.8223 34.3984H54.3965V35.5153H54.8223V34.3984Z" fill="#5BAD94"/>
<path d="M55.248 34.3984H54.8223V35.5153H55.248V34.3984Z" fill="#5CAE94"/>
<path d="M55.6738 34.3984H55.248V35.5153H55.6738V34.3984Z" fill="#5DAE95"/>
<path d="M56.0996 34.3984H55.6738V35.5153H56.0996V34.3984Z" fill="#5DAE95"/>
<path d="M56.5254 34.3984H56.0996V35.5153H56.5254V34.3984Z" fill="#5EAF96"/>
<path d="M56.9512 34.3984H56.5254V35.5153H56.9512V34.3984Z" fill="#5FAF96"/>
<path d="M57.377 34.3984H56.9512V35.5153H57.377V34.3984Z" fill="#60AF96"/>
<path d="M57.8027 34.3984H57.377V35.5153H57.8027V34.3984Z" fill="#61AF97"/>
<path d="M58.2285 34.3984H57.8027V35.5153H58.2285V34.3984Z" fill="#62B097"/>
<path d="M58.6543 34.3984H58.2285V35.5153H58.6543V34.3984Z" fill="#63B098"/>
<path d="M59.0801 34.3984H58.6543V35.5153H59.0801V34.3984Z" fill="#64B098"/>
<path d="M59.5059 34.3984H59.0801V35.5153H59.5059V34.3984Z" fill="#65B199"/>
<path d="M59.9316 34.3984H59.5059V35.5153H59.9316V34.3984Z" fill="#66B199"/>
<path d="M60.3555 34.3984H59.9297V35.5153H60.3555V34.3984Z" fill="#67B19A"/>
<path d="M60.7813 34.3984H60.3555V35.5153H60.7813V34.3984Z" fill="#68B29A"/>
<path d="M61.207 34.3984H60.7812V35.5153H61.207V34.3984Z" fill="#69B29A"/>
<path d="M61.6328 34.3984H61.207V35.5153H61.6328V34.3984Z" fill="#6AB29B"/>
<path d="M62.0586 34.3984H61.6328V35.5153H62.0586V34.3984Z" fill="#6BB39B"/>
<path d="M62.4844 34.3984H62.0586V35.5153H62.4844V34.3984Z" fill="#6CB39C"/>
<path d="M62.9102 34.3984H62.4844V35.5153H62.9102V34.3984Z" fill="#6DB39C"/>
<path d="M63.3359 34.3984H62.9102V35.5153H63.3359V34.3984Z" fill="#6EB49D"/>
<path d="M63.7617 34.3984H63.3359V35.5153H63.7617V34.3984Z" fill="#6FB49D"/>
<path d="M64.1875 34.3984H63.7617V35.5153H64.1875V34.3984Z" fill="#70B49E"/>
<path d="M64.6133 34.3984H64.1875V35.5153H64.6133V34.3984Z" fill="#71B59E"/>
<path d="M65.0391 34.3984H64.6133V35.5153H65.0391V34.3984Z" fill="#72B59F"/>
<path d="M65.4648 34.3984H65.0391V35.5153H65.4648V34.3984Z" fill="#73B69F"/>
<path d="M65.8906 34.3984H65.4648V35.5153H65.8906V34.3984Z" fill="#74B6A0"/>
<path d="M66.3164 34.3984H65.8906V35.5153H66.3164V34.3984Z" fill="#75B6A0"/>
<path d="M66.7422 34.3984H66.3164V35.5153H66.7422V34.3984Z" fill="#76B7A1"/>
<path d="M67.168 34.3984H66.7422V35.5153H67.168V34.3984Z" fill="#76B7A1"/>
<path d="M67.5938 34.3984H67.168V35.5153H67.5938V34.3984Z" fill="#77B7A2"/>
<path d="M68.0195 34.3984H67.5938V35.5153H68.0195V34.3984Z" fill="#78B8A2"/>
<path d="M68.4453 34.3984H68.0195V35.5153H68.4453V34.3984Z" fill="#79B8A3"/>
<path d="M68.8711 34.3984H68.4453V35.5153H68.8711V34.3984Z" fill="#7AB9A4"/>
<path d="M69.2969 34.3984H68.8711V35.5153H69.2969V34.3984Z" fill="#7BB9A4"/>
<path d="M69.7207 34.3984H69.2949V35.5153H69.7207V34.3984Z" fill="#7CB9A5"/>
<path d="M70.1465 34.3984H69.7207V35.5153H70.1465V34.3984Z" fill="#7DBAA5"/>
<path d="M70.5723 34.3984H70.1465V35.5153H70.5723V34.3984Z" fill="#7EBAA6"/>
<path d="M70.9981 34.3984H70.5723V35.5153H70.9981V34.3984Z" fill="#7FBBA6"/>
<path d="M71.4238 34.3984H70.998V35.5153H71.4238V34.3984Z" fill="#80BBA7"/>
<path d="M71.8496 34.3984H71.4238V35.5153H71.8496V34.3984Z" fill="#81BBA7"/>
<path d="M72.2754 34.3984H71.8496V35.5153H72.2754V34.3984Z" fill="#82BCA8"/>
<path d="M72.7012 34.3984H72.2754V35.5153H72.7012V34.3984Z" fill="#83BCA9"/>
<path d="M73.127 34.3984H72.7012V35.5153H73.127V34.3984Z" fill="#84BDA9"/>
<path d="M73.5527 34.3984H73.127V35.5153H73.5527V34.3984Z" fill="#85BDAA"/>
<path d="M73.9785 34.3984H73.5527V35.5153H73.9785V34.3984Z" fill="#86BEAA"/>
<path d="M74.4043 34.3984H73.9785V35.5153H74.4043V34.3984Z" fill="#87BEAB"/>
<path d="M74.8301 34.3984H74.4043V35.5153H74.8301V34.3984Z" fill="#88BEAC"/>
<path d="M75.2559 34.3984H74.8301V35.5153H75.2559V34.3984Z" fill="#89BFAC"/>
<path d="M75.6816 34.3984H75.2559V35.5153H75.6816V34.3984Z" fill="#8ABFAD"/>
<path d="M76.1074 34.3984H75.6816V35.5153H76.1074V34.3984Z" fill="#8BC0AD"/>
<path d="M76.5332 34.3984H76.1074V35.5153H76.5332V34.3984Z" fill="#8CC0AE"/>
<path d="M76.959 34.3984H76.5332V35.5153H76.959V34.3984Z" fill="#8DC1AF"/>
<path d="M77.3848 34.3984H76.959V35.5153H77.3848V34.3984Z" fill="#8EC1AF"/>
<path d="M77.8105 34.3984H77.3848V35.5153H77.8105V34.3984Z" fill="#8FC1B0"/>
<path d="M78.2363 34.3984H77.8105V35.5153H78.2363V34.3984Z" fill="#90C2B0"/>
<path d="M78.6621 34.3984H78.2363V35.5153H78.6621V34.3984Z" fill="#91C2B1"/>
<path d="M79.084 34.3984H78.6582V35.5153H79.084V34.3984Z" fill="#92C3B2"/>
<path d="M79.5098 34.3984H79.084V35.5153H79.5098V34.3984Z" fill="#93C3B2"/>
<path d="M79.9355 34.3984H79.5098V35.5153H79.9355V34.3984Z" fill="#94C4B3"/>
<path d="M80.3613 34.3984H79.9355V35.5153H80.3613V34.3984Z" fill="#95C4B4"/>
<path d="M80.7871 34.3984H80.3613V35.5153H80.7871V34.3984Z" fill="#96C5B4"/>
<path d="M81.2129 34.3984H80.7871V35.5153H81.2129V34.3984Z" fill="#97C5B5"/>
<path d="M81.6387 34.3984H81.2129V35.5153H81.6387V34.3984Z" fill="#98C6B6"/>
<path d="M82.0645 34.3984H81.6387V35.5153H82.0645V34.3984Z" fill="#99C6B6"/>
<path d="M82.4902 34.3984H82.0645V35.5153H82.4902V34.3984Z" fill="#9AC7B7"/>
<path d="M82.916 34.3984H82.4902V35.5153H82.916V34.3984Z" fill="#9BC7B8"/>
<path d="M83.3418 34.3984H82.916V35.5153H83.3418V34.3984Z" fill="#9CC8B8"/>
<path d="M83.7676 34.3984H83.3418V35.5153H83.7676V34.3984Z" fill="#9DC8B9"/>
<path d="M84.1934 34.3984H83.7676V35.5153H84.1934V34.3984Z" fill="#9FC9BA"/>
<path d="M84.6191 34.3984H84.1934V35.5153H84.6191V34.3984Z" fill="#A0C9BA"/>
<path d="M85.0449 34.3984H84.6191V35.5153H85.0449V34.3984Z" fill="#A1CABB"/>
<path d="M85.4707 34.3984H85.0449V35.5153H85.4707V34.3984Z" fill="#A2CABC"/>
<path d="M85.8965 34.3984H85.4707V35.5153H85.8965V34.3984Z" fill="#A3CBBC"/>
<path d="M86.3223 34.3984H85.8965V35.5153H86.3223V34.3984Z" fill="#A4CBBD"/>
<path d="M86.7481 34.3984H86.3223V35.5153H86.7481V34.3984Z" fill="#A5CCBE"/>
<path d="M87.1738 34.3984H86.748V35.5153H87.1738V34.3984Z" fill="#A6CCBE"/>
<path d="M87.5996 34.3984H87.1738V35.5153H87.5996V34.3984Z" fill="#A7CDBF"/>
<path d="M88.0254 34.3984H87.5996V35.5153H88.0254V34.3984Z" fill="#A8CDC0"/>
<path d="M88.4492 34.3984H88.0234V35.5153H88.4492V34.3984Z" fill="#A9CEC1"/>
<path d="M88.875 34.3984H88.4492V35.5153H88.875V34.3984Z" fill="#AACFC1"/>
<path d="M89.3008 34.3984H88.875V35.5153H89.3008V34.3984Z" fill="#ACCFC2"/>
<path d="M89.7266 34.3984H89.3008V35.5153H89.7266V34.3984Z" fill="#ADD0C3"/>
<path d="M90.1523 34.3984H89.7266V35.5153H90.1523V34.3984Z" fill="#AED0C3"/>
<path d="M90.5781 34.3984H90.1523V35.5153H90.5781V34.3984Z" fill="#AFD1C4"/>
<path d="M91.0039 34.3984H90.5781V35.5153H91.0039V34.3984Z" fill="#B0D1C5"/>
<path d="M91.4297 34.3984H91.0039V35.5153H91.4297V34.3984Z" fill="#B1D2C6"/>
<path d="M91.8555 34.3984H91.4297V35.5153H91.8555V34.3984Z" fill="#B2D2C6"/>
<path d="M92.2813 34.3984H91.8555V35.5153H92.2813V34.3984Z" fill="#B3D3C7"/>
<path d="M92.707 34.3984H92.2812V35.5153H92.707V34.3984Z" fill="#B4D4C8"/>
<path d="M93.1328 34.3984H92.707V35.5153H93.1328V34.3984Z" fill="#B6D4C9"/>
<path d="M93.5586 34.3984H93.1328V35.5153H93.5586V34.3984Z" fill="#B7D5C9"/>
<path d="M93.9844 34.3984H93.5586V35.5153H93.9844V34.3984Z" fill="#B8D5CA"/>
<path d="M94.4102 34.3984H93.9844V35.5153H94.4102V34.3984Z" fill="#B9D6CB"/>
<path d="M94.8359 34.3984H94.4102V35.5153H94.8359V34.3984Z" fill="#BAD7CC"/>
<path d="M95.2617 34.3984H94.8359V35.5153H95.2617V34.3984Z" fill="#BBD7CC"/>
<path d="M95.6875 34.3984H95.2617V35.5153H95.6875V34.3984Z" fill="#BCD8CD"/>
<path d="M96.1133 34.3984H95.6875V35.5153H96.1133V34.3984Z" fill="#BED8CE"/>
<path d="M96.5391 34.3984H96.1133V35.5153H96.5391V34.3984Z" fill="#BFD9CF"/>
<path d="M96.9649 34.3984H96.5391V35.5153H96.9649V34.3984Z" fill="#C0DACF"/>
<path d="M97.3867 34.3984H96.9609V35.5153H97.3867V34.3984Z" fill="#C1DAD0"/>
<path d="M97.8125 34.3984H97.3867V35.5153H97.8125V34.3984Z" fill="#C2DBD1"/>
<path d="M98.2383 34.3984H97.8125V35.5153H98.2383V34.3984Z" fill="#C3DBD2"/>
<path d="M98.6641 34.3984H98.2383V35.5153H98.6641V34.3984Z" fill="#C5DCD3"/>
<path d="M99.0898 34.3984H98.6641V35.5153H99.0898V34.3984Z" fill="#C6DDD3"/>
<path d="M99.5156 34.3984H99.0898V35.5153H99.5156V34.3984Z" fill="#C7DDD4"/>
<path d="M99.9414 34.3984H99.5156V35.5153H99.9414V34.3984Z" fill="#C8DED5"/>
<path d="M100.367 34.3984H99.9414V35.5153H100.367V34.3984Z" fill="#C9DFD6"/>
<path d="M100.793 34.3984H100.367V35.5153H100.793V34.3984Z" fill="#CADFD7"/>
<path d="M101.219 34.3984H100.793V35.5153H101.219V34.3984Z" fill="#CCE0D8"/>
<path d="M101.645 34.3984H101.219V35.5153H101.645V34.3984Z" fill="#CDE0D8"/>
<path d="M102.07 34.3984H101.645V35.5153H102.07V34.3984Z" fill="#CEE1D9"/>
<path d="M102.496 34.3984H102.07V35.5153H102.496V34.3984Z" fill="#CFE2DA"/>
<path d="M102.922 34.3984H102.496V35.5153H102.922V34.3984Z" fill="#D0E2DB"/>
<path d="M103.348 34.3984H102.922V35.5153H103.348V34.3984Z" fill="#D1E3DC"/>
<path d="M103.773 34.3984H103.348V35.5153H103.773V34.3984Z" fill="#D3E4DD"/>
<path d="M104.199 34.3984H103.773V35.5153H104.199V34.3984Z" fill="#D4E4DD"/>
<path d="M104.625 34.3984H104.199V35.5153H104.625V34.3984Z" fill="#D5E5DE"/>
<path d="M105.051 34.3984H104.625V35.5153H105.051V34.3984Z" fill="#D6E6DF"/>
<path d="M105.477 34.3984H105.051V35.5153H105.477V34.3984Z" fill="#D7E7E0"/>
<path d="M105.902 34.3984H105.477V35.5153H105.902V34.3984Z" fill="#D9E7E1"/>
<path d="M106.328 34.3984H105.902V35.5153H106.328V34.3984Z" fill="#DAE8E2"/>
<path d="M106.752 34.3984H106.326V35.5153H106.752V34.3984Z" fill="#DBE9E3"/>
<path d="M107.178 34.3984H106.752V35.5153H107.178V34.3984Z" fill="#DCE9E4"/>
<path d="M107.604 34.3984H107.178V35.5153H107.604V34.3984Z" fill="#DEEAE5"/>
<path d="M108.029 34.3984H107.604V35.5153H108.029V34.3984Z" fill="#DFEBE6"/>
<path d="M108.455 34.3984H108.029V35.5153H108.455V34.3984Z" fill="#E0ECE7"/>
<path d="M108.881 34.3984H108.455V35.5153H108.881V34.3984Z" fill="#E1ECE7"/>
<path d="M109.307 34.3984H108.881V35.5153H109.307V34.3984Z" fill="#E3EDE8"/>
<path d="M109.732 34.3984H109.307V35.5153H109.732V34.3984Z" fill="#E4EEE9"/>
<path d="M110.158 34.3984H109.732V35.5153H110.158V34.3984Z" fill="#E5EFEA"/>
<path d="M110.584 34.3984H110.158V35.5153H110.584V34.3984Z" fill="#E7EFEB"/>
<path d="M111.01 34.3984H110.584V35.5153H111.01V34.3984Z" fill="#E8F0EC"/>
<path d="M111.436 34.3984H111.01V35.5153H111.436V34.3984Z" fill="#E9F1ED"/>
<path d="M111.861 34.3984H111.436V35.5153H111.861V34.3984Z" fill="#EBF2EE"/>
<path d="M112.287 34.3984H111.861V35.5153H112.287V34.3984Z" fill="#ECF3EF"/>
<path d="M112.713 34.3984H112.287V35.5153H112.713V34.3984Z" fill="#EDF3F0"/>
<path d="M113.139 34.3984H112.713V35.5153H113.139V34.3984Z" fill="#EFF4F1"/>
<path d="M113.564 34.3984H113.139V35.5153H113.564V34.3984Z" fill="#F0F5F2"/>
<path d="M113.99 34.3984H113.564V35.5153H113.99V34.3984Z" fill="#F1F6F3"/>
<path d="M114.416 34.3984H113.99V35.5153H114.416V34.3984Z" fill="#F3F7F4"/>
<path d="M114.842 34.3984H114.416V35.5153H114.842V34.3984Z" fill="#F4F8F6"/>
<path d="M115.268 34.3984H114.842V35.5153H115.268V34.3984Z" fill="#F5F9F7"/>
<path d="M115.693 34.3984H115.268V35.5153H115.693V34.3984Z" fill="#F7FAF8"/>
<path d="M116.117 34.3984H115.691V35.5153H116.117V34.3984Z" fill="#F9FBFA"/>
<path d="M116.543 34.3984H116.117V35.5153H116.543V34.3984Z" fill="#FAFCFB"/>
<path d="M116.969 34.3984H116.543V35.5153H116.969V34.3984Z" fill="#FDFEFD"/>
<path d="M117.395 34.3984H116.969V35.5153H117.395V34.3984Z" fill="white"/>
</g>
</g>
<defs>
<clipPath id="clip0_9320_28225">
<rect width="180" height="38" fill="white"/>
</clipPath>
</defs>
</svg>
