<svg width="141" height="36" viewBox="0 0 141 36" fill="none" xmlns="http://www.w3.org/2000/svg">
<g clip-path="url(#clip0_2602_8343)">
<path d="M39.05 1.96825C35.2255 8.84319 31.3885 15.7098 27.5515 22.5806L27.5557 22.5889L24.4179 28.282C24.3887 28.3486 24.3513 28.4193 24.3138 28.49C24.2431 28.6107 24.1723 28.7356 24.1016 28.8604L23.2651 30.3794H23.2443C22.4869 31.7402 21.7461 33.1094 20.9929 34.4744C20.9846 34.4869 20.9804 34.4952 20.9721 34.5077C20.868 34.6908 20.7723 34.8448 20.6808 34.9738C20.1481 35.7062 19.7194 35.5647 19.116 34.5243C15.8117 28.8355 12.5324 23.1258 9.23639 17.4285C6.41899 12.5595 3.58911 7.69043 0.763394 2.82137C0.667678 2.65491 0.571961 2.49261 0.480406 2.32614C-0.247872 0.948656 -0.0273074 0.594921 1.9328 0.624053C6.89341 1.14425 10.9551 3.67033 13.6518 8.32299C16.361 13.0006 19.0619 17.6866 21.7711 22.3684L26.5569 15.2812C25.6913 15.8138 24.8007 15.947 23.9809 15.8846C22.3329 15.7514 20.868 14.7776 20.044 13.3419C18.7331 11.0572 17.4222 8.76412 16.1197 6.47525C14.7588 4.08233 15.6203 1.58954 18.0298 0.798839C18.4876 0.649022 18.9995 0.615729 19.4864 0.611568C21.7128 0.59076 23.9434 0.603245 26.5486 0.603245C25.246 2.95038 24.139 4.93546 23.0445 6.92886C22.6617 7.62801 22.2497 8.32299 21.9667 9.06375C21.4548 10.4121 22.0666 11.8437 23.4565 12.5428C23.6896 12.1808 23.9476 11.8187 24.164 11.4359C25.9826 8.1815 27.8137 4.93546 29.5907 1.66445C30.0069 0.902879 30.4938 0.569952 31.3802 0.59076C33.6608 0.64486 35.9455 0.594921 38.226 0.615729C39.2831 0.615729 39.5577 1.05686 39.05 1.96825Z" fill="url(#paint0_linear_2602_8343)"/>
<path d="M82.2098 32.6846H43.3281V33.0425H82.2098V32.6846Z" fill="url(#paint1_linear_2602_8343)"/>
<path d="M50.7652 6.49586V10.8156H59.2174V16.4129H50.7652V21.1821H60.3451V27.0791H43.4033V0.594727H60.3451V6.4917H50.7652V6.49586Z" fill="url(#paint2_linear_2602_8343)"/>
<path d="M88.5186 27.0832H81.1568L71.3521 12.2805V27.0832H63.9902V0.594727H71.3521L81.1568 15.5848V0.594727H88.5186V27.0832Z" fill="url(#paint3_linear_2602_8343)"/>
<path d="M99.9421 0.56543V15.93C99.9421 17.3574 100.275 18.4603 100.937 19.2343C101.598 20.0125 102.61 20.3996 103.962 20.3996C105.315 20.3996 106.334 20.0042 107.025 19.2177C107.712 18.427 108.057 17.3325 108.057 15.93V0.56543H115.419V15.93C115.419 18.3604 114.907 20.4329 113.879 22.1474C112.851 23.862 111.457 25.1521 109.689 26.0177C107.924 26.8833 105.964 27.312 103.808 27.312C101.653 27.312 99.734 26.8792 98.0402 26.0177C96.3506 25.1521 95.0231 23.8703 94.0576 22.1682C93.0921 20.4661 92.6094 18.3853 92.6094 15.93V0.56543H99.9421Z" fill="url(#paint4_linear_2602_8343)"/>
<path d="M122.627 25.5601C120.651 24.0952 119.585 21.9978 119.436 19.2678H127.288C127.363 20.1958 127.638 20.87 128.117 21.2945C128.591 21.7189 129.207 21.9354 129.956 21.9354C130.63 21.9354 131.188 21.7647 131.629 21.4276C132.066 21.0905 132.287 20.6203 132.287 20.0169C132.287 19.2428 131.924 18.6394 131.196 18.2149C130.468 17.7904 129.294 17.3118 127.663 16.7875C125.936 16.2132 124.538 15.6555 123.472 15.1145C122.407 14.5777 121.483 13.787 120.692 12.7466C119.902 11.7062 119.51 10.3495 119.51 8.67237C119.51 6.97028 119.935 5.50956 120.788 4.29438C121.641 3.07919 122.819 2.15948 124.321 1.53525C125.824 0.911007 127.526 0.594727 129.432 0.594727C132.511 0.594727 134.971 1.31468 136.814 2.75459C138.654 4.1945 139.636 6.21703 139.765 8.82219H131.762C131.737 8.019 131.492 7.41973 131.03 7.02022C130.568 6.62071 129.973 6.42095 129.244 6.42095C128.695 6.42095 128.241 6.58325 127.892 6.90786C127.542 7.23246 127.368 7.69856 127.368 8.29783C127.368 8.79722 127.563 9.23002 127.95 9.59208C128.337 9.95414 128.82 10.2663 129.398 10.5326C129.973 10.7948 130.826 11.1277 131.954 11.5272C133.631 12.1057 135.017 12.6717 136.103 13.2376C137.193 13.7994 138.134 14.5901 138.92 15.6056C139.711 16.621 140.102 17.9028 140.102 19.455C140.102 21.0323 139.707 22.4472 138.92 23.6999C138.129 24.9525 136.993 25.943 135.503 26.6671C134.014 27.3954 132.253 27.7574 130.227 27.7574C127.134 27.7574 124.604 27.025 122.627 25.5601Z" fill="url(#paint5_linear_2602_8343)"/>
<path d="M88.3646 33.6413H89.4924V34.3071H87.499V30.7656H88.3605V33.6413H88.3646Z" fill="url(#paint6_linear_2602_8343)"/>
<path d="M95.8136 31.4565V32.1722H96.9705V32.8381H95.8136V33.6163H97.1203V34.3071H94.9521V30.7656H97.1203V31.4565H95.8136Z" fill="url(#paint7_linear_2602_8343)"/>
<path d="M104.928 33.679H103.608L103.396 34.3032H102.493L103.775 30.7617H104.774L106.055 34.3032H105.144L104.928 33.679ZM104.707 33.0131L104.27 31.7189L103.837 33.0131H104.707Z" fill="url(#paint8_linear_2602_8343)"/>
<path d="M114.033 30.7656V31.4565H113.097V34.3071H112.235V31.4565H111.299V30.7656H114.033Z" fill="url(#paint9_linear_2602_8343)"/>
<path d="M122.577 30.7656V34.3071H121.715V32.8506H120.375V34.3071H119.514V30.7656H120.375V32.1514H121.715V30.7656H122.577Z" fill="url(#paint10_linear_2602_8343)"/>
<path d="M129.103 31.4565V32.1722H130.26V32.8381H129.103V33.6163H130.409V34.3071H128.241V30.7656H130.409V31.4565H129.103Z" fill="url(#paint11_linear_2602_8343)"/>
<path d="M137.821 34.3032L137.084 32.9674H136.876V34.3032H136.015V30.7617H137.463C137.742 30.7617 137.979 30.8117 138.175 30.9074C138.37 31.0031 138.52 31.1404 138.616 31.3069C138.711 31.4775 138.761 31.6648 138.761 31.8729C138.761 32.1101 138.695 32.3182 138.562 32.5013C138.428 32.6844 138.233 32.8175 137.975 32.8966L138.79 34.2991H137.821V34.3032ZM136.876 32.3598H137.409C137.567 32.3598 137.683 32.3223 137.763 32.2432C137.842 32.1642 137.879 32.056 137.879 31.9145C137.879 31.7813 137.837 31.6731 137.763 31.5982C137.683 31.5191 137.563 31.4817 137.409 31.4817H136.876V32.3598Z" fill="url(#paint12_linear_2602_8343)"/>
</g>
<defs>
<linearGradient id="paint0_linear_2602_8343" x1="20.6174" y1="-5.21944" x2="15.2223" y2="32.7205" gradientUnits="userSpaceOnUse">
<stop stop-color="#F6D84D"/>
<stop offset="1" stop-color="#BF861C"/>
</linearGradient>
<linearGradient id="paint1_linear_2602_8343" x1="43.33" y1="32.8609" x2="82.2129" y2="32.8609" gradientUnits="userSpaceOnUse">
<stop stop-color="#D89B12"/>
<stop offset="0.0896" stop-color="#D99F1B"/>
<stop offset="0.2358" stop-color="#DDA933"/>
<stop offset="0.4205" stop-color="#E4BA5B"/>
<stop offset="0.6363" stop-color="#EDD192"/>
<stop offset="0.8756" stop-color="#F9EFD8"/>
<stop offset="1" stop-color="white"/>
</linearGradient>
<linearGradient id="paint2_linear_2602_8343" x1="148.667" y1="-7.61005" x2="38.5437" y2="16.7932" gradientUnits="userSpaceOnUse">
<stop stop-color="#F6D84D"/>
<stop offset="1" stop-color="#BF861C"/>
</linearGradient>
<linearGradient id="paint3_linear_2602_8343" x1="149.808" y1="-2.46005" x2="39.6845" y2="21.9431" gradientUnits="userSpaceOnUse">
<stop stop-color="#F6D84D"/>
<stop offset="1" stop-color="#BF861C"/>
</linearGradient>
<linearGradient id="paint4_linear_2602_8343" x1="150.895" y1="2.44489" x2="40.7714" y2="26.8481" gradientUnits="userSpaceOnUse">
<stop stop-color="#F6D84D"/>
<stop offset="1" stop-color="#BF861C"/>
</linearGradient>
<linearGradient id="paint5_linear_2602_8343" x1="152.385" y1="9.1696" x2="42.2621" y2="33.5728" gradientUnits="userSpaceOnUse">
<stop stop-color="#F6D84D"/>
<stop offset="1" stop-color="#BF861C"/>
</linearGradient>
<linearGradient id="paint6_linear_2602_8343" x1="152.686" y1="18.3105" x2="45.2733" y2="42.1131" gradientUnits="userSpaceOnUse">
<stop stop-color="#F6D84D"/>
<stop offset="1" stop-color="#BF861C"/>
</linearGradient>
<linearGradient id="paint7_linear_2602_8343" x1="153.039" y1="19.9028" x2="45.6257" y2="43.7055" gradientUnits="userSpaceOnUse">
<stop stop-color="#F6D84D"/>
<stop offset="1" stop-color="#BF861C"/>
</linearGradient>
<linearGradient id="paint8_linear_2602_8343" x1="153.455" y1="21.7781" x2="46.0415" y2="45.5808" gradientUnits="userSpaceOnUse">
<stop stop-color="#F6D84D"/>
<stop offset="1" stop-color="#BF861C"/>
</linearGradient>
<linearGradient id="paint9_linear_2602_8343" x1="153.795" y1="23.3158" x2="46.382" y2="47.1185" gradientUnits="userSpaceOnUse">
<stop stop-color="#F6D84D"/>
<stop offset="1" stop-color="#BF861C"/>
</linearGradient>
<linearGradient id="paint10_linear_2602_8343" x1="154.209" y1="25.185" x2="46.7963" y2="48.9876" gradientUnits="userSpaceOnUse">
<stop stop-color="#F6D84D"/>
<stop offset="1" stop-color="#BF861C"/>
</linearGradient>
<linearGradient id="paint11_linear_2602_8343" x1="154.598" y1="26.9344" x2="47.1846" y2="50.737" gradientUnits="userSpaceOnUse">
<stop stop-color="#F6D84D"/>
<stop offset="1" stop-color="#BF861C"/>
</linearGradient>
<linearGradient id="paint12_linear_2602_8343" x1="154.975" y1="28.6409" x2="47.5624" y2="52.4435" gradientUnits="userSpaceOnUse">
<stop stop-color="#F6D84D"/>
<stop offset="1" stop-color="#BF861C"/>
</linearGradient>
<clipPath id="clip0_2602_8343">
<rect width="140" height="34.8699" fill="white" transform="translate(0.0976562 0.56543)"/>
</clipPath>
</defs>
</svg>
