<svg width="24" height="24" viewBox="0 0 24 24" fill="none" xmlns="http://www.w3.org/2000/svg">
<path d="M15.1872 9.87344C15.4801 9.58055 15.4801 9.10567 15.1872 8.81278C14.8943 8.51989 14.4194 8.51989 14.1266 8.81278L8.4697 14.4696C8.17681 14.7625 8.17681 15.2374 8.4697 15.5303C8.76259 15.8232 9.23747 15.8232 9.53036 15.5303L15.1872 9.87344Z" fill="#475569"/>
<path fill-rule="evenodd" clip-rule="evenodd" d="M15.5644 2.75658C14.541 -0.829342 9.45905 -0.829342 8.43568 2.75658C8.10886 3.90174 6.93235 4.581 5.7772 4.29145C2.16002 3.38476 -0.380964 7.78586 2.21285 10.4651C3.04118 11.3207 3.04118 12.6792 2.21285 13.5348C-0.380965 16.2141 2.16002 20.6152 5.7772 19.7085C6.93235 19.4189 8.10886 20.0982 8.43568 21.2433C9.45905 24.8293 14.541 24.8293 15.5644 21.2433C15.8912 20.0982 17.0677 19.4189 18.2229 19.7085C21.84 20.6152 24.381 16.2141 21.7872 13.5348C20.9589 12.6792 20.9589 11.3207 21.7872 10.4651C24.381 7.78586 21.84 3.38476 18.2229 4.29145C17.0677 4.581 15.8912 3.90174 15.5644 2.75658ZM9.87809 3.16823C10.4873 1.03344 13.5127 1.03344 14.122 3.16823C14.6709 5.09182 16.6472 6.23281 18.5876 5.74644C20.741 5.20666 22.2537 7.82674 20.7095 9.42175C19.3181 10.859 19.3181 13.141 20.7095 14.5782C22.2537 16.1732 20.741 18.7933 18.5876 18.2535C16.6472 17.7671 14.6709 18.9081 14.122 20.8317C13.5127 22.9665 10.4873 22.9665 9.87809 20.8317C9.32912 18.9081 7.35286 17.7671 5.41249 18.2535C3.2591 18.7933 1.74639 16.1732 3.29055 14.5782C4.68195 13.141 4.68195 10.859 3.29055 9.42175C1.74639 7.82674 3.2591 5.20666 5.41249 5.74644C7.35286 6.23281 9.32912 5.09182 9.87809 3.16823Z" fill="#475569"/>
<path d="M8.00006 9C8.00006 9.55228 8.44778 10 9.00006 10C9.55235 10 10.0001 9.55228 10.0001 9C10.0001 8.44772 9.55235 8 9.00006 8C8.44778 8 8.00006 8.44772 8.00006 9Z" fill="#475569"/>
<path d="M14.0001 15C14.0001 15.5523 14.4478 16 15.0001 16C15.5523 16 16.0001 15.5523 16.0001 15C16.0001 14.4477 15.5523 14 15.0001 14C14.4478 14 14.0001 14.4477 14.0001 15Z" fill="#475569"/>
</svg>
