<svg width="96" height="96" viewBox="0 0 96 96" fill="none" xmlns="http://www.w3.org/2000/svg">
<circle cx="48" cy="48" r="48" fill="#A9A9A9"/>
<path d="M43.27 60.0154C41.1152 59.5928 39.1194 58.5823 37.5032 57.0958C35.887 55.6094 34.7135 53.7048 34.1125 51.5928L31.5072 42.2288C30.9335 40.1468 29.6841 38.3145 27.9554 37.02C26.2267 35.7255 24.1168 35.0423 21.9574 35.0778C21.5782 35.0833 21.2122 34.9382 20.9397 34.6743C20.6673 34.4104 20.5106 34.0492 20.5041 33.6699C20.5008 33.4823 20.5345 33.2959 20.6033 33.1213C20.6721 32.9467 20.7746 32.7874 20.905 32.6525C21.0353 32.5175 21.191 32.4096 21.3631 32.3348C21.5351 32.26 21.7203 32.2198 21.9079 32.2166C24.6997 32.17 27.428 33.0517 29.6645 34.7233C31.9011 36.3949 33.5193 38.7619 34.2652 41.4526L36.8705 50.8166C37.3939 52.669 38.4969 54.305 40.0179 55.4849C41.5388 56.6648 43.3976 57.3265 45.322 57.373L63.8188 57.4432C64.0067 57.4438 64.1927 57.4814 64.3661 57.5539C64.5395 57.6265 64.6968 57.7325 64.8292 57.866C64.9615 57.9995 65.0662 58.1578 65.1372 58.3318C65.2083 58.5058 65.2443 58.6921 65.2432 58.88C65.241 59.2575 65.0895 59.6187 64.8219 59.8848C64.5542 60.151 64.1921 60.3003 63.8146 60.3003L45.2972 60.2301C44.6165 60.2179 43.9382 60.146 43.27 60.0154Z" fill="#F5F5F5"/>
<path d="M45.6391 67.6064C47.1842 66.5575 47.5865 64.4546 46.5376 62.9095C45.4887 61.3644 43.3858 60.9621 41.8407 62.011C40.2956 63.0599 39.8933 65.1627 40.9422 66.7079C41.991 68.253 44.0939 68.6553 45.6391 67.6064Z" fill="#F5F5F5"/>
<path d="M59.3722 67.6018C60.9259 66.5656 61.3454 64.4661 60.3092 62.9124C59.273 61.3587 57.1735 60.9392 55.6198 61.9754C54.0662 63.0116 53.6466 65.1111 54.6828 66.6648C55.719 68.2185 57.8185 68.638 59.3722 67.6018Z" fill="#F5F5F5"/>
<path d="M40.244 52.273C53.7449 49.1475 59.3146 41.2492 61.5607 36.0924C60.71 35.7797 59.8077 35.6312 58.9017 35.6548L34.9922 36.3649L38.0144 48.0782C38.4169 49.6325 39.1808 51.0698 40.244 52.273Z" fill="#F5F5F5"/>
<path d="M66.2302 43.7481C66.4287 42.2381 66.1417 40.7041 65.4106 39.3681C64.6794 38.032 63.5422 36.9633 62.1634 36.3164C59.0545 50.1271 51.6516 54.4086 47.7871 55.7215H48.039L64.6984 55.5192L66.2302 43.7481Z" fill="#F5F5F5"/>
</svg>
