<svg width="14" height="14" viewBox="0 0 14 14" fill="none" xmlns="http://www.w3.org/2000/svg">
<path d="M13.1584 1.40679C13.4025 1.16271 13.4025 0.76698 13.1584 0.522902C12.9144 0.278824 12.5186 0.278824 12.2746 0.522902L6.88315 5.91431L1.49175 0.522905C1.24767 0.278827 0.851941 0.278827 0.607863 0.522905C0.363785 0.766982 0.363785 1.16271 0.607863 1.40679L5.99926 6.79819L0.607885 12.1896C0.363808 12.4336 0.363808 12.8294 0.607885 13.0735C0.851963 13.3175 1.24769 13.3175 1.49177 13.0735L6.88315 7.68207L12.2745 13.0735C12.5186 13.3175 12.9143 13.3175 13.1584 13.0735C13.4025 12.8294 13.4025 12.4336 13.1584 12.1896L7.76703 6.79819L13.1584 1.40679Z" fill="#00B795"/>
</svg>
