<svg width="73" height="72" viewBox="0 0 73 72" fill="none" xmlns="http://www.w3.org/2000/svg">
<path d="M36.3477 72C56.2299 72 72.3477 55.8823 72.3477 36C72.3477 16.1178 56.2299 0 36.3477 0C16.4654 0 0.347656 16.1178 0.347656 36C0.347656 55.8823 16.4654 72 36.3477 72Z" fill="#FFF1F1"/>
<path d="M36.3484 70.2008C55.2366 70.2008 70.5484 54.8889 70.5484 36.0008C70.5484 17.1126 55.2366 1.80078 36.3484 1.80078C17.4603 1.80078 2.14844 17.1126 2.14844 36.0008C2.14844 54.8889 17.4603 70.2008 36.3484 70.2008Z" stroke="#FF4C4C" stroke-width="3"/>
<path d="M25.8747 46.4718C26.0123 46.6246 26.1814 46.7456 26.3703 46.8267C26.5593 46.9077 26.7636 46.9467 26.9691 46.941C27.1746 46.9467 27.3789 46.9077 27.5679 46.8267C27.7568 46.7456 27.926 46.6246 28.0635 46.4718L36.3435 38.1918L44.6235 46.4718C44.7646 46.62 44.9344 46.7381 45.1225 46.8188C45.3107 46.8994 45.5132 46.941 45.7179 46.941C45.9226 46.941 46.1252 46.8994 46.3133 46.8188C46.5014 46.7381 46.6712 46.62 46.8123 46.4718C46.9606 46.3307 47.0786 46.1609 47.1593 45.9728C47.24 45.7846 47.2816 45.5821 47.2816 45.3774C47.2816 45.1727 47.24 44.9701 47.1593 44.782C47.0786 44.5939 46.9606 44.4241 46.8123 44.283L38.5323 36.003L46.8123 27.723C47.0934 27.4309 47.2487 27.0401 47.2449 26.6347C47.241 26.2293 47.0782 25.8416 46.7915 25.555C46.5049 25.2683 46.1172 25.1055 45.7118 25.1016C45.3064 25.0977 44.9156 25.2531 44.6235 25.5342L36.3435 33.8142L28.0635 25.5342C27.7684 25.276 27.3863 25.1395 26.9944 25.1521C26.6025 25.1648 26.23 25.3257 25.9521 25.6023C25.6743 25.879 25.5117 26.2507 25.4974 26.6426C25.483 27.0344 25.6179 27.4171 25.8747 27.7134L34.1547 35.9934L25.8747 44.2734C25.7249 44.4146 25.6056 44.585 25.524 44.774C25.4425 44.963 25.4004 45.1667 25.4004 45.3726C25.4004 45.5784 25.4425 45.7821 25.524 45.9712C25.6056 46.1602 25.7249 46.3305 25.8747 46.4718Z" fill="#FF4C4C"/>
</svg>
