<svg width="73" height="72" viewBox="0 0 73 72" fill="none" xmlns="http://www.w3.org/2000/svg">
<path d="M36.4422 68.9548C54.3822 68.9548 68.9255 54.4115 68.9255 36.4715C68.9255 18.5315 54.3822 3.98828 36.4422 3.98828C18.5022 3.98828 3.95898 18.5315 3.95898 36.4715C3.95898 54.4115 18.5022 68.9548 36.4422 68.9548Z" fill="#E5F7F4"/>
<path d="M69.1133 32.9844V36.0168C69.1097 43.1246 66.8085 50.0407 62.5531 55.7338C58.2977 61.4269 52.316 65.5919 45.5 67.6077C38.6841 69.6234 31.3992 69.3819 24.7317 66.9192C18.0643 64.4564 12.3716 59.9043 8.50254 53.9419C4.63353 47.9794 2.79555 40.9261 3.2627 33.8337C3.72985 26.7413 6.47711 19.9899 11.0948 14.5865C15.7124 9.18302 21.953 5.41698 28.8859 3.85003C35.8188 2.28308 43.0724 2.99917 49.5651 5.89151" stroke="#00B795" stroke-width="3" stroke-linecap="round" stroke-linejoin="round"/>
<path d="M69.111 9.64844L36.152 42.6409L26.2637 32.7526" stroke="#00B795" stroke-width="3" stroke-linecap="round" stroke-linejoin="round"/>
</svg>
