<svg width="73" height="72" viewBox="0 0 73 72" fill="none" xmlns="http://www.w3.org/2000/svg">
<path d="M36.1523 72C56.0346 72 72.1523 55.8823 72.1523 36C72.1523 16.1178 56.0346 0 36.1523 0C16.2701 0 0.152344 16.1178 0.152344 36C0.152344 55.8823 16.2701 72 36.1523 72Z" fill="#FFF3E5"/>
<path d="M36.1531 70.2008C55.0413 70.2008 70.3531 54.8889 70.3531 36.0008C70.3531 17.1126 55.0413 1.80078 36.1531 1.80078C17.265 1.80078 1.95312 17.1126 1.95312 36.0008C1.95312 54.8889 17.265 70.2008 36.1531 70.2008Z" stroke="#FF8900" stroke-width="3"/>
<path d="M35.5537 31.1102C34.9048 31.1102 34.2824 31.368 33.8235 31.8269C33.3647 32.2857 33.1069 32.9081 33.1069 33.557V48.2354C33.0997 48.5612 33.1576 48.8852 33.2773 49.1883C33.397 49.4914 33.576 49.7675 33.8039 50.0005C34.0318 50.2335 34.3039 50.4186 34.6042 50.5449C34.9046 50.6713 35.2272 50.7364 35.5531 50.7364C35.879 50.7364 36.2016 50.6713 36.5019 50.5449C36.8023 50.4186 37.0744 50.2335 37.3023 50.0005C37.5302 49.7675 37.7092 49.4914 37.8289 49.1883C37.9486 48.8852 38.0065 48.5612 37.9993 48.2354V33.557C37.9993 32.9083 37.7417 32.2861 37.2831 31.8273C36.8245 31.3685 36.2024 31.1105 35.5537 31.1102ZM35.5537 21.3242C34.949 21.3242 34.3578 21.5035 33.855 21.8395C33.3522 22.1755 32.9603 22.653 32.7288 23.2117C32.4974 23.7704 32.4369 24.3852 32.5548 24.9783C32.6728 25.5714 32.964 26.1163 33.3916 26.5439C33.8193 26.9715 34.3641 27.2627 34.9572 27.3807C35.5503 27.4986 36.1651 27.4381 36.7238 27.2067C37.2825 26.9753 37.76 26.5833 38.096 26.0805C38.432 25.5777 38.6113 24.9866 38.6113 24.3818C38.6113 23.9803 38.5322 23.5827 38.3786 23.2117C38.2249 22.8408 37.9997 22.5037 37.7157 22.2198C37.4318 21.9358 37.0948 21.7106 36.7238 21.557C36.3528 21.4033 35.9552 21.3242 35.5537 21.3242Z" fill="#FF8900"/>
</svg>
